<?xml version="1.0" encoding="utf-8"?>
<!-- Generator: Adobe Illustrator 28.1.0, SVG Export Plug-In . SVG Version: 6.00 Build 0)  -->
<svg version="1.1" id="Capa_1" xmlns="http://www.w3.org/2000/svg" xmlns:xlink="http://www.w3.org/1999/xlink" x="0px" y="0px"
	 viewBox="0 0 154.1 50.7" style="enable-background:new 0 0 154.1 50.7;" xml:space="preserve">
<style type="text/css">
	.st0{fill:#004B87;}
	.st1{fill:#69B3E7;}
	.st2{fill:#C8D8EB;}
	.st3{clip-path:url(#SVGID_00000144332279756146626720000010177537928264035210_);}
	.st4{fill:#FFFFFF;}
	.st5{fill:none;}
	.st6{clip-path:url(#SVGID_00000132054127229917994650000017090459159024291993_);}
</style>
<g>
	<g>
		<g>
			<path class="st0" d="M49.5,35.5c-0.8,0-1.5-0.1-2.2-0.3c-0.7-0.2-1.4-0.4-2-0.8c0.1-0.5,0.2-1,0.2-1.5c0-0.5,0-1,0-1.4
				c0.3-0.1,0.6-0.1,0.9-0.2c0.3,0,0.7,0,1,0c0.1,0.7,0.2,1.3,0.3,1.7c0.1,0.4,0.3,0.7,0.6,0.9c0.3,0.2,0.7,0.3,1.2,0.3
				c0.7,0,1.2-0.1,1.4-0.4s0.4-0.6,0.4-1s-0.1-0.7-0.4-0.9c-0.3-0.3-0.6-0.5-1.1-0.7c-0.4-0.2-0.9-0.4-1.4-0.7
				c-0.5-0.2-1-0.5-1.4-0.9c-0.4-0.3-0.8-0.7-1.1-1.2c-0.3-0.5-0.4-1.1-0.4-1.8c0-0.9,0.2-1.5,0.6-2.1c0.4-0.5,0.9-0.9,1.5-1.2
				c0.6-0.3,1.3-0.4,2.1-0.4c0.5,0,0.9,0,1.4,0.1c0.5,0.1,0.9,0.2,1.3,0.3c0.4,0.1,0.7,0.3,0.9,0.4c0,0.5,0,1,0,1.5
				c0,0.5,0,0.9,0.1,1.2c-0.2,0.1-0.5,0.2-0.9,0.3c-0.4,0.1-0.7,0.1-1,0.1c-0.1-0.7-0.2-1.2-0.4-1.5c-0.2-0.4-0.4-0.6-0.7-0.8
				c-0.3-0.1-0.6-0.2-0.9-0.2c-0.4,0-0.8,0.1-1.1,0.3C48.1,24.7,48,25,48,25.4c0,0.4,0.2,0.8,0.5,1c0.3,0.3,0.7,0.5,1.2,0.8
				c0.5,0.2,1,0.5,1.5,0.7c0.5,0.2,1,0.5,1.5,0.9c0.5,0.3,0.9,0.7,1.2,1.2c0.3,0.5,0.5,1.1,0.5,1.8c0,0.7-0.2,1.4-0.5,1.9
				c-0.4,0.6-0.9,1-1.6,1.3S50.5,35.5,49.5,35.5z"/>
			<path class="st0" d="M55.6,23c0.3,0,0.6,0,1,0c0.4,0,0.8,0,1.2,0c0.4,0,0.8,0,1.2,0s0.7,0,1.1,0v9c0,0.5,0,0.9,0.1,1.2
				c0.1,0.3,0.2,0.5,0.4,0.6c0.2,0.1,0.5,0.2,0.9,0.2l-0.6,1.2c-0.3,0-0.7,0-1.3,0c-0.5,0-1,0-1.6,0c-0.5,0-1.1,0-1.5,0
				c-0.5,0-0.8,0-1,0c0-0.2,0-0.5,0-0.7c0-0.2,0.1-0.4,0.1-0.6c0.3,0,0.6-0.1,0.8-0.2c0.2-0.1,0.3-0.3,0.4-0.6
				c0.1-0.3,0.1-0.7,0.1-1.2v-6c0-0.5,0-0.9-0.1-1.1c-0.1-0.3-0.2-0.4-0.4-0.5c-0.2-0.1-0.4-0.2-0.8-0.2c0-0.2-0.1-0.4-0.1-0.6
				C55.6,23.4,55.6,23.2,55.6,23z M63.3,27.1c0,0.3,0,0.6,0,0.9c0,0.3,0,0.7,0,1.1c0,0.5,0,0.9,0,1.2c0,0.3,0,0.7,0,0.9
				c-0.3,0-0.5,0-0.8,0c-0.2,0-0.4-0.1-0.6-0.1c0-0.5-0.2-0.9-0.4-1.1c-0.2-0.2-0.6-0.3-1.2-0.3h-1.1v-1.2h1.1
				c0.6,0,1.1-0.1,1.3-0.3c0.2-0.2,0.3-0.5,0.3-1c0.2-0.1,0.4-0.1,0.7-0.2C62.9,27.1,63.1,27.1,63.3,27.1z M64.9,23
				c0,0.3,0,0.6,0.1,1c0,0.4,0.1,0.8,0.1,1.1c0,0.4,0.1,0.7,0.2,1c-0.2,0.1-0.4,0.2-0.7,0.2c-0.2,0.1-0.6,0.1-0.9,0.1
				c-0.1-0.4-0.2-0.8-0.3-1.1c-0.2-0.3-0.4-0.6-0.8-0.8s-0.9-0.3-1.5-0.3h-1.8l0.6-1.2c0.9,0,1.7,0,2.3,0c0.6,0,1.2,0,1.6,0
				C64.3,23,64.6,23,64.9,23z M64.4,31.7c0.3,0,0.6,0.1,0.9,0.2c0.3,0.1,0.5,0.2,0.6,0.4c-0.1,0.4-0.2,0.9-0.3,1.4
				c-0.1,0.6-0.2,1.1-0.2,1.6c-0.3,0-0.7,0-1.2,0c-0.5,0-1,0-1.6,0c-0.6,0-1.1,0-1.6,0l0.6-1.2h0.3c0.5,0,1-0.1,1.3-0.3
				c0.3-0.2,0.6-0.4,0.8-0.8C64.1,32.7,64.2,32.2,64.4,31.7z"/>
			<path class="st0" d="M73.5,35.5c-1.3,0-2.4-0.3-3.4-0.8c-0.9-0.5-1.7-1.2-2.2-2.2c-0.5-1-0.8-2.1-0.8-3.4c0-1,0.2-1.9,0.5-2.6
				c0.3-0.8,0.7-1.4,1.3-1.9c0.6-0.5,1.3-0.9,2-1.2c0.8-0.3,1.7-0.4,2.6-0.4c0.8,0,1.6,0.1,2.4,0.3c0.7,0.2,1.4,0.4,1.9,0.7
				c-0.1,0.4-0.1,0.9-0.2,1.3c0,0.5,0,1,0,1.5c-0.2,0.1-0.5,0.2-0.8,0.2c-0.3,0-0.6,0-0.8,0c0-0.7-0.2-1.2-0.4-1.6
				c-0.2-0.4-0.5-0.7-0.9-0.8c-0.4-0.2-0.8-0.2-1.3-0.2c-0.7,0-1.4,0.2-1.8,0.6c-0.5,0.4-0.8,1-1,1.7c-0.2,0.7-0.3,1.4-0.3,2.2
				c0,1.1,0.1,2,0.4,2.8c0.3,0.8,0.6,1.5,1.1,2c0.5,0.5,1.1,0.7,1.8,0.7c0.2,0,0.4,0,0.5,0c0.1,0,0.3-0.1,0.4-0.1
				c0.2-0.1,0.3-0.2,0.4-0.4c0.1-0.2,0.2-0.5,0.2-1V32c0-0.4,0-0.7-0.1-0.9c-0.1-0.2-0.2-0.3-0.4-0.4c-0.2-0.1-0.5-0.1-0.9-0.1
				c0-0.2-0.1-0.4-0.1-0.6c0-0.2,0-0.4,0-0.7c0.3,0,0.7,0,1.2,0c0.5,0,0.9,0,1.3,0c0.4,0,0.8,0,1.3,0c0.5,0,0.9,0,1.2,0
				c0,0.2,0,0.4,0,0.6c0,0.2,0,0.4-0.1,0.6c-0.2,0-0.4,0.1-0.5,0.1C78,30.7,78,30.9,77.9,31c0,0.2,0,0.4,0,0.8v0.5
				c0,0.4,0,0.8,0.1,1c0,0.2,0.1,0.5,0.2,0.8c-0.6,0.4-1.2,0.7-2,1C75.3,35.3,74.5,35.5,73.5,35.5z"/>
			<path class="st0" d="M90.2,30.3c0,1-0.1,1.9-0.2,2.5c-0.1,0.7-0.4,1.2-0.9,1.6c-0.4,0.3-0.8,0.6-1.3,0.7
				c-0.5,0.2-1.1,0.2-1.8,0.2c-1.2,0-2.1-0.2-2.8-0.5c-0.7-0.3-1.2-0.8-1.5-1.5c-0.3-0.7-0.4-1.5-0.4-2.5v-4.8c0-0.5,0-0.9-0.1-1.2
				c-0.1-0.3-0.2-0.4-0.3-0.5c-0.2-0.1-0.4-0.2-0.7-0.2c0-0.2-0.1-0.4-0.1-0.6s0-0.4,0-0.7c0.2,0,0.6,0,1,0c0.4,0,0.9,0,1.3,0
				c0.2,0,0.5,0,0.8,0c0.3,0,0.6,0,1,0c0.3,0,0.6,0,0.9,0c0.3,0,0.5,0,0.6,0c0,0.2,0,0.5,0,0.7c0,0.2,0,0.4-0.1,0.6
				c-0.3,0-0.6,0.1-0.7,0.2c-0.2,0.1-0.3,0.3-0.3,0.5c-0.1,0.3-0.1,0.7-0.1,1.2v4.5c0,0.7,0.1,1.3,0.2,1.9c0.2,0.5,0.4,0.9,0.7,1.2
				c0.3,0.3,0.8,0.4,1.3,0.4c0.3,0,0.6-0.1,0.9-0.2c0.3-0.1,0.6-0.3,0.8-0.6c0.1-0.2,0.2-0.4,0.3-0.6s0.1-0.6,0.2-1
				c0-0.4,0.1-0.9,0.1-1.5v-3.6c0-0.6,0-1.1-0.1-1.4c-0.1-0.3-0.2-0.6-0.4-0.7c-0.2-0.1-0.4-0.2-0.7-0.3c0-0.2-0.1-0.4-0.1-0.7
				c0-0.2,0-0.4,0-0.6c0.2,0,0.4,0,0.6,0c0.2,0,0.5,0,0.7,0c0.2,0,0.5,0,0.6,0c0.3,0,0.7,0,1,0c0.3,0,0.6,0,0.9,0c0,0.2,0,0.4,0,0.6
				c0,0.2-0.1,0.4-0.1,0.6c-0.3,0-0.5,0.1-0.7,0.3c-0.2,0.1-0.3,0.4-0.3,0.7c-0.1,0.3-0.1,0.8-0.1,1.3V30.3z"/>
			<path class="st0" d="M100.9,35.5c-0.1-0.3-0.3-0.6-0.4-0.9c-0.1-0.3-0.3-0.6-0.4-0.9c-0.1-0.3-0.2-0.6-0.4-0.9
				c-0.2-0.4-0.4-0.8-0.5-1.1c-0.2-0.3-0.3-0.6-0.5-0.8c-0.2-0.2-0.4-0.4-0.7-0.7l0.8,0.1c-0.3,0-0.6,0-0.9,0c-0.2,0-0.5,0-0.8,0
				l0.1-1.3c0.2,0,0.3,0,0.4,0.1c0.1,0,0.2,0,0.3,0c0.4,0,0.8-0.1,1.2-0.3c0.4-0.2,0.7-0.4,0.9-0.8c0.2-0.4,0.4-0.8,0.4-1.4
				c0-0.8-0.2-1.4-0.6-1.8c-0.4-0.4-0.9-0.7-1.6-0.7c-0.2,0-0.4,0-0.5,0c-0.2,0-0.3,0.1-0.5,0.1l0.1-0.6v8.3c0,0.6,0,1,0.1,1.3
				c0.1,0.3,0.2,0.5,0.3,0.6c0.1,0.1,0.3,0.1,0.6,0.2c0,0.1,0.1,0.3,0.1,0.5c0,0.2,0,0.5,0,0.7c-0.2,0-0.5,0-0.9,0
				c-0.4,0-0.7,0-1.1,0c-0.4,0-0.7,0-0.9,0c-0.4,0-0.9,0-1.4,0c-0.5,0-0.9,0-1.3,0c0-0.3,0-0.5,0-0.7c0-0.2,0.1-0.4,0.1-0.5
				c0.3,0,0.6-0.1,0.8-0.2c0.2-0.1,0.3-0.3,0.4-0.6c0.1-0.3,0.1-0.7,0.1-1.2v-6.1c0-0.5,0-0.9-0.1-1.1c-0.1-0.3-0.2-0.4-0.4-0.5
				c-0.2-0.1-0.4-0.2-0.8-0.2c0-0.2-0.1-0.4-0.1-0.7c0-0.3,0-0.5,0-0.6c0.3,0,0.7,0,1.2,0c0.5,0,1.1,0,1.6,0c0.4,0,0.9,0,1.5,0
				c0.6,0,1.3,0,2,0c1,0,1.8,0.1,2.5,0.4c0.6,0.3,1.1,0.7,1.4,1.2c0.3,0.5,0.5,1.1,0.5,1.7c0,0.7-0.1,1.4-0.4,1.9
				c-0.3,0.5-0.7,1-1.2,1.3c-0.5,0.3-1.1,0.5-1.7,0.6l0.3-0.2c0.4,0.2,0.7,0.4,0.9,0.6c0.2,0.2,0.4,0.5,0.7,0.8
				c0.2,0.4,0.5,0.9,0.8,1.5c0.2,0.3,0.3,0.6,0.5,0.8c0.1,0.2,0.3,0.3,0.5,0.4c0.2,0.1,0.4,0.1,0.7,0.2c0,0.2,0,0.4,0,0.7
				c0,0.2-0.1,0.4-0.1,0.6c-0.8,0-1.6,0-2.2,0C101.8,35.4,101.3,35.4,100.9,35.5z"/>
			<path class="st0" d="M107.3,26.1c0-0.5,0-0.9-0.1-1.1c-0.1-0.3-0.2-0.4-0.4-0.5c-0.2-0.1-0.4-0.2-0.8-0.2c0-0.2-0.1-0.4-0.1-0.6
				c0-0.2,0-0.5,0-0.7c0.2,0,0.5,0,0.8,0c0.4,0,0.7,0,1.1,0c0.4,0,0.7,0,1,0c0.3,0,0.6,0,0.9,0c0.4,0,0.7,0,1,0c0.3,0,0.6,0,0.9,0
				c0,0.2,0,0.4,0,0.6c0,0.2-0.1,0.4-0.1,0.6c-0.3,0-0.6,0.1-0.8,0.2c-0.2,0.1-0.3,0.3-0.4,0.5c-0.1,0.3-0.1,0.6-0.1,1.1v6
				c0,0.5,0,0.9,0.1,1.2c0.1,0.3,0.2,0.4,0.4,0.6c0.2,0.1,0.4,0.2,0.7,0.2c0,0.1,0.1,0.3,0.1,0.6c0,0.2,0,0.5,0,0.7
				c-0.3,0-0.7,0-1.2,0c-0.5,0-1,0-1.6,0c-0.6,0-1.1,0-1.7,0c-0.6,0-1,0-1.4,0c0-0.2,0-0.4,0-0.7c0-0.2,0.1-0.4,0.1-0.6
				c0.3,0,0.6-0.1,0.8-0.2c0.2-0.1,0.3-0.3,0.4-0.6c0.1-0.3,0.1-0.7,0.1-1.2V26.1z"/>
			<path class="st0" d="M113.3,35.4c0-0.2,0-0.5,0-0.7c0-0.2,0.1-0.4,0.1-0.6c0.3,0,0.6-0.1,0.8-0.2c0.2-0.1,0.3-0.3,0.4-0.6
				c0.1-0.3,0.1-0.7,0.1-1.2v-6c0-0.5,0-0.9-0.1-1.1c-0.1-0.3-0.2-0.4-0.4-0.5c-0.2-0.1-0.4-0.2-0.8-0.2c0-0.2-0.1-0.4-0.1-0.6
				c0-0.2,0-0.5,0-0.6c0.3,0,0.6,0,1,0c0.4,0,0.8,0,1.2,0c0.4,0,0.9,0,1.2,0c0.3,0,0.6,0,0.9,0c0.3,0,0.7,0,1.1,0c0.7,0,1.3,0,2,0.1
				c0.7,0.1,1.3,0.3,1.8,0.5c0.6,0.2,1,0.6,1.5,1c0.4,0.4,0.8,1,1,1.7c0.2,0.7,0.4,1.5,0.4,2.5c0,1-0.1,1.8-0.4,2.5
				c-0.2,0.7-0.6,1.3-1,1.8c-0.4,0.5-0.8,0.9-1.3,1.1c-0.5,0.3-1,0.5-1.5,0.7c-0.5,0.1-1,0.2-1.4,0.3c-0.4,0-0.8,0.1-1.1,0.1
				c-0.3,0-0.7,0-1.3,0c-0.5,0-1,0-1.6,0c-0.5,0-1.1,0-1.5,0C113.8,35.4,113.5,35.4,113.3,35.4z M119.2,34.1c0.3,0,0.6-0.1,0.9-0.2
				c0.3-0.1,0.7-0.3,1-0.7c0.3-0.3,0.5-0.8,0.7-1.5c0.2-0.6,0.3-1.5,0.3-2.6c0-1-0.1-1.8-0.3-2.4c-0.2-0.6-0.5-1.2-0.8-1.5
				c-0.3-0.4-0.7-0.6-1.1-0.8c-0.4-0.2-0.8-0.2-1.3-0.2c-0.2,0-0.4,0-0.7,0.1c-0.2,0.1-0.4,0.1-0.5,0.2l0.2-0.7v8.3
				c0,0.5,0,0.9,0.1,1.2c0.1,0.3,0.2,0.5,0.4,0.6C118.5,34,118.8,34.1,119.2,34.1z"/>
			<path class="st0" d="M132.4,23l4.1,9.1c0.3,0.6,0.5,1,0.7,1.3c0.2,0.3,0.3,0.5,0.4,0.6c0.1,0.1,0.3,0.2,0.5,0.2
				c0,0.2,0.1,0.3,0.1,0.6c0,0.2,0,0.4,0,0.7c-0.2,0-0.5,0-0.8,0c-0.3,0-0.7,0-1,0c-0.3,0-0.6,0-0.8,0c-0.1,0-0.3,0-0.6,0
				c-0.3,0-0.5,0-0.8,0c-0.3,0-0.6,0-0.8,0c-0.3,0-0.5,0-0.6,0c0-0.3,0-0.5,0-0.7c0-0.2,0.1-0.4,0.1-0.5c0.4-0.1,0.7-0.2,0.8-0.4
				c0.1-0.2,0-0.5-0.2-1l-1.6-3.7c-0.3-0.6-0.5-1.2-0.7-1.8c-0.2-0.5-0.3-1.1-0.4-1.6h0.5c-0.1,0.5-0.3,1.1-0.5,1.6
				c-0.2,0.6-0.4,1.1-0.6,1.7l-1.4,3.6c-0.2,0.4-0.2,0.7-0.1,1c0.1,0.3,0.3,0.5,0.8,0.5c0,0.2,0.1,0.4,0.1,0.6c0,0.2,0,0.4,0,0.7
				c-0.1,0-0.3,0-0.6,0c-0.2,0-0.5,0-0.8,0c-0.3,0-0.5,0-0.7,0c-0.3,0-0.6,0-0.9,0c-0.3,0-0.6,0-0.8,0c0-0.2,0-0.5,0-0.7
				c0-0.2,0.1-0.4,0.1-0.6c0.2,0,0.4-0.1,0.5-0.2c0.1-0.1,0.3-0.3,0.4-0.6c0.1-0.3,0.3-0.6,0.5-1.1l3.8-9.2c0.2,0,0.4-0.1,0.6-0.1
				C131.9,23,132.1,23,132.4,23z M133,31l0.3,1.1c-0.8,0-1.7,0-2.5,0c-0.9,0-1.7,0.1-2.6,0.2l0.3-1.3H133z"/>
			<path class="st0" d="M139.3,35.4c0-0.2,0-0.5,0-0.7c0-0.2,0.1-0.4,0.1-0.6c0.3,0,0.6-0.1,0.8-0.2c0.2-0.1,0.3-0.3,0.4-0.6
				c0.1-0.3,0.1-0.7,0.1-1.2v-6c0-0.5,0-0.9-0.1-1.1c-0.1-0.3-0.2-0.4-0.4-0.5c-0.2-0.1-0.4-0.2-0.8-0.2c0-0.2-0.1-0.4-0.1-0.6
				c0-0.2,0-0.5,0-0.6c0.3,0,0.6,0,1,0s0.8,0,1.2,0c0.4,0,0.9,0,1.2,0c0.3,0,0.6,0,0.9,0c0.3,0,0.7,0,1.1,0c0.7,0,1.3,0,2,0.1
				c0.7,0.1,1.3,0.3,1.8,0.5c0.6,0.2,1,0.6,1.5,1c0.4,0.4,0.8,1,1,1.7c0.2,0.7,0.4,1.5,0.4,2.5c0,1-0.1,1.8-0.4,2.5
				c-0.2,0.7-0.6,1.3-1,1.8c-0.4,0.5-0.8,0.9-1.3,1.1c-0.5,0.3-1,0.5-1.5,0.7c-0.5,0.1-1,0.2-1.4,0.3c-0.4,0-0.8,0.1-1.1,0.1
				c-0.3,0-0.7,0-1.3,0c-0.5,0-1,0-1.6,0c-0.5,0-1.1,0-1.5,0C139.8,35.4,139.5,35.4,139.3,35.4z M145.2,34.1c0.3,0,0.6-0.1,0.9-0.2
				c0.3-0.1,0.7-0.3,1-0.7c0.3-0.3,0.5-0.8,0.7-1.5c0.2-0.6,0.3-1.5,0.3-2.6c0-1-0.1-1.8-0.3-2.4c-0.2-0.6-0.5-1.2-0.8-1.5
				c-0.3-0.4-0.7-0.6-1.1-0.8c-0.4-0.2-0.8-0.2-1.3-0.2c-0.2,0-0.4,0-0.7,0.1s-0.4,0.1-0.5,0.2l0.2-0.7v8.3c0,0.5,0,0.9,0.1,1.2
				c0.1,0.3,0.2,0.5,0.4,0.6C144.5,34,144.8,34.1,145.2,34.1z"/>
		</g>
	</g>
	<g>
		<g>
			<path class="st1" d="M46.3,40.6c-0.2,0-0.3,0-0.4-0.1c-0.1,0-0.3-0.1-0.4-0.2c0-0.1,0-0.2,0-0.3c0-0.1,0-0.2,0-0.3
				c0.1,0,0.1,0,0.2,0c0.1,0,0.1,0,0.2,0c0,0.1,0,0.3,0.1,0.3c0,0.1,0.1,0.1,0.1,0.2c0.1,0,0.1,0.1,0.2,0.1c0.1,0,0.2,0,0.3-0.1
				c0.1-0.1,0.1-0.1,0.1-0.2c0-0.1,0-0.1-0.1-0.2c-0.1-0.1-0.1-0.1-0.2-0.1c-0.1,0-0.2-0.1-0.3-0.1c-0.1,0-0.2-0.1-0.3-0.2
				c-0.1-0.1-0.2-0.1-0.2-0.2c-0.1-0.1-0.1-0.2-0.1-0.4c0-0.2,0-0.3,0.1-0.4c0.1-0.1,0.2-0.2,0.3-0.2c0.1-0.1,0.3-0.1,0.4-0.1
				c0.1,0,0.2,0,0.3,0c0.1,0,0.2,0,0.3,0.1c0.1,0,0.1,0.1,0.2,0.1c0,0.1,0,0.2,0,0.3c0,0.1,0,0.2,0,0.2c0,0-0.1,0-0.2,0.1
				c-0.1,0-0.1,0-0.2,0c0-0.1,0-0.2-0.1-0.3c0-0.1-0.1-0.1-0.1-0.2c-0.1,0-0.1,0-0.2,0c-0.1,0-0.2,0-0.2,0.1c-0.1,0-0.1,0.1-0.1,0.2
				s0,0.2,0.1,0.2s0.1,0.1,0.2,0.2s0.2,0.1,0.3,0.1c0.1,0,0.2,0.1,0.3,0.2c0.1,0.1,0.2,0.1,0.2,0.2c0.1,0.1,0.1,0.2,0.1,0.4
				c0,0.1,0,0.3-0.1,0.4c-0.1,0.1-0.2,0.2-0.3,0.3C46.7,40.6,46.5,40.6,46.3,40.6z"/>
			<path class="st1" d="M47.9,38.1c0.1,0,0.1,0,0.2,0c0.1,0,0.2,0,0.2,0c0.1,0,0.2,0,0.2,0s0.2,0,0.2,0v1.8c0,0.1,0,0.2,0,0.2
				c0,0.1,0,0.1,0.1,0.1c0,0,0.1,0,0.2,0l-0.1,0.2c-0.1,0-0.1,0-0.3,0c-0.1,0-0.2,0-0.3,0c-0.1,0-0.2,0-0.3,0c-0.1,0-0.2,0-0.2,0
				c0,0,0-0.1,0-0.1c0,0,0-0.1,0-0.1c0.1,0,0.1,0,0.2,0c0,0,0.1-0.1,0.1-0.1c0-0.1,0-0.1,0-0.2v-1.2c0-0.1,0-0.2,0-0.2
				c0-0.1,0-0.1-0.1-0.1c0,0-0.1,0-0.2,0c0,0,0-0.1,0-0.1C47.9,38.2,47.9,38.1,47.9,38.1z M49.4,38.9c0,0.1,0,0.1,0,0.2
				c0,0.1,0,0.1,0,0.2c0,0.1,0,0.2,0,0.2c0,0.1,0,0.1,0,0.2c-0.1,0-0.1,0-0.2,0s-0.1,0-0.1,0c0-0.1,0-0.2-0.1-0.2
				c0,0-0.1-0.1-0.2-0.1h-0.2v-0.2h0.2c0.1,0,0.2,0,0.3-0.1c0,0,0.1-0.1,0.1-0.2c0,0,0.1,0,0.1,0C49.3,38.9,49.4,38.9,49.4,38.9z
				 M49.7,38.1c0,0.1,0,0.1,0,0.2c0,0.1,0,0.2,0,0.2c0,0.1,0,0.1,0,0.2c0,0-0.1,0-0.1,0c0,0-0.1,0-0.2,0c0-0.1,0-0.2-0.1-0.2
				c0-0.1-0.1-0.1-0.2-0.2c-0.1,0-0.2-0.1-0.3-0.1h-0.4l0.1-0.2c0.2,0,0.3,0,0.5,0c0.1,0,0.2,0,0.3,0C49.6,38.1,49.7,38.1,49.7,38.1
				z M49.6,39.8c0.1,0,0.1,0,0.2,0c0.1,0,0.1,0,0.1,0.1c0,0.1,0,0.2-0.1,0.3c0,0.1,0,0.2,0,0.3c-0.1,0-0.1,0-0.3,0
				c-0.1,0-0.2,0-0.3,0c-0.1,0-0.2,0-0.3,0l0.1-0.2h0.1c0.1,0,0.2,0,0.3-0.1c0.1,0,0.1-0.1,0.2-0.2C49.6,40.1,49.6,40,49.6,39.8z"/>
			<path class="st1" d="M51.8,40.6c-0.2,0-0.5-0.1-0.6-0.2c-0.2-0.1-0.3-0.3-0.4-0.4c-0.1-0.2-0.2-0.4-0.2-0.7c0-0.2,0-0.4,0.1-0.5
				c0.1-0.2,0.2-0.3,0.3-0.4c0.1-0.1,0.2-0.2,0.4-0.2c0.1-0.1,0.3-0.1,0.5-0.1c0.1,0,0.3,0,0.4,0c0.1,0,0.3,0.1,0.4,0.1
				c0,0.1,0,0.2,0,0.3c0,0.1,0,0.2,0,0.3c0,0-0.1,0-0.1,0c-0.1,0-0.1,0-0.2,0c0-0.1,0-0.2-0.1-0.3c0-0.1-0.1-0.1-0.1-0.2
				c-0.1,0-0.1-0.1-0.2-0.1c-0.1,0-0.2,0-0.3,0.1s-0.1,0.1-0.2,0.2c0,0.1-0.1,0.2-0.1,0.3c0,0.1,0,0.2,0,0.3c0,0.2,0,0.4,0.1,0.5
				c0.1,0.2,0.1,0.3,0.3,0.4c0.1,0.1,0.3,0.1,0.4,0.1c0.1,0,0.2,0,0.3,0c0.1,0,0.2-0.1,0.3-0.1c0,0,0,0,0.1,0.1c0,0,0,0.1,0,0.1
				c-0.1,0.1-0.2,0.2-0.4,0.2C52.1,40.6,52,40.6,51.8,40.6z"/>
			<path class="st1" d="M54.8,40.6c0-0.1-0.1-0.1-0.1-0.2c0-0.1-0.1-0.1-0.1-0.2c0-0.1,0-0.1-0.1-0.2c0-0.1-0.1-0.2-0.1-0.2
				c0-0.1-0.1-0.1-0.1-0.2c0,0-0.1-0.1-0.1-0.1l0.2,0c-0.1,0-0.1,0-0.2,0s-0.1,0-0.2,0l0-0.3c0,0,0.1,0,0.1,0c0,0,0,0,0.1,0
				c0.1,0,0.2,0,0.2-0.1c0.1,0,0.1-0.1,0.2-0.2c0-0.1,0.1-0.2,0.1-0.3c0-0.2,0-0.3-0.1-0.4c-0.1-0.1-0.2-0.1-0.3-0.1
				c0,0-0.1,0-0.1,0c0,0-0.1,0-0.1,0l0-0.1v1.7c0,0.1,0,0.2,0,0.3c0,0.1,0,0.1,0.1,0.1c0,0,0.1,0,0.1,0c0,0,0,0.1,0,0.1
				c0,0,0,0.1,0,0.1c0,0-0.1,0-0.2,0c-0.1,0-0.1,0-0.2,0c-0.1,0-0.1,0-0.2,0c-0.1,0-0.2,0-0.3,0c-0.1,0-0.2,0-0.3,0
				c0-0.1,0-0.1,0-0.1c0,0,0-0.1,0-0.1c0.1,0,0.1,0,0.2,0c0,0,0.1-0.1,0.1-0.1c0-0.1,0-0.1,0-0.2v-1.2c0-0.1,0-0.2,0-0.2
				c0-0.1,0-0.1-0.1-0.1c0,0-0.1,0-0.2,0c0,0,0-0.1,0-0.1c0-0.1,0-0.1,0-0.1c0.1,0,0.1,0,0.2,0c0.1,0,0.2,0,0.3,0c0.1,0,0.2,0,0.3,0
				c0.1,0,0.3,0,0.4,0c0.2,0,0.4,0,0.5,0.1c0.1,0.1,0.2,0.1,0.3,0.2c0.1,0.1,0.1,0.2,0.1,0.3c0,0.1,0,0.3-0.1,0.4
				c-0.1,0.1-0.1,0.2-0.2,0.3c-0.1,0.1-0.2,0.1-0.3,0.1l0.1,0c0.1,0,0.1,0.1,0.2,0.1c0,0,0.1,0.1,0.1,0.2c0,0.1,0.1,0.2,0.2,0.3
				c0,0.1,0.1,0.1,0.1,0.2c0,0,0.1,0.1,0.1,0.1c0,0,0.1,0,0.1,0c0,0,0,0.1,0,0.1c0,0,0,0.1,0,0.1c-0.2,0-0.3,0-0.4,0
				C55,40.6,54.9,40.6,54.8,40.6z"/>
			<path class="st1" d="M56.2,38.1c0.1,0,0.1,0,0.2,0c0.1,0,0.2,0,0.2,0c0.1,0,0.2,0,0.2,0s0.2,0,0.2,0v1.8c0,0.1,0,0.2,0,0.2
				c0,0.1,0,0.1,0.1,0.1c0,0,0.1,0,0.2,0l-0.1,0.2c-0.1,0-0.1,0-0.3,0c-0.1,0-0.2,0-0.3,0s-0.2,0-0.3,0c-0.1,0-0.2,0-0.2,0
				c0,0,0-0.1,0-0.1c0,0,0-0.1,0-0.1c0.1,0,0.1,0,0.2,0c0,0,0.1-0.1,0.1-0.1c0-0.1,0-0.1,0-0.2v-1.2c0-0.1,0-0.2,0-0.2
				c0-0.1,0-0.1-0.1-0.1c0,0-0.1,0-0.2,0c0,0,0-0.1,0-0.1C56.2,38.2,56.2,38.1,56.2,38.1z M57.7,38.9c0,0.1,0,0.1,0,0.2
				c0,0.1,0,0.1,0,0.2c0,0.1,0,0.2,0,0.2c0,0.1,0,0.1,0,0.2c-0.1,0-0.1,0-0.2,0s-0.1,0-0.1,0c0-0.1,0-0.2-0.1-0.2
				c0,0-0.1-0.1-0.2-0.1h-0.2v-0.2h0.2c0.1,0,0.2,0,0.3-0.1c0,0,0.1-0.1,0.1-0.2c0,0,0.1,0,0.1,0C57.6,38.9,57.7,38.9,57.7,38.9z
				 M58.1,38.1c0,0.1,0,0.1,0,0.2c0,0.1,0,0.2,0,0.2c0,0.1,0,0.1,0,0.2c0,0-0.1,0-0.1,0c0,0-0.1,0-0.2,0c0-0.1,0-0.2-0.1-0.2
				c0-0.1-0.1-0.1-0.2-0.2c-0.1,0-0.2-0.1-0.3-0.1h-0.4l0.1-0.2c0.2,0,0.3,0,0.5,0c0.1,0,0.2,0,0.3,0C57.9,38.1,58,38.1,58.1,38.1z
				 M58,39.8c0.1,0,0.1,0,0.2,0c0.1,0,0.1,0,0.1,0.1c0,0.1,0,0.2-0.1,0.3c0,0.1,0,0.2,0,0.3c-0.1,0-0.1,0-0.3,0c-0.1,0-0.2,0-0.3,0
				c-0.1,0-0.2,0-0.3,0l0.1-0.2h0.1c0.1,0,0.2,0,0.3-0.1c0.1,0,0.1-0.1,0.2-0.2C57.9,40.1,57.9,40,58,39.8z"/>
			<path class="st1" d="M59.5,38.4c-0.1,0-0.2,0-0.2,0.1s-0.1,0.1-0.1,0.2c0,0.1-0.1,0.2-0.1,0.3c-0.1,0-0.1,0-0.2,0
				c-0.1,0-0.1,0-0.2,0c0-0.1,0-0.2,0.1-0.3c0-0.1,0-0.2,0-0.3c0.1,0,0.2,0,0.3,0c0.1,0,0.2,0,0.3,0c0.1,0,0.3,0,0.5,0
				c0.2,0,0.3,0,0.4,0c0.1,0,0.2,0,0.3,0s0.2,0,0.3,0c0,0.1,0,0.2,0,0.3c0,0.1,0,0.2,0.1,0.3c0,0-0.1,0-0.1,0c-0.1,0-0.1,0-0.2,0
				c0-0.2-0.1-0.3-0.1-0.4c-0.1-0.1-0.2-0.1-0.3-0.1H59.5z M59.5,38.2h0.6V40c0,0.1,0,0.2,0,0.2c0,0.1,0,0.1,0.1,0.1
				c0,0,0.1,0,0.2,0c0,0,0,0.1,0,0.1c0,0,0,0.1,0,0.1c-0.1,0-0.2,0-0.3,0c-0.1,0-0.2,0-0.4,0c-0.1,0-0.2,0-0.3,0c-0.1,0-0.2,0-0.3,0
				s-0.1,0-0.2,0c0,0,0-0.1,0-0.1c0,0,0-0.1,0-0.1c0.1,0,0.2,0,0.2,0c0.1,0,0.1-0.1,0.1-0.1c0-0.1,0-0.1,0-0.2V38.2z"/>
			<path class="st1" d="M62.6,38.1l0.8,1.8c0.1,0.1,0.1,0.2,0.1,0.3c0,0.1,0.1,0.1,0.1,0.1c0,0,0.1,0,0.1,0c0,0,0,0.1,0,0.1
				c0,0,0,0.1,0,0.1c0,0-0.1,0-0.2,0c-0.1,0-0.1,0-0.2,0c-0.1,0-0.1,0-0.2,0c0,0-0.1,0-0.1,0c-0.1,0-0.1,0-0.2,0c-0.1,0-0.1,0-0.2,0
				c-0.1,0-0.1,0-0.1,0c0-0.1,0-0.1,0-0.1c0,0,0-0.1,0-0.1c0.1,0,0.1,0,0.2-0.1c0,0,0-0.1,0-0.2l-0.3-0.7c-0.1-0.1-0.1-0.2-0.1-0.4
				c0-0.1-0.1-0.2-0.1-0.3h0.1c0,0.1-0.1,0.2-0.1,0.3c0,0.1-0.1,0.2-0.1,0.3L61.8,40c0,0.1,0,0.1,0,0.2c0,0.1,0.1,0.1,0.2,0.1
				c0,0,0,0.1,0,0.1c0,0,0,0.1,0,0.1c0,0-0.1,0-0.1,0c0,0-0.1,0-0.2,0c-0.1,0-0.1,0-0.1,0c-0.1,0-0.1,0-0.2,0c-0.1,0-0.1,0-0.2,0
				c0,0,0-0.1,0-0.1c0,0,0-0.1,0-0.1c0,0,0.1,0,0.1,0c0,0,0.1-0.1,0.1-0.1c0-0.1,0.1-0.1,0.1-0.2l0.8-1.8c0,0,0.1,0,0.1,0
				C62.5,38.1,62.5,38.1,62.6,38.1z M62.7,39.7l0.1,0.2c-0.2,0-0.3,0-0.5,0c-0.2,0-0.3,0-0.5,0l0.1-0.3H62.7z"/>
			<path class="st1" d="M65.9,40.6c0-0.1-0.1-0.1-0.1-0.2c0-0.1-0.1-0.1-0.1-0.2c0-0.1,0-0.1-0.1-0.2c0-0.1-0.1-0.2-0.1-0.2
				c0-0.1-0.1-0.1-0.1-0.2c0,0-0.1-0.1-0.1-0.1l0.2,0c-0.1,0-0.1,0-0.2,0c0,0-0.1,0-0.2,0l0-0.3c0,0,0.1,0,0.1,0c0,0,0,0,0.1,0
				c0.1,0,0.2,0,0.2-0.1c0.1,0,0.1-0.1,0.2-0.2c0-0.1,0.1-0.2,0.1-0.3c0-0.2,0-0.3-0.1-0.4c-0.1-0.1-0.2-0.1-0.3-0.1
				c0,0-0.1,0-0.1,0c0,0-0.1,0-0.1,0l0-0.1v1.7c0,0.1,0,0.2,0,0.3c0,0.1,0,0.1,0.1,0.1c0,0,0.1,0,0.1,0c0,0,0,0.1,0,0.1
				c0,0,0,0.1,0,0.1c0,0-0.1,0-0.2,0c-0.1,0-0.1,0-0.2,0c-0.1,0-0.1,0-0.2,0c-0.1,0-0.2,0-0.3,0c-0.1,0-0.2,0-0.3,0
				c0-0.1,0-0.1,0-0.1c0,0,0-0.1,0-0.1c0.1,0,0.1,0,0.2,0c0,0,0.1-0.1,0.1-0.1c0-0.1,0-0.1,0-0.2v-1.2c0-0.1,0-0.2,0-0.2
				c0-0.1,0-0.1-0.1-0.1c0,0-0.1,0-0.2,0c0,0,0-0.1,0-0.1c0-0.1,0-0.1,0-0.1c0.1,0,0.1,0,0.2,0c0.1,0,0.2,0,0.3,0c0.1,0,0.2,0,0.3,0
				c0.1,0,0.3,0,0.4,0c0.2,0,0.4,0,0.5,0.1c0.1,0.1,0.2,0.1,0.3,0.2c0.1,0.1,0.1,0.2,0.1,0.3c0,0.1,0,0.3-0.1,0.4
				c-0.1,0.1-0.1,0.2-0.2,0.3c-0.1,0.1-0.2,0.1-0.3,0.1l0.1,0c0.1,0,0.1,0.1,0.2,0.1c0,0,0.1,0.1,0.1,0.2c0,0.1,0.1,0.2,0.2,0.3
				c0,0.1,0.1,0.1,0.1,0.2c0,0,0.1,0.1,0.1,0.1c0,0,0.1,0,0.1,0c0,0,0,0.1,0,0.1c0,0,0,0.1,0,0.1c-0.2,0-0.3,0-0.4,0
				C66.1,40.6,66,40.6,65.9,40.6z"/>
			<path class="st1" d="M67.5,38.7c0-0.1,0-0.2,0-0.2c0-0.1,0-0.1-0.1-0.1c0,0-0.1,0-0.2,0c0,0,0-0.1,0-0.1c0,0,0-0.1,0-0.1
				c0,0,0.1,0,0.2,0c0.1,0,0.1,0,0.2,0c0.1,0,0.1,0,0.2,0s0.1,0,0.2,0c0.1,0,0.1,0,0.2,0c0.1,0,0.1,0,0.2,0c0,0,0,0.1,0,0.1
				c0,0,0,0.1,0,0.1c-0.1,0-0.1,0-0.2,0c0,0-0.1,0.1-0.1,0.1c0,0.1,0,0.1,0,0.2V40c0,0.1,0,0.2,0,0.2c0,0.1,0,0.1,0.1,0.1
				c0,0,0.1,0,0.1,0c0,0,0,0.1,0,0.1c0,0,0,0.1,0,0.1c-0.1,0-0.1,0-0.2,0c-0.1,0-0.2,0-0.3,0c-0.1,0-0.2,0-0.3,0c-0.1,0-0.2,0-0.3,0
				c0,0,0-0.1,0-0.1c0,0,0-0.1,0-0.1c0.1,0,0.1,0,0.2,0c0,0,0.1-0.1,0.1-0.1c0-0.1,0-0.1,0-0.2V38.7z M67.9,37.9c-0.1,0-0.1,0-0.2,0
				c0,0-0.1,0-0.1,0c0-0.1,0.1-0.1,0.1-0.2c0-0.1,0.1-0.2,0.1-0.2c0,0,0.1,0,0.1,0c0.1,0,0.1,0,0.1,0c0.1,0,0.2,0,0.2,0
				c-0.1,0.1-0.2,0.2-0.2,0.3C68,37.7,68,37.8,67.9,37.9z"/>
			<path class="st1" d="M70.3,38.1l0.8,1.8c0.1,0.1,0.1,0.2,0.1,0.3c0,0.1,0.1,0.1,0.1,0.1c0,0,0.1,0,0.1,0c0,0,0,0.1,0,0.1
				c0,0,0,0.1,0,0.1c0,0-0.1,0-0.2,0c-0.1,0-0.1,0-0.2,0c-0.1,0-0.1,0-0.2,0c0,0-0.1,0-0.1,0c-0.1,0-0.1,0-0.2,0c-0.1,0-0.1,0-0.2,0
				c-0.1,0-0.1,0-0.1,0c0-0.1,0-0.1,0-0.1c0,0,0-0.1,0-0.1c0.1,0,0.1,0,0.2-0.1c0,0,0-0.1,0-0.2l-0.3-0.7c-0.1-0.1-0.1-0.2-0.1-0.4
				c0-0.1-0.1-0.2-0.1-0.3H70c0,0.1-0.1,0.2-0.1,0.3c0,0.1-0.1,0.2-0.1,0.3L69.5,40c0,0.1,0,0.1,0,0.2s0.1,0.1,0.2,0.1
				c0,0,0,0.1,0,0.1c0,0,0,0.1,0,0.1c0,0-0.1,0-0.1,0c0,0-0.1,0-0.2,0c-0.1,0-0.1,0-0.1,0c-0.1,0-0.1,0-0.2,0c-0.1,0-0.1,0-0.2,0
				c0,0,0-0.1,0-0.1c0,0,0-0.1,0-0.1c0,0,0.1,0,0.1,0c0,0,0.1-0.1,0.1-0.1c0-0.1,0.1-0.1,0.1-0.2l0.8-1.8c0,0,0.1,0,0.1,0
				C70.2,38.1,70.2,38.1,70.3,38.1z M70.4,39.7l0.1,0.2c-0.2,0-0.3,0-0.5,0c-0.2,0-0.3,0-0.5,0l0.1-0.3H70.4z"/>
			<path class="st1" d="M73.1,40.6c0,0,0-0.1,0-0.1c0,0,0-0.1,0-0.1c0.1,0,0.1,0,0.2,0c0,0,0.1-0.1,0.1-0.1c0-0.1,0-0.1,0-0.2v-1.2
				c0-0.1,0-0.2,0-0.2c0-0.1,0-0.1-0.1-0.1c0,0-0.1,0-0.2,0c0,0,0-0.1,0-0.1c0,0,0-0.1,0-0.1c0.1,0,0.1,0,0.2,0c0.1,0,0.2,0,0.2,0
				c0.1,0,0.2,0,0.2,0c0.1,0,0.1,0,0.2,0c0.1,0,0.1,0,0.2,0c0.1,0,0.3,0,0.4,0c0.1,0,0.3,0.1,0.4,0.1c0.1,0,0.2,0.1,0.3,0.2
				s0.2,0.2,0.2,0.3c0,0.1,0.1,0.3,0.1,0.5c0,0.2,0,0.4-0.1,0.5c0,0.1-0.1,0.3-0.2,0.4c-0.1,0.1-0.2,0.2-0.3,0.2
				c-0.1,0.1-0.2,0.1-0.3,0.1c-0.1,0-0.2,0-0.3,0.1s-0.2,0-0.2,0c-0.1,0-0.1,0-0.3,0c-0.1,0-0.2,0-0.3,0s-0.2,0-0.3,0
				C73.2,40.6,73.1,40.6,73.1,40.6z M74.3,40.3c0.1,0,0.1,0,0.2,0c0.1,0,0.1-0.1,0.2-0.1c0.1-0.1,0.1-0.2,0.1-0.3
				c0-0.1,0.1-0.3,0.1-0.5c0-0.2,0-0.4-0.1-0.5c0-0.1-0.1-0.2-0.2-0.3c-0.1-0.1-0.1-0.1-0.2-0.2c-0.1,0-0.2,0-0.3,0c0,0-0.1,0-0.1,0
				c0,0-0.1,0-0.1,0l0-0.1v1.7c0,0.1,0,0.2,0,0.2c0,0.1,0,0.1,0.1,0.1C74.2,40.3,74.2,40.3,74.3,40.3z"/>
			<path class="st1" d="M76.1,38.1c0.1,0,0.1,0,0.2,0c0.1,0,0.2,0,0.2,0c0.1,0,0.2,0,0.2,0c0.1,0,0.2,0,0.2,0v1.8c0,0.1,0,0.2,0,0.2
				c0,0.1,0,0.1,0.1,0.1c0,0,0.1,0,0.2,0l-0.1,0.2c-0.1,0-0.1,0-0.3,0c-0.1,0-0.2,0-0.3,0s-0.2,0-0.3,0c-0.1,0-0.2,0-0.2,0
				c0,0,0-0.1,0-0.1c0,0,0-0.1,0-0.1c0.1,0,0.1,0,0.2,0c0,0,0.1-0.1,0.1-0.1c0-0.1,0-0.1,0-0.2v-1.2c0-0.1,0-0.2,0-0.2
				c0-0.1,0-0.1-0.1-0.1c0,0-0.1,0-0.2,0c0,0,0-0.1,0-0.1C76.1,38.2,76.1,38.1,76.1,38.1z M77.7,38.9c0,0.1,0,0.1,0,0.2
				c0,0.1,0,0.1,0,0.2c0,0.1,0,0.2,0,0.2c0,0.1,0,0.1,0,0.2c-0.1,0-0.1,0-0.2,0c0,0-0.1,0-0.1,0c0-0.1,0-0.2-0.1-0.2
				c0,0-0.1-0.1-0.2-0.1h-0.2v-0.2h0.2c0.1,0,0.2,0,0.3-0.1c0,0,0.1-0.1,0.1-0.2c0,0,0.1,0,0.1,0C77.6,38.9,77.7,38.9,77.7,38.9z
				 M78,38.1c0,0.1,0,0.1,0,0.2c0,0.1,0,0.2,0,0.2c0,0.1,0,0.1,0,0.2c0,0-0.1,0-0.1,0c0,0-0.1,0-0.2,0c0-0.1,0-0.2-0.1-0.2
				c0-0.1-0.1-0.1-0.2-0.2c-0.1,0-0.2-0.1-0.3-0.1h-0.4l0.1-0.2c0.2,0,0.3,0,0.5,0c0.1,0,0.2,0,0.3,0C77.9,38.1,78,38.1,78,38.1z
				 M77.9,39.8c0.1,0,0.1,0,0.2,0c0.1,0,0.1,0,0.1,0.1c0,0.1,0,0.2-0.1,0.3c0,0.1,0,0.2,0,0.3c-0.1,0-0.1,0-0.3,0
				c-0.1,0-0.2,0-0.3,0c-0.1,0-0.2,0-0.3,0l0.1-0.2h0.1c0.1,0,0.2,0,0.3-0.1c0.1,0,0.1-0.1,0.2-0.2C77.8,40.1,77.9,40,77.9,39.8z"/>
			<path class="st1" d="M80.8,40.6c-0.2,0-0.3,0-0.4-0.1c-0.1,0-0.3-0.1-0.4-0.2c0-0.1,0-0.2,0-0.3c0-0.1,0-0.2,0-0.3
				c0.1,0,0.1,0,0.2,0c0.1,0,0.1,0,0.2,0c0,0.1,0,0.3,0.1,0.3c0,0.1,0.1,0.1,0.1,0.2c0.1,0,0.1,0.1,0.2,0.1c0.1,0,0.2,0,0.3-0.1
				c0.1-0.1,0.1-0.1,0.1-0.2c0-0.1,0-0.1-0.1-0.2c-0.1-0.1-0.1-0.1-0.2-0.1c-0.1,0-0.2-0.1-0.3-0.1c-0.1,0-0.2-0.1-0.3-0.2
				c-0.1-0.1-0.2-0.1-0.2-0.2C80,39.1,80,39,80,38.8c0-0.2,0-0.3,0.1-0.4c0.1-0.1,0.2-0.2,0.3-0.2c0.1-0.1,0.3-0.1,0.4-0.1
				c0.1,0,0.2,0,0.3,0c0.1,0,0.2,0,0.3,0.1c0.1,0,0.1,0.1,0.2,0.1c0,0.1,0,0.2,0,0.3c0,0.1,0,0.2,0,0.2c0,0-0.1,0-0.2,0.1
				s-0.1,0-0.2,0c0-0.1,0-0.2-0.1-0.3c0-0.1-0.1-0.1-0.1-0.2c-0.1,0-0.1,0-0.2,0c-0.1,0-0.2,0-0.2,0.1c-0.1,0-0.1,0.1-0.1,0.2
				s0,0.2,0.1,0.2s0.1,0.1,0.2,0.2c0.1,0,0.2,0.1,0.3,0.1c0.1,0,0.2,0.1,0.3,0.2c0.1,0.1,0.2,0.1,0.2,0.2c0.1,0.1,0.1,0.2,0.1,0.4
				c0,0.1,0,0.3-0.1,0.4s-0.2,0.2-0.3,0.3C81.1,40.6,81,40.6,80.8,40.6z"/>
			<path class="st1" d="M82.3,38.1c0.1,0,0.1,0,0.2,0c0.1,0,0.2,0,0.2,0c0.1,0,0.2,0,0.2,0c0.1,0,0.2,0,0.2,0v1.8c0,0.1,0,0.2,0,0.2
				c0,0.1,0,0.1,0.1,0.1c0,0,0.1,0,0.2,0l-0.1,0.2c-0.1,0-0.1,0-0.3,0c-0.1,0-0.2,0-0.3,0s-0.2,0-0.3,0c-0.1,0-0.2,0-0.2,0
				c0,0,0-0.1,0-0.1c0,0,0-0.1,0-0.1c0.1,0,0.1,0,0.2,0c0,0,0.1-0.1,0.1-0.1c0-0.1,0-0.1,0-0.2v-1.2c0-0.1,0-0.2,0-0.2
				c0-0.1,0-0.1-0.1-0.1c0,0-0.1,0-0.2,0c0,0,0-0.1,0-0.1C82.3,38.2,82.3,38.1,82.3,38.1z M83.9,38.9c0,0.1,0,0.1,0,0.2
				c0,0.1,0,0.1,0,0.2c0,0.1,0,0.2,0,0.2c0,0.1,0,0.1,0,0.2c-0.1,0-0.1,0-0.2,0c0,0-0.1,0-0.1,0c0-0.1,0-0.2-0.1-0.2
				c0,0-0.1-0.1-0.2-0.1H83v-0.2h0.2c0.1,0,0.2,0,0.3-0.1c0,0,0.1-0.1,0.1-0.2c0,0,0.1,0,0.1,0C83.8,38.9,83.8,38.9,83.9,38.9z
				 M84.2,38.1c0,0.1,0,0.1,0,0.2c0,0.1,0,0.2,0,0.2c0,0.1,0,0.1,0,0.2c0,0-0.1,0-0.1,0c0,0-0.1,0-0.2,0c0-0.1,0-0.2-0.1-0.2
				c0-0.1-0.1-0.1-0.2-0.2c-0.1,0-0.2-0.1-0.3-0.1h-0.4l0.1-0.2c0.2,0,0.3,0,0.5,0c0.1,0,0.2,0,0.3,0C84.1,38.1,84.1,38.1,84.2,38.1
				z M84.1,39.8c0.1,0,0.1,0,0.2,0c0.1,0,0.1,0,0.1,0.1c0,0.1,0,0.2-0.1,0.3c0,0.1,0,0.2,0,0.3c-0.1,0-0.1,0-0.3,0
				c-0.1,0-0.2,0-0.3,0c-0.1,0-0.2,0-0.3,0l0.1-0.2h0.1c0.1,0,0.2,0,0.3-0.1c0.1,0,0.1-0.1,0.2-0.2C84,40.1,84.1,40,84.1,39.8z"/>
			<path class="st1" d="M86.2,40.6c-0.3,0-0.5-0.1-0.7-0.2c-0.2-0.1-0.3-0.2-0.4-0.4C85,39.8,85,39.6,85,39.3c0-0.2,0-0.4,0.1-0.5
				c0.1-0.2,0.2-0.3,0.3-0.4c0.1-0.1,0.3-0.2,0.4-0.2c0.2-0.1,0.3-0.1,0.5-0.1c0.2,0,0.3,0,0.5,0.1c0.2,0,0.3,0.1,0.4,0.1
				c0,0.1,0,0.2,0,0.3c0,0.1,0,0.2,0,0.3c0,0-0.1,0-0.2,0c-0.1,0-0.1,0-0.2,0c0-0.1,0-0.2-0.1-0.3c0-0.1-0.1-0.1-0.2-0.2
				c-0.1,0-0.2,0-0.3,0c-0.2,0-0.3,0-0.4,0.1c-0.1,0.1-0.2,0.2-0.2,0.3c0,0.1-0.1,0.3-0.1,0.4c0,0.2,0,0.4,0.1,0.6
				c0.1,0.2,0.1,0.3,0.2,0.4c0.1,0.1,0.2,0.1,0.4,0.1c0,0,0.1,0,0.1,0c0,0,0.1,0,0.1,0c0,0,0.1,0,0.1-0.1c0,0,0-0.1,0-0.2v-0.1
				c0-0.1,0-0.1,0-0.2c0,0,0-0.1-0.1-0.1c0,0-0.1,0-0.2,0c0,0,0-0.1,0-0.1c0,0,0-0.1,0-0.1c0.1,0,0.1,0,0.2,0c0.1,0,0.2,0,0.3,0
				c0.1,0,0.2,0,0.3,0c0.1,0,0.2,0,0.2,0c0,0,0,0.1,0,0.1c0,0,0,0.1,0,0.1c0,0-0.1,0-0.1,0c0,0,0,0,0,0.1c0,0,0,0.1,0,0.2V40
				c0,0.1,0,0.2,0,0.2c0,0,0,0.1,0,0.2c-0.1,0.1-0.2,0.1-0.4,0.2S86.4,40.6,86.2,40.6z"/>
			<path class="st1" d="M89.9,39.6c0,0.2,0,0.4,0,0.5c0,0.1-0.1,0.2-0.2,0.3c-0.1,0.1-0.2,0.1-0.3,0.1c-0.1,0-0.2,0-0.4,0
				c-0.2,0-0.4,0-0.6-0.1c-0.1-0.1-0.2-0.2-0.3-0.3c-0.1-0.1-0.1-0.3-0.1-0.5v-1c0-0.1,0-0.2,0-0.2c0-0.1,0-0.1-0.1-0.1
				c0,0-0.1,0-0.1,0c0,0,0-0.1,0-0.1c0,0,0-0.1,0-0.1c0,0,0.1,0,0.2,0c0.1,0,0.2,0,0.3,0c0,0,0.1,0,0.2,0s0.1,0,0.2,0
				c0.1,0,0.1,0,0.2,0c0.1,0,0.1,0,0.1,0c0,0,0,0.1,0,0.1c0,0,0,0.1,0,0.1c-0.1,0-0.1,0-0.1,0c0,0-0.1,0.1-0.1,0.1
				c0,0.1,0,0.1,0,0.2v0.9c0,0.1,0,0.3,0,0.4c0,0.1,0.1,0.2,0.1,0.2c0.1,0.1,0.2,0.1,0.3,0.1c0.1,0,0.1,0,0.2,0
				c0.1,0,0.1-0.1,0.2-0.1c0,0,0-0.1,0.1-0.1c0-0.1,0-0.1,0-0.2c0-0.1,0-0.2,0-0.3v-0.7c0-0.1,0-0.2,0-0.3c0-0.1,0-0.1-0.1-0.1
				c0,0-0.1,0-0.1-0.1c0,0,0-0.1,0-0.1c0,0,0-0.1,0-0.1c0,0,0.1,0,0.1,0c0,0,0.1,0,0.1,0c0,0,0.1,0,0.1,0c0.1,0,0.1,0,0.2,0
				c0.1,0,0.1,0,0.2,0c0,0,0,0.1,0,0.1c0,0,0,0.1,0,0.1c-0.1,0-0.1,0-0.1,0.1c0,0-0.1,0.1-0.1,0.1c0,0.1,0,0.2,0,0.3V39.6z"/>
			<path class="st1" d="M92.4,40.6c0-0.1-0.1-0.1-0.1-0.2c0-0.1-0.1-0.1-0.1-0.2c0-0.1,0-0.1-0.1-0.2c0-0.1-0.1-0.2-0.1-0.2
				c0-0.1-0.1-0.1-0.1-0.2c0,0-0.1-0.1-0.1-0.1l0.2,0c-0.1,0-0.1,0-0.2,0c0,0-0.1,0-0.2,0l0-0.3c0,0,0.1,0,0.1,0c0,0,0,0,0.1,0
				c0.1,0,0.2,0,0.2-0.1c0.1,0,0.1-0.1,0.2-0.2c0-0.1,0.1-0.2,0.1-0.3c0-0.2,0-0.3-0.1-0.4c-0.1-0.1-0.2-0.1-0.3-0.1
				c0,0-0.1,0-0.1,0c0,0-0.1,0-0.1,0l0-0.1v1.7c0,0.1,0,0.2,0,0.3c0,0.1,0,0.1,0.1,0.1c0,0,0.1,0,0.1,0c0,0,0,0.1,0,0.1
				c0,0,0,0.1,0,0.1c0,0-0.1,0-0.2,0c-0.1,0-0.1,0-0.2,0c-0.1,0-0.1,0-0.2,0c-0.1,0-0.2,0-0.3,0c-0.1,0-0.2,0-0.3,0
				c0-0.1,0-0.1,0-0.1c0,0,0-0.1,0-0.1c0.1,0,0.1,0,0.2,0c0,0,0.1-0.1,0.1-0.1c0-0.1,0-0.1,0-0.2v-1.2c0-0.1,0-0.2,0-0.2
				c0-0.1,0-0.1-0.1-0.1c0,0-0.1,0-0.2,0c0,0,0-0.1,0-0.1c0-0.1,0-0.1,0-0.1c0.1,0,0.1,0,0.2,0c0.1,0,0.2,0,0.3,0c0.1,0,0.2,0,0.3,0
				c0.1,0,0.3,0,0.4,0c0.2,0,0.4,0,0.5,0.1c0.1,0.1,0.2,0.1,0.3,0.2c0.1,0.1,0.1,0.2,0.1,0.3c0,0.1,0,0.3-0.1,0.4
				c-0.1,0.1-0.1,0.2-0.2,0.3c-0.1,0.1-0.2,0.1-0.3,0.1l0.1,0c0.1,0,0.1,0.1,0.2,0.1c0,0,0.1,0.1,0.1,0.2c0,0.1,0.1,0.2,0.2,0.3
				c0,0.1,0.1,0.1,0.1,0.2c0,0,0.1,0.1,0.1,0.1c0,0,0.1,0,0.1,0c0,0,0,0.1,0,0.1c0,0,0,0.1,0,0.1c-0.2,0-0.3,0-0.4,0
				C92.6,40.6,92.5,40.6,92.4,40.6z"/>
			<path class="st1" d="M94,38.7c0-0.1,0-0.2,0-0.2c0-0.1,0-0.1-0.1-0.1c0,0-0.1,0-0.2,0c0,0,0-0.1,0-0.1c0,0,0-0.1,0-0.1
				c0,0,0.1,0,0.2,0c0.1,0,0.1,0,0.2,0c0.1,0,0.1,0,0.2,0s0.1,0,0.2,0c0.1,0,0.1,0,0.2,0c0.1,0,0.1,0,0.2,0c0,0,0,0.1,0,0.1
				c0,0,0,0.1,0,0.1c-0.1,0-0.1,0-0.2,0c0,0-0.1,0.1-0.1,0.1c0,0.1,0,0.1,0,0.2V40c0,0.1,0,0.2,0,0.2c0,0.1,0,0.1,0.1,0.1
				c0,0,0.1,0,0.1,0c0,0,0,0.1,0,0.1c0,0,0,0.1,0,0.1c-0.1,0-0.1,0-0.2,0c-0.1,0-0.2,0-0.3,0c-0.1,0-0.2,0-0.3,0c-0.1,0-0.2,0-0.3,0
				c0,0,0-0.1,0-0.1c0,0,0-0.1,0-0.1c0.1,0,0.1,0,0.2,0c0,0,0.1-0.1,0.1-0.1c0-0.1,0-0.1,0-0.2V38.7z"/>
			<path class="st1" d="M95.5,40.6c0,0,0-0.1,0-0.1c0,0,0-0.1,0-0.1c0.1,0,0.1,0,0.2,0c0,0,0.1-0.1,0.1-0.1c0-0.1,0-0.1,0-0.2v-1.2
				c0-0.1,0-0.2,0-0.2c0-0.1,0-0.1-0.1-0.1c0,0-0.1,0-0.2,0c0,0,0-0.1,0-0.1c0,0,0-0.1,0-0.1c0.1,0,0.1,0,0.2,0c0.1,0,0.2,0,0.2,0
				c0.1,0,0.2,0,0.2,0c0.1,0,0.1,0,0.2,0c0.1,0,0.1,0,0.2,0c0.1,0,0.3,0,0.4,0c0.1,0,0.3,0.1,0.4,0.1c0.1,0,0.2,0.1,0.3,0.2
				s0.2,0.2,0.2,0.3c0,0.1,0.1,0.3,0.1,0.5c0,0.2,0,0.4-0.1,0.5c0,0.1-0.1,0.3-0.2,0.4c-0.1,0.1-0.2,0.2-0.3,0.2
				c-0.1,0.1-0.2,0.1-0.3,0.1c-0.1,0-0.2,0-0.3,0.1s-0.2,0-0.2,0c-0.1,0-0.1,0-0.3,0c-0.1,0-0.2,0-0.3,0s-0.2,0-0.3,0
				C95.6,40.6,95.6,40.6,95.5,40.6z M96.7,40.3c0.1,0,0.1,0,0.2,0c0.1,0,0.1-0.1,0.2-0.1c0.1-0.1,0.1-0.2,0.1-0.3
				c0-0.1,0.1-0.3,0.1-0.5c0-0.2,0-0.4-0.1-0.5c0-0.1-0.1-0.2-0.2-0.3c-0.1-0.1-0.1-0.1-0.2-0.2c-0.1,0-0.2,0-0.3,0c0,0-0.1,0-0.1,0
				c0,0-0.1,0-0.1,0l0-0.1v1.7c0,0.1,0,0.2,0,0.2c0,0.1,0,0.1,0.1,0.1C96.6,40.3,96.7,40.3,96.7,40.3z"/>
			<path class="st1" d="M99.7,38.1l0.8,1.8c0.1,0.1,0.1,0.2,0.1,0.3c0,0.1,0.1,0.1,0.1,0.1c0,0,0.1,0,0.1,0c0,0,0,0.1,0,0.1
				c0,0,0,0.1,0,0.1c0,0-0.1,0-0.2,0c-0.1,0-0.1,0-0.2,0c-0.1,0-0.1,0-0.2,0c0,0-0.1,0-0.1,0c-0.1,0-0.1,0-0.2,0c-0.1,0-0.1,0-0.2,0
				c-0.1,0-0.1,0-0.1,0c0-0.1,0-0.1,0-0.1c0,0,0-0.1,0-0.1c0.1,0,0.1,0,0.2-0.1c0,0,0-0.1,0-0.2l-0.3-0.7c-0.1-0.1-0.1-0.2-0.1-0.4
				c0-0.1-0.1-0.2-0.1-0.3h0.1c0,0.1-0.1,0.2-0.1,0.3c0,0.1-0.1,0.2-0.1,0.3L98.9,40c0,0.1,0,0.1,0,0.2c0,0.1,0.1,0.1,0.2,0.1
				c0,0,0,0.1,0,0.1c0,0,0,0.1,0,0.1c0,0-0.1,0-0.1,0c0,0-0.1,0-0.2,0c-0.1,0-0.1,0-0.1,0c-0.1,0-0.1,0-0.2,0c-0.1,0-0.1,0-0.2,0
				c0,0,0-0.1,0-0.1c0,0,0-0.1,0-0.1c0,0,0.1,0,0.1,0c0,0,0.1-0.1,0.1-0.1c0-0.1,0.1-0.1,0.1-0.2l0.8-1.8c0,0,0.1,0,0.1,0
				C99.6,38.1,99.7,38.1,99.7,38.1z M99.8,39.7l0.1,0.2c-0.2,0-0.3,0-0.5,0c-0.2,0-0.3,0-0.5,0l0.1-0.3H99.8z"/>
			<path class="st1" d="M101.4,40.6c0,0,0-0.1,0-0.1c0,0,0-0.1,0-0.1c0.1,0,0.1,0,0.2,0c0,0,0.1-0.1,0.1-0.1c0-0.1,0-0.1,0-0.2v-1.2
				c0-0.1,0-0.2,0-0.2c0-0.1,0-0.1-0.1-0.1c0,0-0.1,0-0.2,0c0,0,0-0.1,0-0.1c0,0,0-0.1,0-0.1c0.1,0,0.1,0,0.2,0c0.1,0,0.2,0,0.2,0
				c0.1,0,0.2,0,0.2,0c0.1,0,0.1,0,0.2,0c0.1,0,0.1,0,0.2,0c0.1,0,0.3,0,0.4,0c0.1,0,0.3,0.1,0.4,0.1c0.1,0,0.2,0.1,0.3,0.2
				c0.1,0.1,0.2,0.2,0.2,0.3c0,0.1,0.1,0.3,0.1,0.5c0,0.2,0,0.4-0.1,0.5c0,0.1-0.1,0.3-0.2,0.4c-0.1,0.1-0.2,0.2-0.3,0.2
				c-0.1,0.1-0.2,0.1-0.3,0.1c-0.1,0-0.2,0-0.3,0.1s-0.2,0-0.2,0c-0.1,0-0.1,0-0.3,0c-0.1,0-0.2,0-0.3,0c-0.1,0-0.2,0-0.3,0
				C101.5,40.6,101.5,40.6,101.4,40.6z M102.6,40.3c0.1,0,0.1,0,0.2,0c0.1,0,0.1-0.1,0.2-0.1c0.1-0.1,0.1-0.2,0.1-0.3
				c0-0.1,0.1-0.3,0.1-0.5c0-0.2,0-0.4-0.1-0.5c0-0.1-0.1-0.2-0.2-0.3c-0.1-0.1-0.1-0.1-0.2-0.2c-0.1,0-0.2,0-0.3,0c0,0-0.1,0-0.1,0
				c0,0-0.1,0-0.1,0l0-0.1v1.7c0,0.1,0,0.2,0,0.2c0,0.1,0,0.1,0.1,0.1C102.5,40.3,102.5,40.3,102.6,40.3z"/>
			<path class="st1" d="M106.7,40l-0.3,0l-0.7-1.5c0-0.1-0.1-0.1-0.1-0.2c0,0-0.1,0-0.1-0.1c0,0,0-0.1,0-0.1c0,0,0-0.1,0-0.1
				c0.1,0,0.1,0,0.2,0c0.1,0,0.1,0,0.2,0c0.1,0,0.1,0,0.2,0c0,0,0.1,0,0.2,0s0.1,0,0.2,0c0.1,0,0.1,0,0.2,0c0,0.1,0,0.1,0,0.1
				c0,0,0,0.1,0,0.1c-0.1,0-0.1,0-0.1,0.1c0,0.1,0,0.1,0.1,0.2c0,0.1,0.1,0.2,0.1,0.3c0.1,0.1,0.1,0.3,0.2,0.4h0
				c0.1-0.1,0.1-0.3,0.2-0.4s0.1-0.2,0.1-0.3c0-0.1,0.1-0.2,0-0.2c0,0-0.1-0.1-0.1-0.1c0,0,0-0.1,0-0.1c0,0,0-0.1,0-0.1
				c0.1,0,0.1,0,0.2,0c0.1,0,0.1,0,0.2,0c0.1,0,0.1,0,0.2,0c0.1,0,0.1,0,0.2,0c0,0.1,0,0.1,0,0.1c0,0,0,0.1,0,0.1c0,0-0.1,0-0.1,0.1
				s-0.1,0.1-0.1,0.2L106.7,40z M106.9,39.6v0.3c0,0.1,0,0.2,0,0.3c0,0.1,0,0.1,0.1,0.1c0,0,0.1,0,0.2,0c0,0,0,0.1,0,0.1
				c0,0,0,0.1,0,0.1c-0.1,0-0.2,0-0.3,0c-0.1,0-0.2,0-0.4,0c-0.1,0-0.2,0-0.2,0c-0.1,0-0.2,0-0.2,0c-0.1,0-0.1,0-0.2,0
				c0,0,0-0.1,0-0.1c0,0,0-0.1,0-0.1c0.1,0,0.2,0,0.2,0c0.1,0,0.1-0.1,0.1-0.1c0-0.1,0-0.2,0-0.3v-0.3H106.9z"/>
			<path class="st1" d="M109.2,40.6c0-0.1,0-0.1,0-0.1c0,0,0-0.1,0-0.1c0.1,0,0.1,0,0.2,0c0,0,0.1-0.1,0.1-0.1c0-0.1,0-0.1,0-0.2
				v-1.2c0-0.1,0-0.2,0-0.2c0-0.1,0-0.1-0.1-0.1c0,0-0.1,0-0.2,0c0,0,0-0.1,0-0.1c0,0,0-0.1,0-0.1c0.1,0,0.2,0,0.3,0
				c0.1,0,0.2,0,0.3,0c0.1,0,0.1,0,0.2,0c0.1,0,0.2,0,0.2,0c0.1,0,0.1,0,0.2,0c0.2,0,0.4,0,0.6,0.1c0.1,0.1,0.2,0.2,0.3,0.3
				c0.1,0.1,0.1,0.2,0.1,0.4c0,0.2,0,0.3-0.1,0.5c-0.1,0.1-0.2,0.2-0.3,0.3c-0.1,0.1-0.3,0.1-0.5,0.1c-0.1,0-0.2,0-0.2,0
				c0,0,0-0.1,0-0.1c0,0,0-0.1,0-0.1c0,0,0,0,0.1,0c0,0,0,0,0.1,0c0.1,0,0.1,0,0.2-0.1c0.1,0,0.1-0.1,0.1-0.2c0-0.1,0.1-0.2,0.1-0.3
				c0-0.2,0-0.3-0.1-0.4c-0.1-0.1-0.2-0.2-0.3-0.2c0,0-0.1,0-0.1,0c0,0-0.1,0-0.1,0l0-0.1v1.6c0,0.1,0,0.2,0,0.2
				c0,0.1,0.1,0.1,0.1,0.1c0.1,0,0.1,0,0.2,0.1c0,0,0,0.1,0,0.1c0,0,0,0.1,0,0.1c0,0-0.1,0-0.2,0s-0.1,0-0.2,0c-0.1,0-0.2,0-0.2,0
				c-0.1,0-0.2,0-0.2,0c-0.1,0-0.2,0-0.2,0S109.3,40.6,109.2,40.6z"/>
			<path class="st1" d="M113,38.1l0.8,1.8c0.1,0.1,0.1,0.2,0.1,0.3c0,0.1,0.1,0.1,0.1,0.1c0,0,0.1,0,0.1,0c0,0,0,0.1,0,0.1
				c0,0,0,0.1,0,0.1c0,0-0.1,0-0.2,0c-0.1,0-0.1,0-0.2,0c-0.1,0-0.1,0-0.2,0c0,0-0.1,0-0.1,0c-0.1,0-0.1,0-0.2,0c-0.1,0-0.1,0-0.2,0
				c-0.1,0-0.1,0-0.1,0c0-0.1,0-0.1,0-0.1c0,0,0-0.1,0-0.1c0.1,0,0.1,0,0.2-0.1c0,0,0-0.1,0-0.2l-0.3-0.7c-0.1-0.1-0.1-0.2-0.1-0.4
				c0-0.1-0.1-0.2-0.1-0.3h0.1c0,0.1-0.1,0.2-0.1,0.3c0,0.1-0.1,0.2-0.1,0.3l-0.3,0.7c0,0.1,0,0.1,0,0.2c0,0.1,0.1,0.1,0.2,0.1
				c0,0,0,0.1,0,0.1c0,0,0,0.1,0,0.1c0,0-0.1,0-0.1,0c0,0-0.1,0-0.2,0c-0.1,0-0.1,0-0.1,0c-0.1,0-0.1,0-0.2,0c-0.1,0-0.1,0-0.2,0
				c0,0,0-0.1,0-0.1c0,0,0-0.1,0-0.1c0,0,0.1,0,0.1,0c0,0,0.1-0.1,0.1-0.1c0-0.1,0.1-0.1,0.1-0.2l0.8-1.8c0,0,0.1,0,0.1,0
				C112.9,38.1,113,38.1,113,38.1z M113.2,39.7l0.1,0.2c-0.2,0-0.3,0-0.5,0c-0.2,0-0.3,0-0.5,0l0.1-0.3H113.2z"/>
			<path class="st1" d="M114.9,38.1c0,0,0.1,0,0.2,0c0.1,0,0.1,0,0.2,0s0.2,0,0.2,0c0.1,0,0.1,0,0.2,0c0.1,0,0.2,0,0.3,0
				c0.1,0,0.2,0,0.3,0c0.1,0,0.2,0,0.3,0c0,0,0,0.1,0,0.1c0,0,0,0.1,0,0.1c-0.1,0.3-0.3,0.5-0.4,0.7c-0.1,0.2-0.2,0.5-0.4,0.7
				c-0.1,0.2-0.3,0.5-0.4,0.7l-0.1-0.1h0.4c0.1,0,0.2,0,0.3,0s0.1-0.1,0.2-0.1c0-0.1,0.1-0.2,0.1-0.3c0.1,0,0.3,0,0.3,0.1
				c0,0.1,0,0.1,0,0.2c0,0.1,0,0.2,0,0.2c0,0.1,0,0.2,0,0.2c-0.1,0-0.2,0-0.3,0c-0.1,0-0.2,0-0.3,0s-0.2,0-0.3,0c-0.2,0-0.3,0-0.4,0
				c-0.1,0-0.3,0-0.4,0c0,0,0-0.1,0-0.1c0,0,0-0.1,0-0.1c0.1-0.2,0.2-0.4,0.3-0.5c0.1-0.2,0.2-0.3,0.3-0.5c0.1-0.2,0.2-0.3,0.3-0.5
				c0.1-0.2,0.2-0.3,0.3-0.5l0.2,0.1h-0.5c-0.1,0-0.2,0-0.2,0c-0.1,0-0.1,0.1-0.1,0.2c0,0.1-0.1,0.2-0.1,0.3c-0.1,0-0.1,0-0.2,0
				c-0.1,0-0.1,0-0.2,0c0-0.1,0.1-0.2,0.1-0.4C114.9,38.3,114.9,38.2,114.9,38.1z"/>
		</g>
	</g>
	<g>
		<g>
			<path class="st0" d="M26,11.3c2.3,0,5.1,1.1,5.1,1.1l4.8-7c-2.4-1.1-4.5,0.4-4.5,0.4c0.7,0.3,1.1,1.8,0,2.9
				c-1.1,1.1-2.5,1-3.6,0.8c-1.1-0.3-3.1-1.2-3.5-3.2c-0.5-2.7,1.9-2.6,1.9-2.6c-1-1.3-2.3-0.3-2.3-0.3c0.1-1.7-1.4-2.8-1.5-2.9l0,0
				l0,0c-0.1,0-1.6,1.3-1.4,2.9c0,0-1.4-1-2.3,0.3c0,0,2.5,0,1.9,2.7c-0.4,1.9-2.3,2.8-3.4,3.1c-1.1,0.3-2.7,0.4-3.7-0.8
				c-1-1.1-0.3-2.3,0-2.9c0,0-2-1.5-4.5-0.4l4.8,7c0,0,2.6-1,4.8-1.1C9.5,13,2.7,21,2.7,30.4c0,10.8,8.7,19.5,19.4,19.5l0.6,0
				c-0.6-1.6-0.8-4.6-0.8-4.6l-0.8,0c-7.7-0.6-13.8-7-13.8-14.9c0-8.3,6.7-15,15-15c8.3,0,15,6.7,15,15c0,5.6-3.1,10.5-7.7,13.1
				l-0.2,0.1l-1,0.5c0,0,0.3,3.7,0.2,4.8c7.7-2.6,13.3-9.9,13.3-18.5C41.8,20.9,35,13,26,11.3z M23.6,9.4c-1.1-0.2-2.1-0.1-2.5,0
				c-0.1,0-0.1,0-0.2,0c0,0,1.1-0.6,1.5-1.8c0.4,1.2,1.5,1.8,1.5,1.8C23.8,9.4,23.7,9.4,23.6,9.4z"/>
			<path class="st0" d="M25.5,7.4c1.6,1.5,3.4,1.6,3.4,1.6c-1.1-1-0.3-2.5-0.3-2.5l-1-0.5C26.6,7.5,25.5,7.4,25.5,7.4z"/>
			<path class="st0" d="M19.1,7.4c-1.6,1.5-3.4,1.6-3.4,1.6c1.1-1,0.3-2.5,0.3-2.5L17,6C18,7.5,19.1,7.4,19.1,7.4z"/>
			<ellipse class="st2" cx="22.2" cy="30.5" rx="15" ry="14.9"/>
			<g>
				<defs>
					<ellipse id="SVGID_1_" cx="22.2" cy="30.5" rx="14.9" ry="14.9"/>
				</defs>
				<clipPath id="SVGID_00000010299597369849750440000003707663939143276722_">
					<use xlink:href="#SVGID_1_"  style="overflow:visible;"/>
				</clipPath>
				<g style="clip-path:url(#SVGID_00000010299597369849750440000003707663939143276722_);">
					<path class="st4" d="M11.5,19.7c0,0-0.1,0-0.1-0.1l-17.1-28c0-0.1,0-0.1,0-0.2c0.1,0,0.1,0,0.2,0l17.1,28
						C11.6,19.5,11.6,19.6,11.5,19.7C11.5,19.7,11.5,19.7,11.5,19.7z"/>
					<path class="st4" d="M11.8,19.5c-0.1,0-0.1,0-0.1-0.1L1.7-8.2c0-0.1,0-0.1,0.1-0.2c0.1,0,0.1,0,0.2,0.1l10,27.6
						C12,19.4,11.9,19.5,11.8,19.5C11.9,19.5,11.9,19.5,11.8,19.5z"/>
					<path class="st4" d="M12.2,19.4c-0.1,0-0.1,0-0.2-0.1L8.3-8.1c0-0.1,0-0.1,0.1-0.2c0.1,0,0.1,0,0.2,0.1l3.8,27.4
						C12.3,19.3,12.3,19.4,12.2,19.4z"/>
					<path class="st4" d="M12.6,19.4C12.5,19.4,12.5,19.4,12.6,19.4c-0.1,0-0.2-0.1-0.2-0.1l1.9-27.7c0-0.1,0.1-0.1,0.1-0.1
						c0.1,0,0.1,0.1,0.1,0.1l-1.9,27.7C12.7,19.3,12.6,19.4,12.6,19.4z"/>
					<path class="st4" d="M12.9,19.4C12.9,19.4,12.9,19.4,12.9,19.4c-0.1,0-0.2-0.1-0.1-0.2l8.1-28.1c0-0.1,0.1-0.1,0.2-0.1
						c0.1,0,0.1,0.1,0.1,0.2L13,19.3C13,19.4,13,19.4,12.9,19.4z"/>
					<path class="st4" d="M13.3,19.6C13.2,19.6,13.2,19.6,13.3,19.6c-0.1,0-0.2-0.1-0.1-0.2L28.5-9.8c0-0.1,0.1-0.1,0.2-0.1
						c0.1,0,0.1,0.1,0.1,0.2L13.3,19.6C13.4,19.5,13.3,19.6,13.3,19.6z"/>
					<path class="st4" d="M13.6,19.8c0,0-0.1,0-0.1,0c-0.1,0-0.1-0.1,0-0.2L38-10c0-0.1,0.1-0.1,0.2,0c0.1,0,0.1,0.1,0,0.2
						L13.6,19.8C13.7,19.8,13.6,19.8,13.6,19.8z"/>
					<path class="st4" d="M13.9,20c0,0-0.1,0-0.1,0c0-0.1,0-0.1,0-0.2L51.4-9.7c0.1,0,0.1,0,0.2,0c0,0.1,0,0.1,0,0.2L13.9,20
						C13.9,20,13.9,20,13.9,20z"/>
					<path class="st4" d="M14.1,20.4c-0.1,0-0.1,0-0.1-0.1c0-0.1,0-0.1,0.1-0.2l50.7-25c0.1,0,0.1,0,0.2,0.1c0,0.1,0,0.1-0.1,0.2
						L14.1,20.4C14.1,20.3,14.1,20.4,14.1,20.4z"/>
					<path class="st4" d="M14.2,20.7c-0.1,0-0.1,0-0.1-0.1c0-0.1,0-0.1,0.1-0.2L65.5,6.9c0.1,0,0.1,0,0.2,0.1c0,0.1,0,0.1-0.1,0.2
						L14.2,20.7C14.2,20.7,14.2,20.7,14.2,20.7z"/>
					<path class="st4" d="M11.2,19.9c0,0-0.1,0-0.1,0L-14.3-6.9c-0.1-0.1-0.1-0.1,0-0.2c0.1-0.1,0.1-0.1,0.2,0l25.4,26.8
						C11.3,19.7,11.3,19.8,11.2,19.9C11.3,19.9,11.2,19.9,11.2,19.9z"/>
					<path class="st4" d="M11,20.2C10.9,20.2,10.9,20.2,11,20.2L-26.7-5.4c-0.1,0-0.1-0.1,0-0.2c0-0.1,0.1-0.1,0.2,0L11,20
						C11.1,20,11.1,20.1,11,20.2C11,20.2,11,20.2,11,20.2z"/>
					<path class="st4" d="M10.8,20.5C10.8,20.5,10.8,20.5,10.8,20.5l-39.1-15c-0.1,0-0.1-0.1-0.1-0.2c0-0.1,0.1-0.1,0.2-0.1l39,15
						c0.1,0,0.1,0.1,0.1,0.2C10.9,20.5,10.9,20.5,10.8,20.5z"/>
					<path class="st4" d="M10.7,20.9C10.7,20.9,10.7,20.9,10.7,20.9l-38.6-6.4c-0.1,0-0.1-0.1-0.1-0.2s0.1-0.1,0.2-0.1l38.6,6.4
						c0.1,0,0.1,0.1,0.1,0.2C10.8,20.8,10.8,20.9,10.7,20.9z"/>
					<path class="st4" d="M10.7,21.2C10.7,21.2,10.7,21.2,10.7,21.2l-38.3,1.8c-0.1,0-0.1-0.1-0.1-0.1c0-0.1,0.1-0.1,0.1-0.1
						L10.7,21c0.1,0,0.1,0.1,0.1,0.1C10.8,21.2,10.8,21.2,10.7,21.2z"/>
					<path class="st4" d="M-26.5,31.5c-0.1,0-0.1,0-0.1-0.1c0-0.1,0-0.1,0.1-0.2l37.2-9.9c0.1,0,0.1,0,0.2,0.1c0,0.1,0,0.1-0.1,0.2
						L-26.5,31.5C-26.5,31.5-26.5,31.5-26.5,31.5z"/>
					<path class="st4" d="M-25.6,40.8c-0.1,0-0.1,0-0.1-0.1c0-0.1,0-0.1,0.1-0.2l36.5-18.8c0.1,0,0.1,0,0.2,0.1c0,0.1,0,0.1-0.1,0.2
						L-25.6,40.8C-25.6,40.7-25.6,40.8-25.6,40.8z"/>
					<path class="st4" d="M-24.1,51.4c0,0-0.1,0-0.1,0c0-0.1,0-0.1,0-0.2c0,0,30.7-25.5,35.1-29.1c0.1,0,0.1,0,0.2,0
						c0,0.1,0,0.1,0,0.2C6.7,25.8-24,51.3-24.1,51.4C-24,51.4-24,51.4-24.1,51.4z"/>
					<path class="st4" d="M-16.9,57.8c0,0-0.1,0-0.1,0c-0.1,0-0.1-0.1,0-0.2l28.2-35.2c0-0.1,0.1-0.1,0.2,0c0.1,0,0.1,0.1,0,0.2
						L-16.9,57.8C-16.8,57.7-16.9,57.8-16.9,57.8z"/>
					<path class="st4" d="M-5.7,57.7C-5.7,57.7-5.7,57.7-5.7,57.7c-0.1,0-0.2-0.1-0.1-0.2l17.3-34.9c0-0.1,0.1-0.1,0.2-0.1
						c0.1,0,0.1,0.1,0.1,0.2L-5.7,57.7C-5.6,57.6-5.6,57.7-5.7,57.7z"/>
					<path class="st4" d="M2.9,57C2.9,57,2.9,57,2.9,57c-0.1,0-0.2-0.1-0.1-0.2l9.1-34.2c0-0.1,0.1-0.1,0.2-0.1
						c0.1,0,0.1,0.1,0.1,0.2L3,56.9C3,57,2.9,57,2.9,57z"/>
					<path class="st4" d="M10.3,57.3C10.3,57.3,10.3,57.3,10.3,57.3c-0.1,0-0.2-0.1-0.2-0.1l2-34.3c0-0.1,0.1-0.1,0.1-0.1
						c0.1,0,0.1,0.1,0.1,0.1l-2,34.3C10.4,57.2,10.4,57.3,10.3,57.3z"/>
					<path class="st4" d="M17.8,57C17.8,57,17.8,57,17.8,57c-0.1,0-0.1,0-0.2-0.1l-5.1-34.1c0-0.1,0-0.1,0.1-0.1
						c0.1,0,0.1,0,0.1,0.1l5.1,34.1C17.9,56.9,17.9,57,17.8,57z"/>
					<path class="st4" d="M25.3,55.9c-0.1,0-0.1,0-0.1-0.1L12.9,22.8c0-0.1,0-0.1,0.1-0.2c0.1,0,0.1,0,0.2,0.1l12.2,33.1
						C25.4,55.8,25.4,55.9,25.3,55.9C25.3,55.9,25.3,55.9,25.3,55.9z"/>
					<path class="st4" d="M34.1,55.5c0,0-0.1,0-0.1-0.1L13.3,22.6c0-0.1,0-0.1,0-0.2c0.1,0,0.1,0,0.2,0l20.6,32.8
						C34.2,55.3,34.2,55.4,34.1,55.5C34.1,55.4,34.1,55.4,34.1,55.5z"/>
					<path class="st4" d="M45.3,54.6c0,0-0.1,0-0.1,0L13.6,22.4c-0.1-0.1-0.1-0.1,0-0.2c0.1-0.1,0.1-0.1,0.2,0l31.5,32.2
						C45.4,54.4,45.4,54.5,45.3,54.6C45.3,54.6,45.3,54.6,45.3,54.6z"/>
					<path class="st4" d="M59.9,51.9C59.8,51.9,59.8,51.9,59.9,51.9l-46-29.7c-0.1,0-0.1-0.1,0-0.2c0-0.1,0.1-0.1,0.2,0l45.9,29.7
						C60,51.7,60,51.7,59.9,51.9C59.9,51.8,59.9,51.8,59.9,51.9z"/>
					<path class="st4" d="M66.8,42.1C66.8,42.1,66.7,42.1,66.8,42.1L14.1,21.8c-0.1,0-0.1-0.1-0.1-0.2c0-0.1,0.1-0.1,0.2-0.1
						l52.6,20.3c0.1,0,0.1,0.1,0.1,0.2C66.9,42,66.8,42.1,66.8,42.1z"/>
					<path class="st4" d="M66.9,29.9C66.9,29.9,66.9,29.9,66.9,29.9l-52.7-8.5c-0.1,0-0.1-0.1-0.1-0.2c0-0.1,0.1-0.1,0.2-0.1
						l52.7,8.5c0.1,0,0.1,0.1,0.1,0.2C67,29.9,67,29.9,66.9,29.9z"/>
					<path class="st4" d="M65.9,18.2C65.9,18.2,65.9,18.2,65.9,18.2l-51.6,2.8c-0.1,0-0.1-0.1-0.1-0.1c0-0.1,0.1-0.1,0.1-0.1
						L65.8,18c0.1,0,0.1,0.1,0.1,0.1C66,18.2,65.9,18.2,65.9,18.2z"/>
				</g>
			</g>
			<path class="st5" d="M25.8,37.8C25.8,37.8,25.8,37.8,25.8,37.8c0,0,0,0.1,0.1,0.1c0,0,0,0,0,0c1.8,1.1,2.6,2.9,2.6,2.9l0.8-3.5
				c-0.3-0.2-1-1-1.4-1.9C27.6,35.9,26.9,37,25.8,37.8z"/>
			<polygon class="st5" points="25.7,37.8 25.7,37.8 25.7,37.8 			"/>
			<path class="st4" d="M12.8,19.7C12.8,19.7,12.8,19.7,12.8,19.7C12.8,19.7,12.8,19.7,12.8,19.7C12.8,19.7,12.8,19.7,12.8,19.7z"/>
			<path class="st4" d="M12.8,19.9C12.8,19.9,12.8,19.9,12.8,19.9C12.8,19.9,12.8,19.9,12.8,19.9z"/>
			<polygon class="st4" points="12.7,22 12.7,22 12.7,22 			"/>
			<g>
				<path class="st0" d="M25.7,37.8C25.7,37.8,25.7,37.8,25.7,37.8C25.7,37.8,25.7,37.8,25.7,37.8C25.8,37.8,25.8,37.8,25.7,37.8
					C25.8,37.8,25.7,37.8,25.7,37.8z"/>
			</g>
			<g>
				<path class="st0" d="M25.7,37.8C25.7,37.8,25.7,37.8,25.7,37.8C25.7,37.8,25.7,37.8,25.7,37.8C25.7,37.8,25.7,37.8,25.7,37.8z"
					/>
			</g>
			<g>
				<path class="st0" d="M29,45.4c0-1.5-0.4-2.6-0.5-3.3c-0.1-0.2-0.1-0.5-0.2-0.7c-0.3-0.6-0.8-1.8-1.3-2.5c-0.5-0.6-0.8-0.8-1-1
					c0.2,0.2,1.9,2.2,2.2,5.4c0,0,0.4,4.2,0.3,5.6l0.6-2.1C29,46.5,29,46,29,45.4z"/>
			</g>
			<g>
				<path class="st0" d="M12.8,19.7C12.8,19.7,12.8,19.7,12.8,19.7C12.8,19.7,12.8,19.7,12.8,19.7C12.8,19.7,12.8,19.7,12.8,19.7z"
					/>
			</g>
			<g>
				<path class="st0" d="M12.8,19.9C12.8,19.9,12.8,19.9,12.8,19.9C12.8,19.9,12.8,19.9,12.8,19.9z"/>
			</g>
			<g>
				<polygon class="st0" points="12.7,22 12.7,22 12.7,22 				"/>
			</g>
			<path class="st4" d="M12.2,19.2c0,0,1-0.1,1.6,0.6s0.6,1.6,0.3,2.1c-0.3,0.5-1,0.9-1,0.9l0.7,0.2c0,0,0,1.4-1.1,2.1
				c0,0,0.1,0.2,0.2,0.2c0.1,0.1,0.4,0.1,0.4,0.2c0,0.1-0.1,0.2-0.1,0.3s0.1,0.2,0,0.3c-0.1,0.1,0.1,0.3,0,0.4
				c-0.1,0.1-0.2,0.4-0.2,0.9c0,0.5,0,0.5,0.7,2c0.6,1.5,0.9,1.7,1.2,2.5c0.3,0.8,0.5,1.5,0.5,1.5s0.1,0.2,0.7-0.7
				c0.6-0.9,1.3-1.9,2-2.6c0.7-0.6,0.8-0.8,0.8-0.8s-0.1-0.5,0.4-1.3c0.5-0.8,0.7-1,0.7-1.7s0-0.9,0.1-1.6c0.1-0.8,0.3-1.9,1-2.7
				c0.8-0.8,1.7-0.6,2.4-0.4c0.7,0.2,1.2,0.9,1.5,2c0.2,1.1,0,2.4,0.3,3.4c0.3,1.1,0.6,1,0.9,1.6c0.3,0.6,0.4,0.4,0.6,0.6
				c0.2,0.2,1.1,0.8,1.5,1.6c0.4,0.8,0.9,1.9,1,2.5c0.1,0.5-1.2,1.6-1.2,1.6s-1.6,2.2-2.3,2.6c0,0,0.9,0.9,1.8,2.2
				c0.9,1.3,1.1,4.3,1.2,5c0.1,0.8,0.1,3.7,0.1,3.7L28.5,49c0,0-2.4,1-5.7,1l-0.5,0c0,0-0.5-1.7-0.6-3.4c-0.1-1.7-0.3-2.5,0-4.3
				c0.3-1.8,0.6-2.7,1.7-3.9c1.1-1.2,1-2.2,0.2-2.9c-0.8-0.7-2.6-1.4-3.4-2.2c-0.8-0.7-0.9-1.2-1-1.7c-0.1-0.4,0.1-1.3,0.1-1.3
				s-1.1,0.8-1.2,1.9c-0.1,1.1,0,1.5,0,1.5s-1,1-1.8,1.4c-0.8,0.4-1.1,0.9-1.5,0.7s-0.8-0.5-1.2-1.9s-0.9-4.3-0.9-4.3
				s-0.4-2-0.5-2.1c-0.1-0.2-0.4-0.6-0.5-0.7s-0.2-0.5-0.1-0.7c0.1-0.2,0-0.6,0.1-0.7s0.4-0.1,0.4-0.2c0-0.1-0.2-0.4-0.2-0.4
				s-0.5-0.4-0.6-1s0-0.8,0-0.8l0.7-0.1c0,0,0.1-0.2-0.1-0.3c-0.2-0.1-0.7-0.5-0.9-1.3C10.6,20.6,11,19.4,12.2,19.2z"/>
			<path class="st0" d="M22.9,24.7C22.9,24.7,22.9,24.7,22.9,24.7c0-0.1-0.1-0.2-0.2-0.2c-0.1,0-0.1,0.1-0.1,0.1
				S22.8,24.7,22.9,24.7z"/>
			<path class="st0" d="M22.5,25.5c0,0-0.2,0-0.3,0.1c-0.1,0.1,0,0.1,0.1,0.1c0.1,0,0.3,0,0.4,0s0.2,0,0.2,0
				C22.8,25.6,22.6,25.5,22.5,25.5z"/>
			<path class="st0" d="M23.1,25.4c0,0-0.1-0.1-0.2-0.2c-0.1-0.1-0.2-0.2-0.5-0.1s-0.4,0.1-0.5,0.2c-0.1,0.1-0.2,0.1-0.2,0.1
				c0,0,0,0.1,0.1,0c0.1,0,0.3-0.1,0.3-0.2c0,0,0.1,0,0.1,0s0.2-0.1,0.4,0c0.2,0.1,0.3,0.1,0.4,0.2C23,25.4,23.1,25.4,23.1,25.4z"/>
			<g>
				<path class="st4" d="M35.6,17.1c-3.6-3.6-8.3-5.5-13.4-5.5s-9.8,2-13.4,5.5c-3.6,3.6-5.5,8.3-5.5,13.4s2,9.8,5.5,13.4
					s8.3,5.5,13.4,5.5s9.8-2,13.4-5.5c3.6-3.6,5.5-8.3,5.5-13.4S39.2,20.7,35.6,17.1z M22.2,49.2c-10.3,0-18.7-8.4-18.7-18.7
					c0-10.3,8.4-18.7,18.7-18.7c10.3,0,18.7,8.4,18.7,18.7C40.9,40.8,32.5,49.2,22.2,49.2z"/>
				<path class="st4" d="M33.4,19.3c-3-3-6.9-4.6-11.2-4.6S14,16.3,11,19.3c-3,3-4.6,6.9-4.6,11.2s1.6,8.2,4.6,11.2
					c3,3,6.9,4.6,11.2,4.6s8.2-1.6,11.2-4.6c3-3,4.6-6.9,4.6-11.2S36.4,22.3,33.4,19.3z M22.2,46.1c-8.6,0-15.6-7-15.6-15.6
					s7-15.6,15.6-15.6s15.6,7,15.6,15.6S30.8,46.1,22.2,46.1z"/>
			</g>
			<g>
				<path class="st4" d="M5.7,30.3c0,0.2,0,0.3-0.1,0.4c-0.1,0.1-0.2,0.2-0.3,0.3C5.3,31,5.1,31,5,31c-0.1,0-0.2,0-0.3-0.1
					c-0.1,0-0.2-0.1-0.3-0.2c-0.1-0.1-0.1-0.2-0.2-0.3c0-0.1-0.1-0.2-0.1-0.3c0-0.1,0-0.1,0-0.2c0-0.1,0-0.1,0.1-0.2
					c0-0.1,0.1-0.1,0.1-0.2l0.3,0.2l0,0.1l-0.4,0.3l0-0.3l0.2,0c0,0-0.1,0.1-0.1,0.1c0,0,0,0.1,0,0.2c0,0.1,0,0.2,0.1,0.2
					c0.1,0.1,0.1,0.1,0.2,0.2c0.1,0,0.2,0.1,0.3,0.1c0.1,0,0.2,0,0.3-0.1c0.1,0,0.2-0.1,0.2-0.2c0.1-0.1,0.1-0.2,0.1-0.3
					c0-0.1,0-0.1,0-0.2c0-0.1-0.1-0.1-0.2-0.1l0-0.1c0.1,0,0.2,0.1,0.3,0.2C5.7,30,5.7,30.1,5.7,30.3z M5.8,29.6L5.5,30l-0.4,0
					L5,30.1l0,0l0-0.7l0,0l0.1,0.1L5.8,29.6L5.8,29.6z"/>
				<path class="st4" d="M5.9,28.4c0,0.2-0.1,0.3-0.2,0.4C5.7,28.9,5.6,29,5.4,29c-0.1,0.1-0.3,0.1-0.4,0c-0.2,0-0.3-0.1-0.4-0.2
					c-0.1-0.1-0.2-0.2-0.2-0.3c0-0.1-0.1-0.3,0-0.4c0-0.2,0.1-0.3,0.2-0.4c0.1-0.1,0.2-0.2,0.3-0.2c0.1-0.1,0.3-0.1,0.4,0
					c0.2,0,0.3,0.1,0.4,0.2c0.1,0.1,0.2,0.2,0.2,0.3C5.9,28,5.9,28.2,5.9,28.4z M5.7,28.3c0-0.1,0-0.2,0-0.2c0-0.1-0.1-0.1-0.2-0.2
					c-0.1,0-0.2-0.1-0.3-0.1c-0.1,0-0.3,0-0.4,0S4.7,27.9,4.6,28c-0.1,0.1-0.1,0.1-0.1,0.2c0,0.1,0,0.2,0,0.2c0,0.1,0.1,0.1,0.2,0.2
					c0.1,0,0.2,0.1,0.3,0.1c0.1,0,0.3,0,0.4,0c0.1,0,0.2-0.1,0.2-0.1C5.7,28.5,5.7,28.4,5.7,28.3z"/>
				<path class="st4" d="M6,27.2L6,27.2L5.9,27l-1.1-0.3l-0.2,0.1l0,0l0.1-0.5l1.4,0.4L6,27.2z M5.3,26.6L5.3,26.6l0-0.3
					c0-0.1,0-0.1,0-0.2c0,0-0.1-0.1-0.2-0.1c-0.2,0-0.3,0-0.3,0.2l-0.1,0.3l-0.1,0l0.1-0.3c0.1-0.2,0.1-0.3,0.2-0.4
					c0.1-0.1,0.2-0.1,0.3-0.1c0.1,0,0.2,0.1,0.2,0.2c0,0.1,0,0.3,0,0.5L5.3,26.6z M6.1,26.9l-0.1,0l0.1-0.3c0-0.1,0-0.2,0-0.3
					c0-0.1-0.1-0.1-0.2-0.1c-0.1,0-0.2,0-0.2,0c-0.1,0-0.1,0.1-0.1,0.2l-0.1,0.3l-0.1,0l0.1-0.4c0-0.2,0.1-0.3,0.2-0.4
					c0.1-0.1,0.2-0.1,0.3-0.1c0.1,0,0.2,0.1,0.2,0.1c0.1,0.1,0.1,0.2,0.1,0.3c0,0.1,0,0.3-0.1,0.4L6.1,26.9z M5.5,26.1L5.5,26.1
					L5.5,26.1L5.5,26.1L5.5,26.1z"/>
				<path class="st4" d="M6.5,25.5L6.5,25.5l-0.1-0.2l-1-0.4l-0.2,0.1l0,0l0.2-0.7l0,0l0.1,0.2l1,0.4l0.2-0.1l0,0L6.5,25.5z"/>
				<path class="st4" d="M6.8,24.6L6.8,24.6l-0.1-0.2l-1-0.4L5.5,24l0,0l0.2-0.5L7,24.1L6.8,24.6z M6,23l-0.3,0.6l-0.1,0l0.3-0.7
					L6,23z M6.2,23.1l-0.4,0.2l-0.1,0l0.1-0.3l0,0L6.2,23.1L6.2,23.1z M6.6,23.4l-0.2,0.5l-0.1,0l0.2-0.5L6.6,23.4z M6.7,23.5
					l-0.3,0.1l-0.1,0l-0.1-0.3l0,0L6.7,23.5L6.7,23.5z M7,24.2L7,24.2l0.1-0.7l0.1,0.1L7,24.2z M7.2,23.8L7.2,23.8l-0.2-0.5l0,0
					l0.4,0.2L7.2,23.8z"/>
				<path class="st4" d="M7.5,23.1L7.5,23.1l-0.1-0.2l-1-0.5l-0.2,0.1l0,0l0.3-0.5l1.1,0.6l0.2-0.1l0,0L7.5,23.1z M7,22.6l-0.1-0.1
					l0.2-0.3c0-0.1,0.1-0.2,0-0.2c0-0.1-0.1-0.1-0.2-0.2c-0.1,0-0.2-0.1-0.2,0c-0.1,0-0.1,0.1-0.2,0.2l-0.1,0.3l-0.1-0.1l0.2-0.4
					c0.1-0.2,0.2-0.3,0.3-0.3c0.1-0.1,0.2,0,0.3,0c0.1,0.1,0.2,0.2,0.2,0.3c0,0.1,0,0.3-0.1,0.5l0,0l0,0L7,22.6z M8,22.2l-0.8,0
					l0-0.4l0.9,0l-0.3,0l0.3-0.1l0,0L8,22.2z"/>
				<path class="st4" d="M8.3,21.6L8.3,21.6l-0.1-0.2l-0.8-0.6l-0.3,0l0,0l0.1-0.2l1.1,0.7l0.2,0l0,0L8.3,21.6z M9,20.6l-1.5,0.1
					l-0.2-0.2l0.1-0.2l1.5-0.1l0,0.1l-0.9-0.5l-0.2,0l0,0L8,19.5l0,0l0,0.2l1.1,0.8L9,20.6z"/>
				<path class="st4" d="M10,19.5c-0.1,0.1-0.2,0.2-0.4,0.3c-0.1,0-0.3,0.1-0.4,0c-0.1,0-0.3-0.1-0.4-0.2c-0.1-0.1-0.2-0.2-0.2-0.4
					c0-0.1,0-0.3,0-0.4c0-0.1,0.1-0.3,0.2-0.4c0.1-0.1,0.2-0.2,0.4-0.3c0.1,0,0.3-0.1,0.4,0c0.1,0,0.3,0.1,0.4,0.2
					c0.1,0.1,0.2,0.2,0.2,0.4c0,0.1,0,0.3,0,0.4C10.2,19.3,10.1,19.4,10,19.5z M9.9,19.4c0.1-0.1,0.1-0.1,0.1-0.2
					c0-0.1,0-0.2-0.1-0.2c0-0.1-0.1-0.2-0.2-0.2c-0.1-0.1-0.2-0.2-0.3-0.2s-0.2-0.1-0.3,0c-0.1,0-0.2,0-0.2,0.1
					c-0.1,0.1-0.1,0.1-0.1,0.2c0,0.1,0,0.2,0.1,0.2c0,0.1,0.1,0.2,0.2,0.2c0.1,0.1,0.2,0.2,0.3,0.2c0.1,0,0.2,0.1,0.3,0
					C9.8,19.5,9.8,19.5,9.9,19.4z"/>
				<path class="st4" d="M11.3,18.1L11.3,18.1v-0.2L10.6,17l-0.2,0l0,0l0.4-0.3l0.9,1.2L11.3,18.1z M11.6,17.9L11.6,17.9l0.2-0.3
					c0.1-0.1,0.1-0.1,0.2-0.2c0-0.1,0-0.2,0-0.3c0-0.1-0.1-0.2-0.2-0.3c-0.1-0.1-0.2-0.2-0.3-0.2c-0.1,0-0.2-0.1-0.3-0.1
					c-0.1,0-0.2,0-0.2,0.1l-0.2,0.2l-0.1-0.1l0.3-0.2c0.1-0.1,0.3-0.2,0.4-0.2c0.1,0,0.3,0,0.4,0c0.1,0,0.2,0.1,0.3,0.2
					c0.1,0.1,0.1,0.2,0.1,0.3c0,0.1,0,0.2,0,0.3c0,0.1-0.1,0.2-0.1,0.3c-0.1,0.1-0.1,0.2-0.2,0.3L11.6,17.9z"/>
				<path class="st4" d="M12.8,17L12.8,17l0-0.2l-0.6-0.9l-0.2,0l0,0l0.5-0.3l0.8,1.3L12.8,17z M13.1,15.2l-0.6,0.3l-0.1-0.1
					l0.6-0.4L13.1,15.2z M13.2,15.4l-0.4-0.1l-0.1-0.1l0.3-0.2l0,0L13.2,15.4L13.2,15.4z M13.3,15.9l-0.5,0.3l-0.1-0.1l0.4-0.3
					L13.3,15.9z M13.3,16l-0.3-0.1l0-0.1l0.1-0.3l0,0L13.3,16L13.3,16z M13.2,16.7L13.2,16.7l0.5-0.5l0.1,0.1L13.2,16.7z M13.5,16.5
					L13.5,16.5l0.1-0.5l0,0l0.2,0.3L13.5,16.5z"/>
				<path class="st4" d="M14.1,16.1L14.1,16.1l0-0.2l-0.5-1l-0.2-0.1l0,0l0.6-0.3l0,0L14,14.7l0.6,1.2L14.1,16.1z M14.5,15.9
					L14.5,15.9l0.6-0.5l0.1,0.1L14.5,15.9z M14.9,15.8L14.9,15.8l0.1-0.6l0,0l0.2,0.4L14.9,15.8z"/>
				<path class="st4" d="M16.2,15.2L16.2,15.2l0.1-0.2l-0.4-1l-0.2-0.1l0,0l0.5-0.2l0.5,1.4L16.2,15.2z M16.9,13.5l-0.7,0.2l0-0.1
					l0.7-0.2L16.9,13.5z M16.9,14.2l-0.5,0.1l0-0.1l0.5-0.2L16.9,14.2z M17,13.7l-0.4-0.1l0-0.1l0.3-0.1l0,0L17,13.7L17,13.7z
					 M16.6,15L16.6,15l0.6-0.4l0.1,0.1L16.6,15z M17,14.3l-0.3-0.1l0-0.1l0.1-0.2l0.1,0L17,14.3L17,14.3z M17,14.9L17,14.9l0.2-0.5
					l0.1,0l0.1,0.4L17,14.9z"/>
				<path class="st4" d="M18.3,14.6c-0.1,0-0.1,0-0.2,0c-0.1,0-0.1,0-0.2,0c-0.1,0-0.1,0-0.2,0l0.1-0.3l0.1,0L18.3,14.6l-0.3,0
					l0-0.2c0,0,0.1,0.1,0.2,0.1c0.1,0,0.1,0,0.2,0c0.1,0,0.1-0.1,0.2-0.1c0,0,0-0.1,0-0.2c0-0.1-0.1-0.1-0.1-0.1c-0.1,0-0.2,0-0.3,0
					c-0.1,0-0.2,0-0.3,0c-0.1,0-0.1-0.1-0.2-0.1c0,0-0.1-0.1-0.1-0.2c0-0.1,0-0.3,0.1-0.4c0.1-0.1,0.2-0.2,0.4-0.2
					c0.1,0,0.1,0,0.2,0c0.1,0,0.1,0,0.2,0c0.1,0,0.1,0,0.2,0l-0.1,0.3l-0.1,0L18,13.1l0.3-0.1l0,0.2c0,0-0.1-0.1-0.1-0.1
					c-0.1,0-0.1,0-0.2,0c-0.1,0-0.1,0-0.2,0.1c0,0,0,0.1,0,0.1c0,0.1,0.1,0.1,0.1,0.1c0.1,0,0.2,0,0.3,0.1c0.1,0,0.2,0,0.3,0
					c0.1,0,0.1,0.1,0.2,0.1c0,0,0.1,0.1,0.1,0.2c0,0.1,0,0.2,0,0.3c0,0.1-0.1,0.2-0.2,0.2C18.5,14.5,18.4,14.5,18.3,14.6z"/>
				<path class="st4" d="M19.1,13.2L19,12.8l0,0l0.3,0l0,0.1L19.1,13.2L19.1,13.2z M19.6,14.3L19.6,14.3l0.1-0.2l-0.2-1.2l0.2,0
					L19.1,13l0-0.2l1.3-0.2l0,0.2l-0.6,0l0.1-0.1l0.2,1.2l0.2,0.1l0,0L19.6,14.3z M20.4,13l-0.4-0.3l0-0.1l0.3-0.1l0,0L20.4,13
					L20.4,13z"/>
				<path class="st4" d="M20.7,14.1L20.7,14.1l0.2-0.2L20.7,14.1l0.6-1.5l0.2,0l0.7,1.4l-0.1-0.2l0.2,0.2l0,0l-0.7,0l0,0l0.2-0.2
					l0,0.2l-0.6-1.2l0.1,0l-0.3,1.3l0-0.2l0.2,0.2l0,0L20.7,14.1z M21.1,13.7l0-0.1l0.8,0l0,0.1L21.1,13.7z M21.3,12.8l-0.2-0.2l0,0
					l0.3,0L21.3,12.8z"/>
				<path class="st4" d="M22.6,14L22.6,14l0.2-0.2l0.1-1.1l-0.1-0.2l0,0l0.5,0l-0.1,1.5L22.6,14z M23,14.1l0-0.1l0.3,0
					c0.1,0,0.2,0,0.3-0.1c0.1,0,0.1-0.1,0.2-0.2c0-0.1,0.1-0.2,0.1-0.3c0-0.1,0-0.2,0-0.3c0-0.1-0.1-0.2-0.1-0.2
					c-0.1-0.1-0.1-0.1-0.2-0.1l-0.3,0l0-0.1l0.3,0c0.2,0,0.3,0.1,0.4,0.1c0.1,0.1,0.2,0.2,0.3,0.3c0.1,0.1,0.1,0.2,0.1,0.4
					c0,0.1,0,0.2-0.1,0.3c-0.1,0.1-0.1,0.2-0.2,0.2c-0.1,0.1-0.2,0.1-0.3,0.1c-0.1,0-0.2,0-0.4,0L23,14.1z"/>
				<path class="st4" d="M25.4,14.4c-0.2,0-0.3-0.1-0.4-0.2c-0.1-0.1-0.2-0.2-0.2-0.3c0-0.1,0-0.3,0-0.4c0-0.2,0.1-0.3,0.2-0.4
					c0.1-0.1,0.2-0.2,0.3-0.2c0.1,0,0.3,0,0.5,0c0.2,0,0.3,0.1,0.4,0.2c0.1,0.1,0.2,0.2,0.2,0.3c0,0.1,0,0.3,0,0.4
					c0,0.2-0.1,0.3-0.2,0.4c-0.1,0.1-0.2,0.2-0.3,0.2C25.7,14.4,25.5,14.4,25.4,14.4z M25.4,14.2c0.1,0,0.2,0,0.2,0
					c0.1,0,0.1-0.1,0.2-0.2c0-0.1,0.1-0.2,0.1-0.3c0-0.1,0-0.3,0-0.4c0-0.1,0-0.2-0.1-0.3c-0.1-0.1-0.1-0.1-0.2-0.1
					c-0.1,0-0.2,0-0.2,0c-0.1,0-0.1,0.1-0.2,0.2c0,0.1-0.1,0.2-0.1,0.3c0,0.1,0,0.3,0,0.4c0,0.1,0,0.2,0.1,0.3
					C25.3,14.2,25.3,14.2,25.4,14.2z"/>
				<path class="st4" d="M27.2,14.8L27.2,14.8l0.2-0.1l0.4-1l-0.1-0.2l0,0l0.5,0.2L27.7,15L27.2,14.8z M27.6,15l0-0.1l0.3,0.1
					c0.1,0,0.2,0,0.3,0c0.1,0,0.2-0.1,0.2-0.1c0.1-0.1,0.1-0.2,0.2-0.3c0-0.1,0.1-0.2,0.1-0.3c0-0.1,0-0.2-0.1-0.3s-0.1-0.1-0.2-0.2
					l-0.3-0.1l0-0.1l0.3,0.1c0.2,0.1,0.3,0.1,0.4,0.2c0.1,0.1,0.2,0.2,0.2,0.3c0,0.1,0,0.3,0,0.4c0,0.1-0.1,0.2-0.2,0.3
					c-0.1,0.1-0.2,0.1-0.3,0.2c-0.1,0-0.2,0.1-0.3,0c-0.1,0-0.2,0-0.4-0.1L27.6,15z"/>
				<path class="st4" d="M29,15.5L29,15.5l0.2-0.1l0.5-1l-0.1-0.2l0,0l0.5,0.2l-0.7,1.3L29,15.5z M29.4,15.7L29.4,15.7l0.7,0.2
					L30,16L29.4,15.7z M30.2,15.3l-0.5-0.3l0-0.1l0.5,0.2L30.2,15.3z M29.8,15.9L29.8,15.9l0.5-0.2l0,0l-0.2,0.4L29.8,15.9z
					 M30.6,14.8L30,14.5l0-0.1l0.7,0.3L30.6,14.8z M30.1,15.5L30,15.2l0-0.1l0.3-0.1l0,0L30.1,15.5L30.1,15.5z M30.6,15l-0.2-0.4
					l0-0.1l0.3,0.1l0,0L30.6,15L30.6,15z"/>
				<path class="st4" d="M31.7,17.1c-0.1-0.1-0.2-0.2-0.3-0.3c-0.1-0.1-0.1-0.2-0.1-0.4c0-0.1,0.1-0.3,0.2-0.4
					c0.1-0.1,0.2-0.2,0.2-0.2c0.1-0.1,0.2-0.1,0.3-0.1c0.1,0,0.2,0,0.3,0c0.1,0,0.2,0.1,0.3,0.1c0.1,0,0.1,0.1,0.2,0.1
					c0,0.1,0.1,0.1,0.1,0.2c0,0.1,0.1,0.1,0.1,0.2l-0.3,0.2l0,0l0-0.5l0.2,0.2l-0.1,0.2c0-0.1,0-0.1,0-0.2c0,0-0.1-0.1-0.1-0.1
					c-0.1,0-0.1-0.1-0.2-0.1c-0.1,0-0.2,0-0.3,0.1c-0.1,0.1-0.2,0.1-0.2,0.2c-0.1,0.1-0.1,0.2-0.1,0.3c0,0.1,0,0.2,0,0.3
					c0,0.1,0.1,0.2,0.2,0.2c0.1,0,0.1,0.1,0.2,0.1c0.1,0,0.1,0,0.2-0.1l0,0.1c-0.1,0.1-0.2,0.1-0.3,0.1
					C31.9,17.2,31.8,17.2,31.7,17.1z M32.2,17.5l-0.2-0.4l0.2-0.3l-0.1-0.2l0,0l0.5,0.4l0,0l-0.2,0L32.2,17.5L32.2,17.5z"/>
				<path class="st4" d="M34.3,17.5l0-0.2l0,0l0.4,0.4l0,0l-0.2,0L34,18.2c-0.1,0.1-0.2,0.1-0.3,0.2c-0.1,0-0.2,0-0.3,0
					c-0.1,0-0.2-0.1-0.3-0.2c-0.2-0.1-0.3-0.3-0.3-0.4c0-0.2,0-0.3,0.2-0.4l0.5-0.6l0-0.2l0,0l0.5,0.5l0,0l-0.2,0l-0.5,0.5
					c-0.1,0.1-0.1,0.2-0.2,0.3c0,0.1,0,0.2,0.1,0.3c0.1,0.1,0.2,0.1,0.3,0.1c0.1,0,0.2-0.1,0.3-0.2L34.3,17.5z"/>
				<path class="st4" d="M33.8,18.8L33.8,18.8l0.3,0L33.8,18.8l1.6-0.5l0.2,0.2L34.9,20l0.1-0.2l0,0.2l0,0l-0.5-0.5l0,0l0.3,0
					l-0.1,0.1l0.6-1.3l0.1,0.1L34.1,19l0.1-0.1l0,0.3l0,0L33.8,18.8z M34.4,18.8L34.4,18.8l0.7,0.5l-0.1,0.1L34.4,18.8z M35.2,18.4
					l0-0.3l0,0l0.2,0.2L35.2,18.4z"/>
				<path class="st4" d="M35.1,20.2L35.1,20.2l0.2,0l0.9-0.6l0.1-0.3l0,0l0.1,0.2l-1,0.9l0,0.2l0,0L35.1,20.2z M35.8,21.2l0.4-1.5
					l0.2-0.2l0.1,0.2l-0.4,1.4l-0.1,0l0.8-0.7l0-0.2l0,0l0.3,0.4l0,0l-0.2,0l-1.1,0.8L35.8,21.2z"/>
				<path class="st4" d="M36.1,21.6L36.1,21.6l0.3,0L36.1,21.6l1.6-0.1l0.1,0.2L36.9,23l0.1-0.2L36.9,23l0,0l-0.3-0.6l0,0l0.3,0.1
					l-0.2,0.1l0.8-1.1l0,0.1l-1.3,0.3l0.2-0.1l0,0.3l0,0L36.1,21.6z M36.6,21.7l0.1-0.1l0.4,0.7l-0.1,0.1L36.6,21.7z M37.5,21.5
					l0.1-0.2l0,0l0.1,0.2L37.5,21.5z"/>
				<path class="st4" d="M37.2,23.7c0-0.1,0-0.1-0.1-0.2c0-0.1,0-0.1,0-0.2c0-0.1,0-0.1,0.1-0.2l0.3,0l0,0l-0.3,0.4l-0.1-0.2
					l0.3-0.1c-0.1,0.1-0.1,0.1-0.2,0.2c0,0.1,0,0.1,0,0.2c0,0.1,0.1,0.1,0.1,0.1c0.1,0,0.1,0,0.2,0l0.8-0.4l0.1-0.2l0,0l0.3,0.6l0,0
					l-0.2-0.1L37.9,24c-0.2,0.1-0.3,0.1-0.4,0C37.4,24,37.3,23.9,37.2,23.7z"/>
				<path class="st4" d="M39.2,25.4l0.1-0.2l0,0l0.2,0.5l0,0l-0.2-0.1l-0.7,0.2c-0.1,0-0.2,0-0.3,0c-0.1,0-0.2-0.1-0.3-0.1
					c-0.1-0.1-0.1-0.2-0.2-0.3c-0.1-0.2-0.1-0.4,0-0.5c0.1-0.1,0.2-0.2,0.4-0.3l0.7-0.2l0.1-0.2l0,0l0.2,0.7l0,0L39,24.7L38.4,25
					c-0.1,0-0.2,0.1-0.3,0.2c-0.1,0.1-0.1,0.2,0,0.3c0,0.1,0.1,0.2,0.2,0.2c0.1,0,0.2,0,0.3,0L39.2,25.4z"/>
				<path class="st4" d="M38.1,26.2L38.1,26.2l0.3,0.1L38.1,26.2l1.6,0.4l0.1,0.2l-1.3,0.9l0.2-0.2l-0.1,0.2l0,0l-0.1-0.7l0,0
					l0.2,0.2l-0.2,0.1l1.1-0.8l0,0.1l-1.3-0.1l0.2,0l-0.1,0.2l0,0L38.1,26.2z M38.6,26.5l0.1,0l0.2,0.8l-0.1,0L38.6,26.5z
					 M39.5,26.6l0.1-0.2l0,0l0.1,0.3L39.5,26.6z"/>
				<path class="st4" d="M38.5,28.3L38.5,28.3l0.2,0.1l1.2-0.1l0,0.2l-0.1-0.6l0.2,0l0.2,1.3l-0.2,0l0-0.6l0.1,0.2l-1.2,0.1L38.7,29
					l0,0L38.5,28.3z M39.6,27.8l0.4,0l0,0l0,0.3l-0.1,0L39.6,27.8L39.6,27.8z M39.7,29.2l0.3-0.4l0.1,0l0.1,0.3l0,0L39.7,29.2
					L39.7,29.2z"/>
				<path class="st4" d="M38.7,30.4c0-0.2,0-0.3,0.1-0.4c0.1-0.1,0.2-0.2,0.3-0.3c0.1-0.1,0.3-0.1,0.4-0.1c0.2,0,0.3,0,0.4,0.1
					c0.1,0.1,0.2,0.2,0.3,0.3c0.1,0.1,0.1,0.3,0.1,0.4c0,0.2,0,0.3-0.1,0.4c-0.1,0.1-0.2,0.2-0.3,0.3c-0.1,0.1-0.3,0.1-0.4,0.1
					c-0.2,0-0.3,0-0.4-0.1c-0.1-0.1-0.2-0.2-0.3-0.3C38.7,30.7,38.7,30.6,38.7,30.4z M38.8,30.4c0,0.1,0,0.1,0.1,0.2
					c0,0.1,0.1,0.1,0.2,0.1c0.1,0,0.2,0,0.3,0c0.1,0,0.3,0,0.4-0.1c0.1,0,0.2-0.1,0.2-0.1c0.1-0.1,0.1-0.1,0.1-0.2
					c0-0.1,0-0.2-0.1-0.2c0-0.1-0.1-0.1-0.2-0.1c-0.1,0-0.2,0-0.3,0c-0.1,0-0.3,0-0.4,0.1c-0.1,0-0.2,0.1-0.2,0.1
					C38.8,30.3,38.8,30.4,38.8,30.4z"/>
			</g>
			<g>
				<path class="st4" d="M8.9,42.3L8.9,42.3l0.4-0.1c0.2,0,0.3,0,0.4,0c0.1,0,0.2,0,0.3,0c0.1,0,0.1,0,0.2-0.1
					c0.1-0.1,0.1-0.1,0.1-0.2c0-0.1,0-0.1-0.1-0.2c0,0-0.1-0.1-0.1-0.1c-0.1,0-0.1,0-0.2,0l0.2-0.1l0.2,0.2l-0.4,0.1l0,0l0.1-0.3
					c0.1,0,0.1,0,0.2,0.1c0.1,0,0.1,0.1,0.2,0.1c0,0,0.1,0.1,0.1,0.1c0.1,0.1,0.2,0.3,0.2,0.4c0,0.1,0,0.2-0.1,0.3
					c0,0-0.1,0.1-0.1,0.1c-0.1,0-0.1,0-0.2,0c-0.1,0-0.2,0-0.3,0c-0.1,0-0.3-0.1-0.4-0.1l-0.1,0l0.1,0l0.4,0.5l0.3,0l0,0l-0.4,0.3
					L8.9,42.3z"/>
				<path class="st4" d="M10.8,44.3c-0.1-0.1-0.2-0.2-0.2-0.3c0-0.1,0-0.2,0-0.3c0-0.1,0.1-0.2,0.2-0.3c0.1-0.1,0.2-0.2,0.3-0.3
					c0.1-0.1,0.2-0.1,0.4,0c0.1,0,0.2,0.1,0.3,0.2c0.1,0.1,0.2,0.2,0.2,0.3c0,0.1,0,0.2,0,0.3c0,0.1-0.1,0.2-0.2,0.3
					c-0.1,0.1-0.2,0.2-0.3,0.3c-0.1,0.1-0.2,0.1-0.4,0C11.1,44.4,11,44.4,10.8,44.3z M10.9,44.2c0,0,0.1,0.1,0.2,0.1
					c0.1,0,0.1,0,0.2-0.1c0.1-0.1,0.2-0.1,0.2-0.2c0.1-0.2,0.2-0.3,0.3-0.4c0-0.1,0-0.2-0.1-0.3c0,0-0.1-0.1-0.2-0.1
					c-0.1,0-0.1,0-0.2,0.1c-0.1,0.1-0.2,0.1-0.2,0.2c-0.1,0.2-0.2,0.3-0.3,0.4C10.8,44,10.9,44.1,10.9,44.2z"/>
				<path class="st4" d="M12.1,45.3L12.1,45.3l0.3-0.1c0.2,0,0.3-0.1,0.4-0.1c0.1,0,0.2-0.1,0.3-0.1c0.1,0,0.1-0.1,0.1-0.1
					c0.1-0.1,0.1-0.1,0.1-0.2c0-0.1,0-0.1-0.1-0.2c0,0-0.1,0-0.1-0.1c-0.1,0-0.1,0-0.2,0l0.1-0.2l0.2,0.1l-0.4,0.2l0,0l0-0.3
					c0.1,0,0.1,0,0.2,0c0.1,0,0.1,0,0.2,0.1c0.1,0,0.1,0.1,0.2,0.1c0.2,0.1,0.3,0.2,0.3,0.3c0.1,0.1,0,0.2,0,0.3
					c0,0-0.1,0.1-0.1,0.1c-0.1,0-0.1,0.1-0.2,0.1c-0.1,0-0.2,0-0.3,0c-0.1,0-0.3,0-0.4,0l-0.1,0l0.1,0l0.5,0.4l0.3-0.1l0,0L13,45.9
					L12.1,45.3z"/>
				<path class="st4" d="M14,46.1L14,46.1l1-0.7l0.4,0.2l0,0L14,46.1L14,46.1L14,46.1z M14,46.1l0.1-0.1l1.1,0.6l-0.1,0.1L14,46.1z
					 M14.3,46.6L14.3,46.6l0.3-0.1l0.3-0.5l0.1,0l0.3,0.1l-0.3,0.6l0.1,0.2l0,0L14.3,46.6z"/>
			</g>
			<g>
				<path class="st4" d="M30.1,46.7L30.1,46.7l0-0.4c0.1-0.2,0.1-0.3,0.1-0.4c0-0.1,0-0.2,0-0.3c0-0.1,0-0.1,0-0.2
					c0-0.1-0.1-0.1-0.2-0.2c-0.1,0-0.1,0-0.2,0c0,0-0.1,0.1-0.1,0.1c0,0,0,0.1,0,0.1l-0.1-0.2l0.2-0.1l-0.1,0.4l0,0l-0.3-0.2
					c0-0.1,0.1-0.1,0.1-0.1c0,0,0.1-0.1,0.1-0.1c0,0,0.1-0.1,0.2-0.1c0.2-0.1,0.3-0.1,0.4-0.1c0.1,0,0.2,0.1,0.3,0.2
					c0,0,0,0.1,0,0.2c0,0.1,0,0.1,0,0.2c0,0.1-0.1,0.2-0.1,0.3c0,0.1-0.1,0.3-0.2,0.4l-0.1,0.1l0-0.1l0.6-0.3l0.1-0.3l0,0l0.2,0.4
					L30.1,46.7z"/>
				<path class="st4" d="M32.6,45.3c-0.1,0.1-0.2,0.1-0.3,0.1c-0.1,0-0.2,0-0.3-0.1c-0.1-0.1-0.2-0.1-0.3-0.3
					c-0.1-0.1-0.1-0.3-0.2-0.4c0-0.1,0-0.2,0-0.4c0-0.1,0.1-0.2,0.2-0.3c0.1-0.1,0.2-0.1,0.3-0.1c0.1,0,0.2,0,0.3,0.1
					c0.1,0.1,0.2,0.1,0.3,0.3c0.1,0.1,0.1,0.3,0.2,0.4c0,0.1,0,0.2,0,0.4C32.8,45.1,32.7,45.2,32.6,45.3z M32.5,45.2
					c0.1,0,0.1-0.1,0.1-0.1c0-0.1,0-0.1,0-0.2c0-0.1-0.1-0.2-0.2-0.3c-0.1-0.2-0.2-0.3-0.3-0.4c-0.1-0.1-0.2-0.1-0.3,0
					c-0.1,0-0.1,0.1-0.1,0.1c0,0.1,0,0.1,0,0.2c0,0.1,0.1,0.2,0.2,0.3c0.1,0.2,0.2,0.3,0.3,0.4C32.3,45.2,32.4,45.2,32.5,45.2z"/>
				<path class="st4" d="M33.6,43.4L33.6,43.4c0-0.1,0-0.1,0.1-0.2c0,0,0-0.1,0-0.1c0,0,0-0.1-0.1-0.1c0,0-0.1-0.1-0.2-0.1
					c-0.1,0-0.1,0-0.2,0.1c0,0-0.1,0.1-0.1,0.1c0,0,0,0.1,0,0.2L33,43.1l0.2-0.2l0.1,0.5l0,0l-0.3-0.1c0-0.1,0.1-0.2,0.1-0.3
					c0.1-0.1,0.1-0.2,0.2-0.2c0.1-0.1,0.2-0.1,0.3-0.2c0.1,0,0.2-0.1,0.2,0c0.1,0,0.1,0,0.2,0.1c0.1,0.1,0.1,0.2,0,0.3
					C33.9,43.1,33.8,43.3,33.6,43.4z M34.2,44c-0.1,0.1-0.2,0.1-0.3,0.2c-0.1,0-0.2,0.1-0.3,0.1l-0.1-0.3l0,0l0.5,0.1l-0.2,0.2
					L33.8,44c0.1,0,0.1,0,0.2,0c0.1,0,0.1,0,0.2-0.1c0,0,0.1-0.1,0.1-0.1c0,0,0-0.1,0-0.1c0-0.1,0-0.1-0.1-0.1c0,0-0.1-0.1-0.1-0.1
					c-0.1,0-0.1,0-0.2,0s-0.1,0-0.2,0.1l-0.1-0.1c0.2-0.2,0.3-0.3,0.5-0.3c0.1,0,0.2,0,0.3,0.1c0.1,0.1,0.1,0.1,0.1,0.2
					c0,0.1,0,0.2-0.1,0.3C34.4,43.8,34.3,43.9,34.2,44z M33.8,43.3L33.8,43.3l0-0.1L33.8,43.3L33.8,43.3z"/>
				<path class="st4" d="M35.9,42.3c-0.1,0.1-0.2,0.2-0.3,0.2c-0.1,0-0.2,0-0.3,0c-0.1,0-0.2-0.1-0.3-0.2c-0.1-0.1-0.2-0.2-0.3-0.3
					c-0.1-0.1-0.1-0.2,0-0.4c0-0.1,0.1-0.2,0.2-0.3c0.1-0.1,0.2-0.2,0.3-0.2c0.1,0,0.2,0,0.3,0c0.1,0,0.2,0.1,0.3,0.2
					c0.1,0.1,0.2,0.2,0.3,0.3c0.1,0.1,0.1,0.2,0,0.4C36,42.1,36,42.2,35.9,42.3z M35.8,42.2c0,0,0.1-0.1,0.1-0.2
					c0-0.1,0-0.1-0.1-0.2c-0.1-0.1-0.1-0.2-0.2-0.2c-0.2-0.1-0.3-0.2-0.4-0.3c-0.1,0-0.2,0-0.3,0.1c0,0-0.1,0.1-0.1,0.2
					c0,0.1,0,0.1,0.1,0.2c0.1,0.1,0.1,0.2,0.2,0.2c0.2,0.1,0.3,0.2,0.4,0.3C35.6,42.3,35.7,42.3,35.8,42.2z"/>
			</g>
			<g>
				<path class="st0" d="M23,40.8c0,0-1.5,4.3,1,9.2l0.9-0.1c0,0-1.2-1.5-1.8-4.4C23.2,45.4,22.6,42.4,23,40.8z"/>
				<path class="st0" d="M25.5,31.8c-1.7-0.7-2.6-1.2-2.6-1.2c0.1,0.2,1,0.8,1.9,1.1c0.8,0.4,1.6,1,1.6,1c1.3,1.1,1,2.2,1,2.2
					C27.9,33.7,27.2,32.5,25.5,31.8z"/>
				<path class="st0" d="M35.8,23.1c-0.1-0.3-0.3-0.2-0.3-0.2L35.2,23l-1.4,0.4l0.4-1.8c0,0,0.1-0.3,0.1-0.5c0-0.2-0.2-0.5-0.7-0.9
					c-0.4-0.4-0.6-0.5-0.6-0.5L32.9,20l-0.9,3.9l-3.6,1.2c0,0-0.6,0.2-1,0.7c-0.3,0.5-0.4,0.7-0.3,0.8c0,0,0,0.1,0.5-0.1
					c0.4-0.1,4.2-1.1,4.2-1.1l-2,9.1c-0.1-0.2-0.2-0.4-0.2-0.6c-0.2-0.6-0.7-2.5-1.8-3.7c-0.6-0.6-1-0.9-1.3-1.1
					c-0.2-0.4-0.5-0.8-0.7-1.1c-0.4-0.5-0.5-0.8-0.6-1.5c-0.1-0.7,0-1.3-0.2-2.3c-0.1-0.3-0.2-0.6-0.3-0.8c-0.2-0.4-0.3-0.6-0.3-0.6
					c-0.6-0.8-1.6-1-1.6-1c1,0,1.6,0.8,1.6,0.8s0,0,0,0c0-0.1-0.2-0.5-0.7-0.8c-0.6-0.4-1.3-0.4-1.3-0.4c-2,0.1-2.3,1.9-2.4,2.6
					s-0.4,1.7-0.4,2.5c0,0.8-0.4,1.3-0.4,1.3c-0.6,0.7-0.8,1.7-0.8,1.7s-0.3,0.3-1,1c-0.6,0.7-1.9,2.5-2.1,2.8
					c0-0.1-0.1-0.6-0.4-1.1c0,0-0.4-0.9-0.8-1.5c-0.3-0.6-1-2.1-1.1-2.3c-0.1-0.2-0.3-0.7-0.2-1.1c0,0,0.1-0.3,0.1-0.4
					c0-0.1,0-0.2,0-0.2s0.1-0.2,0-0.3c0,0,0.1-0.2,0-0.5c0,0,0.1,0,0.1-0.2c0-0.2-0.2-0.3-0.2-0.3s-0.2-0.1-0.3-0.2
					c0,0,0.7-0.4,0.9-1.1c0.2-0.6,0.2-0.8,0.2-0.8s0.1,0,0.1,0c0,0,0.1-0.2,0-0.2c-0.1-0.1-0.4-0.2-0.7-0.2c0.7-0.3,1.1-1,1.1-1.8
					c0-0.3-0.1-0.7-0.2-0.9c-0.1-0.1-0.1-0.2-0.2-0.3c-0.4-0.4-0.9-0.7-1.5-0.7c0,0,0,0,0,0c0,0-0.1,0-0.1,0c0,0,0,0,0,0
					c-1.9,0.2-1.9,1.9-1.9,1.9s0,0.2,0.1,0.4c0.1,0.6,0.4,1,0.9,1.3c-0.2,0-0.6,0.1-0.7,0.2c0,0,0,0.2,0,0.2c0.1,0,0.1,0,0.1,0
					s0,0.7,0.2,1.2c0.3,0.6,0.7,0.8,0.7,0.8s-0.2,0-0.4,0.1c-0.1,0.1-0.1,0.2-0.1,0.3s0,0.1,0,0.1c0,0-0.1,0.2,0,0.4
					c0,0,0,0.1,0,0.1c0,0.1,0,0.2,0,0.3c0,0.1,0.1,0.2,0,0.3c0,0,0,0.3,0.1,0.5c0.1,0.2,0.4,0.4,0.6,1.4c0.2,1,0.6,2.7,0.6,2.7
					s0.2,1.4,0.3,1.7c0,0.2,0.4,1.4,0.5,1.9c0,0,0,0,0,0.1c0.2,0.5,0.6,1.7,1.9,1.1c1.3-0.6,3-2.1,3-2.1c-0.2-0.5,0-1.9,0-1.9
					s0,0.8,0.3,1.8c0.2,1,1.2,2.1,1.5,3.3c0.3,1.2-0.4,1.2-1.2,3.8c-0.8,2.6-1.1,4.6-1.1,4.6c-0.1,1.3,0,3.4,0,3.4l0,0.5
					c0,0,1.7,0.6,5,0.5c0,0,0-0.1-0.1-0.2c-0.2-0.6-0.6-2.4-0.7-3.7c-0.1-1.4-0.2-2.8,0.1-4.4c0.3-1.7,1.3-3,1.7-3.4
					c0.4-0.4,1-1,0.8-2c-0.2-1-1-1.4-2.3-2.1c-1.3-0.7-1.8-1.2-1.8-1.2c-1.3-1.1-1-2.7-1-2.7c-0.1,1.6,2.2,3,3.6,3.5
					c1.4,0.5,2,1.2,2,1.2c1.4,1.3,0.9,2.5,0.7,2.8c0,0,0,0,0,0c0.9-0.8,1.4-2.1,1-3.2c-0.4-1.1-1.1-1.5-2.8-2.5
					c-1.8-1-2.5-2.3-2.5-2.3c-0.4-0.6-0.4-0.9-0.4-1.3c0-0.3,0-0.8,0.5-1.1c0.5-0.3,0.7-0.3,0.9-0.4c0.3-0.1,1.1-0.6,1.1-0.6
					s-0.2,0-0.4,0c-0.2,0-0.3-0.2-0.7-0.3c-0.4-0.1-1,0.2-1.2,0.3c-0.2,0.1-0.3-0.2-0.3-0.4c0-0.1-0.3-0.6-0.4-0.9
					c-0.1-0.3-0.1-0.4,0-0.6c0.1-0.2,0.5-0.5,0.8-0.6c0.3-0.1,0.4,0,0.4,0.1c0,0.2,0,0.4,0,0.5c0,0.1,0,0.1,0.1,0.1
					c0.1,0,0.2-0.2,0.2-0.3c0-0.1,0-0.8,0-0.8c-0.7,0-1.1,0.3-1.3,0.4c-0.2,0.1-0.5,0.3-0.4,0.1c0.1-0.2,0.5-0.5,0.5-0.5
					c-0.4,0.2-0.6,0.5-0.7,0.5c-0.1,0-0.1,0,0.1-0.3c0.2-0.2,0.6-0.4,0.6-0.4s-0.1,0-0.3,0.2c-0.2,0.2-0.5,0.3-0.5,0.3
					c0-0.1,0.1-0.2,0.1-0.2c0.3-0.5,1.1-1.1,2.2-1c1.1,0.1,1.8,1,1.8,1.2c0,0.1-0.1,0.1-0.2-0.1c-0.2-0.1-0.5-0.3-0.5-0.3
					c0.3,0.2,0.8,0.7,0.8,0.7c0,0.1,0,0.2-0.1,0c-0.1-0.2-0.4-0.3-0.4-0.3c0.2,0.2,0.4,0.5,0.4,0.6c0,0.1-0.1,0-0.2,0
					c-0.1-0.1-0.3-0.3-0.3-0.3c-0.7-0.5-1.5-0.5-1.5-0.5s0,0.2,0.1,0.4c0.2,0.3,0.5,0.2,0.5,0.1s0.1-0.2,0.4,0
					c0.3,0.2,0.6,0.6,0.6,0.6s0,0.4,0,0.7c0,0.3-0.1,1.4-0.8,1.7c-0.7,0.3-0.6,0.5-0.6,0.5c0.4,0,1-0.2,1-0.2s-0.1,0.5,0.3,1.2
					c0.4,0.7,0.9,0.9,0.9,0.9c0.6,0.1,1.1,0.3,1.5,0.4c0.1,0,0.1,0.1,0.2,0.1c0.3,0.2,0.8,0.6,1.2,1.3c-0.2-0.2-0.4-0.4-0.6-0.5
					c-1.1-0.8-2.6-1-4.1-1.2c-1.5-0.2-1.7-0.9-1.7-1c0.2,0.8,0.7,1.1,1.1,1.3c0.4,0.2,1.1,0.4,3,1.1c1.9,0.7,2.4,1.8,2.4,1.8
					c0.4,0.9,0.3,1.7,0.1,2.2c-0.3,0.7-0.7,1.2-0.7,1.2c0.4-0.4,0.7-0.8,0.8-1c0.5,0.9,1,1.6,1.3,1.8l-0.8,3.5c0,0-0.9-1.7-2.6-2.9
					c0,0,0,0,0,0c0.2,0.1,0.5,0.4,1,1c0.5,0.7,1.1,1.9,1.3,2.5c0.1,0.2,0.2,0.5,0.2,0.7c0.2,0.7,0.2,1.9,0.4,3.4
					c0.1,0.6,0.1,0.9,0.1,1.3l1.2-4.4l2-10.4c0.2-0.2,0.5-0.7,0.6-1c0.2-0.4,0-0.4,0-0.7s0.1-0.3-0.1-0.4c-0.1,0-0.1-0.1-0.1-0.1
					l0.9-4.9l2.3-0.7l0.2,0c0,0,0.2-0.1,0.2-0.2C36.2,23.7,35.9,23.3,35.8,23.1z M12.6,22.4c-0.1,0-0.2,0-0.3,0
					c0.7-0.1,1.3-0.6,1.3-1.3c0-0.6-0.5-1.2-1.1-1.3c0,0,0.1,0,0.1,0c0.8,0,1.4,0.6,1.4,1.3S13.3,22.4,12.6,22.4z"/>
			</g>
		</g>
	</g>
	<g>
		<g>
			<path class="st0" d="M26,11.3c2.3,0,5.1,1.1,5.1,1.1l4.8-7c-2.4-1.1-4.5,0.4-4.5,0.4c0.7,0.3,1.1,1.8,0,2.9
				c-1.1,1.1-2.5,1-3.6,0.8c-1.1-0.3-3.1-1.2-3.5-3.2c-0.5-2.7,1.9-2.6,1.9-2.6c-1-1.3-2.3-0.3-2.3-0.3c0.1-1.7-1.4-2.8-1.5-2.9l0,0
				l0,0c-0.1,0-1.6,1.3-1.4,2.9c0,0-1.4-1-2.3,0.3c0,0,2.5,0,1.9,2.7c-0.4,1.9-2.3,2.8-3.4,3.1c-1.1,0.3-2.7,0.4-3.7-0.8
				c-1-1.1-0.3-2.3,0-2.9c0,0-2-1.5-4.5-0.4l4.8,7c0,0,2.6-1,4.8-1.1C9.5,13,2.7,21,2.7,30.4c0,10.8,8.7,19.5,19.4,19.5l0.6,0
				c-0.6-1.6-0.8-4.6-0.8-4.6l-0.8,0c-7.7-0.6-13.8-7-13.8-14.9c0-8.3,6.7-15,15-15c8.3,0,15,6.7,15,15c0,5.6-3.1,10.5-7.7,13.1
				l-0.2,0.1l-1,0.5c0,0,0.3,3.7,0.2,4.8c7.7-2.6,13.3-9.9,13.3-18.5C41.8,20.9,35,13,26,11.3z M23.6,9.4c-1.1-0.2-2.1-0.1-2.5,0
				c-0.1,0-0.1,0-0.2,0c0,0,1.1-0.6,1.5-1.8c0.4,1.2,1.5,1.8,1.5,1.8C23.8,9.4,23.7,9.4,23.6,9.4z"/>
			<path class="st0" d="M25.5,7.4c1.6,1.5,3.4,1.6,3.4,1.6c-1.1-1-0.3-2.5-0.3-2.5l-1-0.5C26.6,7.5,25.5,7.4,25.5,7.4z"/>
			<path class="st0" d="M19.1,7.4c-1.6,1.5-3.4,1.6-3.4,1.6c1.1-1,0.3-2.5,0.3-2.5L17,6C18,7.5,19.1,7.4,19.1,7.4z"/>
			<ellipse class="st2" cx="22.2" cy="30.5" rx="15" ry="14.9"/>
			<g>
				<defs>
					<ellipse id="SVGID_00000046297689560975079620000009011293817800621232_" cx="22.2" cy="30.5" rx="14.9" ry="14.9"/>
				</defs>
				<clipPath id="SVGID_00000009585100976161093380000005090904884959833223_">
					<use xlink:href="#SVGID_00000046297689560975079620000009011293817800621232_"  style="overflow:visible;"/>
				</clipPath>
				<g style="clip-path:url(#SVGID_00000009585100976161093380000005090904884959833223_);">
					<path class="st4" d="M11.5,19.7c0,0-0.1,0-0.1-0.1l-17.1-28c0-0.1,0-0.1,0-0.2c0.1,0,0.1,0,0.2,0l17.1,28
						C11.6,19.5,11.6,19.6,11.5,19.7C11.5,19.7,11.5,19.7,11.5,19.7z"/>
					<path class="st4" d="M11.8,19.5c-0.1,0-0.1,0-0.1-0.1L1.7-8.2c0-0.1,0-0.1,0.1-0.2c0.1,0,0.1,0,0.2,0.1l10,27.6
						C12,19.4,11.9,19.5,11.8,19.5C11.9,19.5,11.9,19.5,11.8,19.5z"/>
					<path class="st4" d="M12.2,19.4c-0.1,0-0.1,0-0.2-0.1L8.3-8.1c0-0.1,0-0.1,0.1-0.2c0.1,0,0.1,0,0.2,0.1l3.8,27.4
						C12.3,19.3,12.3,19.4,12.2,19.4z"/>
					<path class="st4" d="M12.6,19.4C12.5,19.4,12.5,19.4,12.6,19.4c-0.1,0-0.2-0.1-0.2-0.1l1.9-27.7c0-0.1,0.1-0.1,0.1-0.1
						c0.1,0,0.1,0.1,0.1,0.1l-1.9,27.7C12.7,19.3,12.6,19.4,12.6,19.4z"/>
					<path class="st4" d="M12.9,19.4C12.9,19.4,12.9,19.4,12.9,19.4c-0.1,0-0.2-0.1-0.1-0.2l8.1-28.1c0-0.1,0.1-0.1,0.2-0.1
						c0.1,0,0.1,0.1,0.1,0.2L13,19.3C13,19.4,13,19.4,12.9,19.4z"/>
					<path class="st4" d="M13.3,19.6C13.2,19.6,13.2,19.6,13.3,19.6c-0.1,0-0.2-0.1-0.1-0.2L28.5-9.8c0-0.1,0.1-0.1,0.2-0.1
						c0.1,0,0.1,0.1,0.1,0.2L13.3,19.6C13.4,19.5,13.3,19.6,13.3,19.6z"/>
					<path class="st4" d="M13.6,19.8c0,0-0.1,0-0.1,0c-0.1,0-0.1-0.1,0-0.2L38-10c0-0.1,0.1-0.1,0.2,0c0.1,0,0.1,0.1,0,0.2
						L13.6,19.8C13.7,19.8,13.6,19.8,13.6,19.8z"/>
					<path class="st4" d="M13.9,20c0,0-0.1,0-0.1,0c0-0.1,0-0.1,0-0.2L51.4-9.7c0.1,0,0.1,0,0.2,0c0,0.1,0,0.1,0,0.2L13.9,20
						C13.9,20,13.9,20,13.9,20z"/>
					<path class="st4" d="M14.1,20.4c-0.1,0-0.1,0-0.1-0.1c0-0.1,0-0.1,0.1-0.2l50.7-25c0.1,0,0.1,0,0.2,0.1c0,0.1,0,0.1-0.1,0.2
						L14.1,20.4C14.1,20.3,14.1,20.4,14.1,20.4z"/>
					<path class="st4" d="M14.2,20.7c-0.1,0-0.1,0-0.1-0.1c0-0.1,0-0.1,0.1-0.2L65.5,6.9c0.1,0,0.1,0,0.2,0.1c0,0.1,0,0.1-0.1,0.2
						L14.2,20.7C14.2,20.7,14.2,20.7,14.2,20.7z"/>
					<path class="st4" d="M11.2,19.9c0,0-0.1,0-0.1,0L-14.3-6.9c-0.1-0.1-0.1-0.1,0-0.2c0.1-0.1,0.1-0.1,0.2,0l25.4,26.8
						C11.3,19.7,11.3,19.8,11.2,19.9C11.3,19.9,11.2,19.9,11.2,19.9z"/>
					<path class="st4" d="M11,20.2C10.9,20.2,10.9,20.2,11,20.2L-26.7-5.4c-0.1,0-0.1-0.1,0-0.2c0-0.1,0.1-0.1,0.2,0L11,20
						C11.1,20,11.1,20.1,11,20.2C11,20.2,11,20.2,11,20.2z"/>
					<path class="st4" d="M10.8,20.5C10.8,20.5,10.8,20.5,10.8,20.5l-39.1-15c-0.1,0-0.1-0.1-0.1-0.2c0-0.1,0.1-0.1,0.2-0.1l39,15
						c0.1,0,0.1,0.1,0.1,0.2C10.9,20.5,10.9,20.5,10.8,20.5z"/>
					<path class="st4" d="M10.7,20.9C10.7,20.9,10.7,20.9,10.7,20.9l-38.6-6.4c-0.1,0-0.1-0.1-0.1-0.2s0.1-0.1,0.2-0.1l38.6,6.4
						c0.1,0,0.1,0.1,0.1,0.2C10.8,20.8,10.8,20.9,10.7,20.9z"/>
					<path class="st4" d="M10.7,21.2C10.7,21.2,10.7,21.2,10.7,21.2l-38.3,1.8c-0.1,0-0.1-0.1-0.1-0.1c0-0.1,0.1-0.1,0.1-0.1
						L10.7,21c0.1,0,0.1,0.1,0.1,0.1C10.8,21.2,10.8,21.2,10.7,21.2z"/>
					<path class="st4" d="M-26.5,31.5c-0.1,0-0.1,0-0.1-0.1c0-0.1,0-0.1,0.1-0.2l37.2-9.9c0.1,0,0.1,0,0.2,0.1c0,0.1,0,0.1-0.1,0.2
						L-26.5,31.5C-26.5,31.5-26.5,31.5-26.5,31.5z"/>
					<path class="st4" d="M-25.6,40.8c-0.1,0-0.1,0-0.1-0.1c0-0.1,0-0.1,0.1-0.2l36.5-18.8c0.1,0,0.1,0,0.2,0.1c0,0.1,0,0.1-0.1,0.2
						L-25.6,40.8C-25.6,40.7-25.6,40.8-25.6,40.8z"/>
					<path class="st4" d="M-24.1,51.4c0,0-0.1,0-0.1,0c0-0.1,0-0.1,0-0.2c0,0,30.7-25.5,35.1-29.1c0.1,0,0.1,0,0.2,0
						c0,0.1,0,0.1,0,0.2C6.7,25.8-24,51.3-24.1,51.4C-24,51.4-24,51.4-24.1,51.4z"/>
					<path class="st4" d="M-16.9,57.8c0,0-0.1,0-0.1,0c-0.1,0-0.1-0.1,0-0.2l28.2-35.2c0-0.1,0.1-0.1,0.2,0c0.1,0,0.1,0.1,0,0.2
						L-16.9,57.8C-16.8,57.7-16.9,57.8-16.9,57.8z"/>
					<path class="st4" d="M-5.7,57.7C-5.7,57.7-5.7,57.7-5.7,57.7c-0.1,0-0.2-0.1-0.1-0.2l17.3-34.9c0-0.1,0.1-0.1,0.2-0.1
						c0.1,0,0.1,0.1,0.1,0.2L-5.7,57.7C-5.6,57.6-5.6,57.7-5.7,57.7z"/>
					<path class="st4" d="M2.9,57C2.9,57,2.9,57,2.9,57c-0.1,0-0.2-0.1-0.1-0.2l9.1-34.2c0-0.1,0.1-0.1,0.2-0.1
						c0.1,0,0.1,0.1,0.1,0.2L3,56.9C3,57,2.9,57,2.9,57z"/>
					<path class="st4" d="M10.3,57.3C10.3,57.3,10.3,57.3,10.3,57.3c-0.1,0-0.2-0.1-0.2-0.1l2-34.3c0-0.1,0.1-0.1,0.1-0.1
						c0.1,0,0.1,0.1,0.1,0.1l-2,34.3C10.4,57.2,10.4,57.3,10.3,57.3z"/>
					<path class="st4" d="M17.8,57C17.8,57,17.8,57,17.8,57c-0.1,0-0.1,0-0.2-0.1l-5.1-34.1c0-0.1,0-0.1,0.1-0.1
						c0.1,0,0.1,0,0.1,0.1l5.1,34.1C17.9,56.9,17.9,57,17.8,57z"/>
					<path class="st4" d="M25.3,55.9c-0.1,0-0.1,0-0.1-0.1L12.9,22.8c0-0.1,0-0.1,0.1-0.2c0.1,0,0.1,0,0.2,0.1l12.2,33.1
						C25.4,55.8,25.4,55.9,25.3,55.9C25.3,55.9,25.3,55.9,25.3,55.9z"/>
					<path class="st4" d="M34.1,55.5c0,0-0.1,0-0.1-0.1L13.3,22.6c0-0.1,0-0.1,0-0.2c0.1,0,0.1,0,0.2,0l20.6,32.8
						C34.2,55.3,34.2,55.4,34.1,55.5C34.1,55.4,34.1,55.4,34.1,55.5z"/>
					<path class="st4" d="M45.3,54.6c0,0-0.1,0-0.1,0L13.6,22.4c-0.1-0.1-0.1-0.1,0-0.2c0.1-0.1,0.1-0.1,0.2,0l31.5,32.2
						C45.4,54.4,45.4,54.5,45.3,54.6C45.3,54.6,45.3,54.6,45.3,54.6z"/>
					<path class="st4" d="M59.9,51.9C59.8,51.9,59.8,51.9,59.9,51.9l-46-29.7c-0.1,0-0.1-0.1,0-0.2c0-0.1,0.1-0.1,0.2,0l45.9,29.7
						C60,51.7,60,51.7,59.9,51.9C59.9,51.8,59.9,51.8,59.9,51.9z"/>
					<path class="st4" d="M66.8,42.1C66.8,42.1,66.7,42.1,66.8,42.1L14.1,21.8c-0.1,0-0.1-0.1-0.1-0.2c0-0.1,0.1-0.1,0.2-0.1
						l52.6,20.3c0.1,0,0.1,0.1,0.1,0.2C66.9,42,66.8,42.1,66.8,42.1z"/>
					<path class="st4" d="M66.9,29.9C66.9,29.9,66.9,29.9,66.9,29.9l-52.7-8.5c-0.1,0-0.1-0.1-0.1-0.2c0-0.1,0.1-0.1,0.2-0.1
						l52.7,8.5c0.1,0,0.1,0.1,0.1,0.2C67,29.9,67,29.9,66.9,29.9z"/>
					<path class="st4" d="M65.9,18.2C65.9,18.2,65.9,18.2,65.9,18.2l-51.6,2.8c-0.1,0-0.1-0.1-0.1-0.1c0-0.1,0.1-0.1,0.1-0.1
						L65.8,18c0.1,0,0.1,0.1,0.1,0.1C66,18.2,65.9,18.2,65.9,18.2z"/>
				</g>
			</g>
			<path class="st5" d="M25.8,37.8C25.8,37.8,25.8,37.8,25.8,37.8c0,0,0,0.1,0.1,0.1c0,0,0,0,0,0c1.8,1.1,2.6,2.9,2.6,2.9l0.8-3.5
				c-0.3-0.2-1-1-1.4-1.9C27.6,35.9,26.9,37,25.8,37.8z"/>
			<polygon class="st5" points="25.7,37.8 25.7,37.8 25.7,37.8 			"/>
			<path class="st4" d="M12.8,19.7C12.8,19.7,12.8,19.7,12.8,19.7C12.8,19.7,12.8,19.7,12.8,19.7C12.8,19.7,12.8,19.7,12.8,19.7z"/>
			<path class="st4" d="M12.8,19.9C12.8,19.9,12.8,19.9,12.8,19.9C12.8,19.9,12.8,19.9,12.8,19.9z"/>
			<polygon class="st4" points="12.7,22 12.7,22 12.7,22 			"/>
			<g>
				<path class="st0" d="M25.7,37.8C25.7,37.8,25.7,37.8,25.7,37.8C25.7,37.8,25.7,37.8,25.7,37.8C25.8,37.8,25.8,37.8,25.7,37.8
					C25.8,37.8,25.7,37.8,25.7,37.8z"/>
			</g>
			<g>
				<path class="st0" d="M25.7,37.8C25.7,37.8,25.7,37.8,25.7,37.8C25.7,37.8,25.7,37.8,25.7,37.8C25.7,37.8,25.7,37.8,25.7,37.8z"
					/>
			</g>
			<g>
				<path class="st0" d="M29,45.4c0-1.5-0.4-2.6-0.5-3.3c-0.1-0.2-0.1-0.5-0.2-0.7c-0.3-0.6-0.8-1.8-1.3-2.5c-0.5-0.6-0.8-0.8-1-1
					c0.2,0.2,1.9,2.2,2.2,5.4c0,0,0.4,4.2,0.3,5.6l0.6-2.1C29,46.5,29,46,29,45.4z"/>
			</g>
			<g>
				<path class="st0" d="M12.8,19.7C12.8,19.7,12.8,19.7,12.8,19.7C12.8,19.7,12.8,19.7,12.8,19.7C12.8,19.7,12.8,19.7,12.8,19.7z"
					/>
			</g>
			<g>
				<path class="st0" d="M12.8,19.9C12.8,19.9,12.8,19.9,12.8,19.9C12.8,19.9,12.8,19.9,12.8,19.9z"/>
			</g>
			<g>
				<polygon class="st0" points="12.7,22 12.7,22 12.7,22 				"/>
			</g>
			<path class="st4" d="M12.2,19.2c0,0,1-0.1,1.6,0.6s0.6,1.6,0.3,2.1c-0.3,0.5-1,0.9-1,0.9l0.7,0.2c0,0,0,1.4-1.1,2.1
				c0,0,0.1,0.2,0.2,0.2c0.1,0.1,0.4,0.1,0.4,0.2c0,0.1-0.1,0.2-0.1,0.3s0.1,0.2,0,0.3c-0.1,0.1,0.1,0.3,0,0.4
				c-0.1,0.1-0.2,0.4-0.2,0.9c0,0.5,0,0.5,0.7,2c0.6,1.5,0.9,1.7,1.2,2.5c0.3,0.8,0.5,1.5,0.5,1.5s0.1,0.2,0.7-0.7
				c0.6-0.9,1.3-1.9,2-2.6c0.7-0.6,0.8-0.8,0.8-0.8s-0.1-0.5,0.4-1.3c0.5-0.8,0.7-1,0.7-1.7s0-0.9,0.1-1.6c0.1-0.8,0.3-1.9,1-2.7
				c0.8-0.8,1.7-0.6,2.4-0.4c0.7,0.2,1.2,0.9,1.5,2c0.2,1.1,0,2.4,0.3,3.4c0.3,1.1,0.6,1,0.9,1.6c0.3,0.6,0.4,0.4,0.6,0.6
				c0.2,0.2,1.1,0.8,1.5,1.6c0.4,0.8,0.9,1.9,1,2.5c0.1,0.5-1.2,1.6-1.2,1.6s-1.6,2.2-2.3,2.6c0,0,0.9,0.9,1.8,2.2
				c0.9,1.3,1.1,4.3,1.2,5c0.1,0.8,0.1,3.7,0.1,3.7L28.5,49c0,0-2.4,1-5.7,1l-0.5,0c0,0-0.5-1.7-0.6-3.4c-0.1-1.7-0.3-2.5,0-4.3
				c0.3-1.8,0.6-2.7,1.7-3.9c1.1-1.2,1-2.2,0.2-2.9c-0.8-0.7-2.6-1.4-3.4-2.2c-0.8-0.7-0.9-1.2-1-1.7c-0.1-0.4,0.1-1.3,0.1-1.3
				s-1.1,0.8-1.2,1.9c-0.1,1.1,0,1.5,0,1.5s-1,1-1.8,1.4c-0.8,0.4-1.1,0.9-1.5,0.7s-0.8-0.5-1.2-1.9s-0.9-4.3-0.9-4.3
				s-0.4-2-0.5-2.1c-0.1-0.2-0.4-0.6-0.5-0.7s-0.2-0.5-0.1-0.7c0.1-0.2,0-0.6,0.1-0.7s0.4-0.1,0.4-0.2c0-0.1-0.2-0.4-0.2-0.4
				s-0.5-0.4-0.6-1s0-0.8,0-0.8l0.7-0.1c0,0,0.1-0.2-0.1-0.3c-0.2-0.1-0.7-0.5-0.9-1.3C10.6,20.6,11,19.4,12.2,19.2z"/>
			<path class="st0" d="M22.9,24.7C22.9,24.7,22.9,24.7,22.9,24.7c0-0.1-0.1-0.2-0.2-0.2c-0.1,0-0.1,0.1-0.1,0.1
				S22.8,24.7,22.9,24.7z"/>
			<path class="st0" d="M22.5,25.5c0,0-0.2,0-0.3,0.1c-0.1,0.1,0,0.1,0.1,0.1c0.1,0,0.3,0,0.4,0s0.2,0,0.2,0
				C22.8,25.6,22.6,25.5,22.5,25.5z"/>
			<path class="st0" d="M23.1,25.4c0,0-0.1-0.1-0.2-0.2c-0.1-0.1-0.2-0.2-0.5-0.1s-0.4,0.1-0.5,0.2c-0.1,0.1-0.2,0.1-0.2,0.1
				c0,0,0,0.1,0.1,0c0.1,0,0.3-0.1,0.3-0.2c0,0,0.1,0,0.1,0s0.2-0.1,0.4,0c0.2,0.1,0.3,0.1,0.4,0.2C23,25.4,23.1,25.4,23.1,25.4z"/>
			<g>
				<path class="st4" d="M35.6,17.1c-3.6-3.6-8.3-5.5-13.4-5.5s-9.8,2-13.4,5.5c-3.6,3.6-5.5,8.3-5.5,13.4s2,9.8,5.5,13.4
					s8.3,5.5,13.4,5.5s9.8-2,13.4-5.5c3.6-3.6,5.5-8.3,5.5-13.4S39.2,20.7,35.6,17.1z M22.2,49.2c-10.3,0-18.7-8.4-18.7-18.7
					c0-10.3,8.4-18.7,18.7-18.7c10.3,0,18.7,8.4,18.7,18.7C40.9,40.8,32.5,49.2,22.2,49.2z"/>
				<path class="st4" d="M33.4,19.3c-3-3-6.9-4.6-11.2-4.6S14,16.3,11,19.3c-3,3-4.6,6.9-4.6,11.2s1.6,8.2,4.6,11.2
					c3,3,6.9,4.6,11.2,4.6s8.2-1.6,11.2-4.6c3-3,4.6-6.9,4.6-11.2S36.4,22.3,33.4,19.3z M22.2,46.1c-8.6,0-15.6-7-15.6-15.6
					s7-15.6,15.6-15.6s15.6,7,15.6,15.6S30.8,46.1,22.2,46.1z"/>
			</g>
			<g>
				<path class="st4" d="M5.7,30.3c0,0.2,0,0.3-0.1,0.4c-0.1,0.1-0.2,0.2-0.3,0.3C5.3,31,5.1,31,5,31c-0.1,0-0.2,0-0.3-0.1
					c-0.1,0-0.2-0.1-0.3-0.2c-0.1-0.1-0.1-0.2-0.2-0.3c0-0.1-0.1-0.2-0.1-0.3c0-0.1,0-0.1,0-0.2c0-0.1,0-0.1,0.1-0.2
					c0-0.1,0.1-0.1,0.1-0.2l0.3,0.2l0,0.1l-0.4,0.3l0-0.3l0.2,0c0,0-0.1,0.1-0.1,0.1c0,0,0,0.1,0,0.2c0,0.1,0,0.2,0.1,0.2
					c0.1,0.1,0.1,0.1,0.2,0.2c0.1,0,0.2,0.1,0.3,0.1c0.1,0,0.2,0,0.3-0.1c0.1,0,0.2-0.1,0.2-0.2c0.1-0.1,0.1-0.2,0.1-0.3
					c0-0.1,0-0.1,0-0.2c0-0.1-0.1-0.1-0.2-0.1l0-0.1c0.1,0,0.2,0.1,0.3,0.2C5.7,30,5.7,30.1,5.7,30.3z M5.8,29.6L5.5,30l-0.4,0
					L5,30.1l0,0l0-0.7l0,0l0.1,0.1L5.8,29.6L5.8,29.6z"/>
				<path class="st4" d="M5.9,28.4c0,0.2-0.1,0.3-0.2,0.4C5.7,28.9,5.6,29,5.4,29c-0.1,0.1-0.3,0.1-0.4,0c-0.2,0-0.3-0.1-0.4-0.2
					c-0.1-0.1-0.2-0.2-0.2-0.3c0-0.1-0.1-0.3,0-0.4c0-0.2,0.1-0.3,0.2-0.4c0.1-0.1,0.2-0.2,0.3-0.2c0.1-0.1,0.3-0.1,0.4,0
					c0.2,0,0.3,0.1,0.4,0.2c0.1,0.1,0.2,0.2,0.2,0.3C5.9,28,5.9,28.2,5.9,28.4z M5.7,28.3c0-0.1,0-0.2,0-0.2c0-0.1-0.1-0.1-0.2-0.2
					c-0.1,0-0.2-0.1-0.3-0.1c-0.1,0-0.3,0-0.4,0S4.7,27.9,4.6,28c-0.1,0.1-0.1,0.1-0.1,0.2c0,0.1,0,0.2,0,0.2c0,0.1,0.1,0.1,0.2,0.2
					c0.1,0,0.2,0.1,0.3,0.1c0.1,0,0.3,0,0.4,0c0.1,0,0.2-0.1,0.2-0.1C5.7,28.5,5.7,28.4,5.7,28.3z"/>
				<path class="st4" d="M6,27.2L6,27.2L5.9,27l-1.1-0.3l-0.2,0.1l0,0l0.1-0.5l1.4,0.4L6,27.2z M5.3,26.6L5.3,26.6l0-0.3
					c0-0.1,0-0.1,0-0.2c0,0-0.1-0.1-0.2-0.1c-0.2,0-0.3,0-0.3,0.2l-0.1,0.3l-0.1,0l0.1-0.3c0.1-0.2,0.1-0.3,0.2-0.4
					c0.1-0.1,0.2-0.1,0.3-0.1c0.1,0,0.2,0.1,0.2,0.2c0,0.1,0,0.3,0,0.5L5.3,26.6z M6.1,26.9l-0.1,0l0.1-0.3c0-0.1,0-0.2,0-0.3
					c0-0.1-0.1-0.1-0.2-0.1c-0.1,0-0.2,0-0.2,0c-0.1,0-0.1,0.1-0.1,0.2l-0.1,0.3l-0.1,0l0.1-0.4c0-0.2,0.1-0.3,0.2-0.4
					c0.1-0.1,0.2-0.1,0.3-0.1c0.1,0,0.2,0.1,0.2,0.1c0.1,0.1,0.1,0.2,0.1,0.3c0,0.1,0,0.3-0.1,0.4L6.1,26.9z M5.5,26.1L5.5,26.1
					L5.5,26.1L5.5,26.1L5.5,26.1z"/>
				<path class="st4" d="M6.5,25.5L6.5,25.5l-0.1-0.2l-1-0.4l-0.2,0.1l0,0l0.2-0.7l0,0l0.1,0.2l1,0.4l0.2-0.1l0,0L6.5,25.5z"/>
				<path class="st4" d="M6.8,24.6L6.8,24.6l-0.1-0.2l-1-0.4L5.5,24l0,0l0.2-0.5L7,24.1L6.8,24.6z M6,23l-0.3,0.6l-0.1,0l0.3-0.7
					L6,23z M6.2,23.1l-0.4,0.2l-0.1,0l0.1-0.3l0,0L6.2,23.1L6.2,23.1z M6.6,23.4l-0.2,0.5l-0.1,0l0.2-0.5L6.6,23.4z M6.7,23.5
					l-0.3,0.1l-0.1,0l-0.1-0.3l0,0L6.7,23.5L6.7,23.5z M7,24.2L7,24.2l0.1-0.7l0.1,0.1L7,24.2z M7.2,23.8L7.2,23.8l-0.2-0.5l0,0
					l0.4,0.2L7.2,23.8z"/>
				<path class="st4" d="M7.5,23.1L7.5,23.1l-0.1-0.2l-1-0.5l-0.2,0.1l0,0l0.3-0.5l1.1,0.6l0.2-0.1l0,0L7.5,23.1z M7,22.6l-0.1-0.1
					l0.2-0.3c0-0.1,0.1-0.2,0-0.2c0-0.1-0.1-0.1-0.2-0.2c-0.1,0-0.2-0.1-0.2,0c-0.1,0-0.1,0.1-0.2,0.2l-0.1,0.3l-0.1-0.1l0.2-0.4
					c0.1-0.2,0.2-0.3,0.3-0.3c0.1-0.1,0.2,0,0.3,0c0.1,0.1,0.2,0.2,0.2,0.3c0,0.1,0,0.3-0.1,0.5l0,0l0,0L7,22.6z M8,22.2l-0.8,0
					l0-0.4l0.9,0l-0.3,0l0.3-0.1l0,0L8,22.2z"/>
				<path class="st4" d="M8.3,21.6L8.3,21.6l-0.1-0.2l-0.8-0.6l-0.3,0l0,0l0.1-0.2l1.1,0.7l0.2,0l0,0L8.3,21.6z M9,20.6l-1.5,0.1
					l-0.2-0.2l0.1-0.2l1.5-0.1l0,0.1l-0.9-0.5l-0.2,0l0,0L8,19.5l0,0l0,0.2l1.1,0.8L9,20.6z"/>
				<path class="st4" d="M10,19.5c-0.1,0.1-0.2,0.2-0.4,0.3c-0.1,0-0.3,0.1-0.4,0c-0.1,0-0.3-0.1-0.4-0.2c-0.1-0.1-0.2-0.2-0.2-0.4
					c0-0.1,0-0.3,0-0.4c0-0.1,0.1-0.3,0.2-0.4c0.1-0.1,0.2-0.2,0.4-0.3c0.1,0,0.3-0.1,0.4,0c0.1,0,0.3,0.1,0.4,0.2
					c0.1,0.1,0.2,0.2,0.2,0.4c0,0.1,0,0.3,0,0.4C10.2,19.3,10.1,19.4,10,19.5z M9.9,19.4c0.1-0.1,0.1-0.1,0.1-0.2
					c0-0.1,0-0.2-0.1-0.2c0-0.1-0.1-0.2-0.2-0.2c-0.1-0.1-0.2-0.2-0.3-0.2s-0.2-0.1-0.3,0c-0.1,0-0.2,0-0.2,0.1
					c-0.1,0.1-0.1,0.1-0.1,0.2c0,0.1,0,0.2,0.1,0.2c0,0.1,0.1,0.2,0.2,0.2c0.1,0.1,0.2,0.2,0.3,0.2c0.1,0,0.2,0.1,0.3,0
					C9.8,19.5,9.8,19.5,9.9,19.4z"/>
				<path class="st4" d="M11.3,18.1L11.3,18.1v-0.2L10.6,17l-0.2,0l0,0l0.4-0.3l0.9,1.2L11.3,18.1z M11.6,17.9L11.6,17.9l0.2-0.3
					c0.1-0.1,0.1-0.1,0.2-0.2c0-0.1,0-0.2,0-0.3c0-0.1-0.1-0.2-0.2-0.3c-0.1-0.1-0.2-0.2-0.3-0.2c-0.1,0-0.2-0.1-0.3-0.1
					c-0.1,0-0.2,0-0.2,0.1l-0.2,0.2l-0.1-0.1l0.3-0.2c0.1-0.1,0.3-0.2,0.4-0.2c0.1,0,0.3,0,0.4,0c0.1,0,0.2,0.1,0.3,0.2
					c0.1,0.1,0.1,0.2,0.1,0.3c0,0.1,0,0.2,0,0.3c0,0.1-0.1,0.2-0.1,0.3c-0.1,0.1-0.1,0.2-0.2,0.3L11.6,17.9z"/>
				<path class="st4" d="M12.8,17L12.8,17l0-0.2l-0.6-0.9l-0.2,0l0,0l0.5-0.3l0.8,1.3L12.8,17z M13.1,15.2l-0.6,0.3l-0.1-0.1
					l0.6-0.4L13.1,15.2z M13.2,15.4l-0.4-0.1l-0.1-0.1l0.3-0.2l0,0L13.2,15.4L13.2,15.4z M13.3,15.9l-0.5,0.3l-0.1-0.1l0.4-0.3
					L13.3,15.9z M13.3,16l-0.3-0.1l0-0.1l0.1-0.3l0,0L13.3,16L13.3,16z M13.2,16.7L13.2,16.7l0.5-0.5l0.1,0.1L13.2,16.7z M13.5,16.5
					L13.5,16.5l0.1-0.5l0,0l0.2,0.3L13.5,16.5z"/>
				<path class="st4" d="M14.1,16.1L14.1,16.1l0-0.2l-0.5-1l-0.2-0.1l0,0l0.6-0.3l0,0L14,14.7l0.6,1.2L14.1,16.1z M14.5,15.9
					L14.5,15.9l0.6-0.5l0.1,0.1L14.5,15.9z M14.9,15.8L14.9,15.8l0.1-0.6l0,0l0.2,0.4L14.9,15.8z"/>
				<path class="st4" d="M16.2,15.2L16.2,15.2l0.1-0.2l-0.4-1l-0.2-0.1l0,0l0.5-0.2l0.5,1.4L16.2,15.2z M16.9,13.5l-0.7,0.2l0-0.1
					l0.7-0.2L16.9,13.5z M16.9,14.2l-0.5,0.1l0-0.1l0.5-0.2L16.9,14.2z M17,13.7l-0.4-0.1l0-0.1l0.3-0.1l0,0L17,13.7L17,13.7z
					 M16.6,15L16.6,15l0.6-0.4l0.1,0.1L16.6,15z M17,14.3l-0.3-0.1l0-0.1l0.1-0.2l0.1,0L17,14.3L17,14.3z M17,14.9L17,14.9l0.2-0.5
					l0.1,0l0.1,0.4L17,14.9z"/>
				<path class="st4" d="M18.3,14.6c-0.1,0-0.1,0-0.2,0c-0.1,0-0.1,0-0.2,0c-0.1,0-0.1,0-0.2,0l0.1-0.3l0.1,0L18.3,14.6l-0.3,0
					l0-0.2c0,0,0.1,0.1,0.2,0.1c0.1,0,0.1,0,0.2,0c0.1,0,0.1-0.1,0.2-0.1c0,0,0-0.1,0-0.2c0-0.1-0.1-0.1-0.1-0.1c-0.1,0-0.2,0-0.3,0
					c-0.1,0-0.2,0-0.3,0c-0.1,0-0.1-0.1-0.2-0.1c0,0-0.1-0.1-0.1-0.2c0-0.1,0-0.3,0.1-0.4c0.1-0.1,0.2-0.2,0.4-0.2
					c0.1,0,0.1,0,0.2,0c0.1,0,0.1,0,0.2,0c0.1,0,0.1,0,0.2,0l-0.1,0.3l-0.1,0L18,13.1l0.3-0.1l0,0.2c0,0-0.1-0.1-0.1-0.1
					c-0.1,0-0.1,0-0.2,0c-0.1,0-0.1,0-0.2,0.1c0,0,0,0.1,0,0.1c0,0.1,0.1,0.1,0.1,0.1c0.1,0,0.2,0,0.3,0.1c0.1,0,0.2,0,0.3,0
					c0.1,0,0.1,0.1,0.2,0.1c0,0,0.1,0.1,0.1,0.2c0,0.1,0,0.2,0,0.3c0,0.1-0.1,0.2-0.2,0.2C18.5,14.5,18.4,14.5,18.3,14.6z"/>
				<path class="st4" d="M19.1,13.2L19,12.8l0,0l0.3,0l0,0.1L19.1,13.2L19.1,13.2z M19.6,14.3L19.6,14.3l0.1-0.2l-0.2-1.2l0.2,0
					L19.1,13l0-0.2l1.3-0.2l0,0.2l-0.6,0l0.1-0.1l0.2,1.2l0.2,0.1l0,0L19.6,14.3z M20.4,13l-0.4-0.3l0-0.1l0.3-0.1l0,0L20.4,13
					L20.4,13z"/>
				<path class="st4" d="M20.7,14.1L20.7,14.1l0.2-0.2L20.7,14.1l0.6-1.5l0.2,0l0.7,1.4l-0.1-0.2l0.2,0.2l0,0l-0.7,0l0,0l0.2-0.2
					l0,0.2l-0.6-1.2l0.1,0l-0.3,1.3l0-0.2l0.2,0.2l0,0L20.7,14.1z M21.1,13.7l0-0.1l0.8,0l0,0.1L21.1,13.7z M21.3,12.8l-0.2-0.2l0,0
					l0.3,0L21.3,12.8z"/>
				<path class="st4" d="M22.6,14L22.6,14l0.2-0.2l0.1-1.1l-0.1-0.2l0,0l0.5,0l-0.1,1.5L22.6,14z M23,14.1l0-0.1l0.3,0
					c0.1,0,0.2,0,0.3-0.1c0.1,0,0.1-0.1,0.2-0.2c0-0.1,0.1-0.2,0.1-0.3c0-0.1,0-0.2,0-0.3c0-0.1-0.1-0.2-0.1-0.2
					c-0.1-0.1-0.1-0.1-0.2-0.1l-0.3,0l0-0.1l0.3,0c0.2,0,0.3,0.1,0.4,0.1c0.1,0.1,0.2,0.2,0.3,0.3c0.1,0.1,0.1,0.2,0.1,0.4
					c0,0.1,0,0.2-0.1,0.3c-0.1,0.1-0.1,0.2-0.2,0.2c-0.1,0.1-0.2,0.1-0.3,0.1c-0.1,0-0.2,0-0.4,0L23,14.1z"/>
				<path class="st4" d="M25.4,14.4c-0.2,0-0.3-0.1-0.4-0.2c-0.1-0.1-0.2-0.2-0.2-0.3c0-0.1,0-0.3,0-0.4c0-0.2,0.1-0.3,0.2-0.4
					c0.1-0.1,0.2-0.2,0.3-0.2c0.1,0,0.3,0,0.5,0c0.2,0,0.3,0.1,0.4,0.2c0.1,0.1,0.2,0.2,0.2,0.3c0,0.1,0,0.3,0,0.4
					c0,0.2-0.1,0.3-0.2,0.4c-0.1,0.1-0.2,0.2-0.3,0.2C25.7,14.4,25.5,14.4,25.4,14.4z M25.4,14.2c0.1,0,0.2,0,0.2,0
					c0.1,0,0.1-0.1,0.2-0.2c0-0.1,0.1-0.2,0.1-0.3c0-0.1,0-0.3,0-0.4c0-0.1,0-0.2-0.1-0.3c-0.1-0.1-0.1-0.1-0.2-0.1
					c-0.1,0-0.2,0-0.2,0c-0.1,0-0.1,0.1-0.2,0.2c0,0.1-0.1,0.2-0.1,0.3c0,0.1,0,0.3,0,0.4c0,0.1,0,0.2,0.1,0.3
					C25.3,14.2,25.3,14.2,25.4,14.2z"/>
				<path class="st4" d="M27.2,14.8L27.2,14.8l0.2-0.1l0.4-1l-0.1-0.2l0,0l0.5,0.2L27.7,15L27.2,14.8z M27.6,15l0-0.1l0.3,0.1
					c0.1,0,0.2,0,0.3,0c0.1,0,0.2-0.1,0.2-0.1c0.1-0.1,0.1-0.2,0.2-0.3c0-0.1,0.1-0.2,0.1-0.3c0-0.1,0-0.2-0.1-0.3s-0.1-0.1-0.2-0.2
					l-0.3-0.1l0-0.1l0.3,0.1c0.2,0.1,0.3,0.1,0.4,0.2c0.1,0.1,0.2,0.2,0.2,0.3c0,0.1,0,0.3,0,0.4c0,0.1-0.1,0.2-0.2,0.3
					c-0.1,0.1-0.2,0.1-0.3,0.2c-0.1,0-0.2,0.1-0.3,0c-0.1,0-0.2,0-0.4-0.1L27.6,15z"/>
				<path class="st4" d="M29,15.5L29,15.5l0.2-0.1l0.5-1l-0.1-0.2l0,0l0.5,0.2l-0.7,1.3L29,15.5z M29.4,15.7L29.4,15.7l0.7,0.2
					L30,16L29.4,15.7z M30.2,15.3l-0.5-0.3l0-0.1l0.5,0.2L30.2,15.3z M29.8,15.9L29.8,15.9l0.5-0.2l0,0l-0.2,0.4L29.8,15.9z
					 M30.6,14.8L30,14.5l0-0.1l0.7,0.3L30.6,14.8z M30.1,15.5L30,15.2l0-0.1l0.3-0.1l0,0L30.1,15.5L30.1,15.5z M30.6,15l-0.2-0.4
					l0-0.1l0.3,0.1l0,0L30.6,15L30.6,15z"/>
				<path class="st4" d="M31.7,17.1c-0.1-0.1-0.2-0.2-0.3-0.3c-0.1-0.1-0.1-0.2-0.1-0.4c0-0.1,0.1-0.3,0.2-0.4
					c0.1-0.1,0.2-0.2,0.2-0.2c0.1-0.1,0.2-0.1,0.3-0.1c0.1,0,0.2,0,0.3,0c0.1,0,0.2,0.1,0.3,0.1c0.1,0,0.1,0.1,0.2,0.1
					c0,0.1,0.1,0.1,0.1,0.2c0,0.1,0.1,0.1,0.1,0.2l-0.3,0.2l0,0l0-0.5l0.2,0.2l-0.1,0.2c0-0.1,0-0.1,0-0.2c0,0-0.1-0.1-0.1-0.1
					c-0.1,0-0.1-0.1-0.2-0.1c-0.1,0-0.2,0-0.3,0.1c-0.1,0.1-0.2,0.1-0.2,0.2c-0.1,0.1-0.1,0.2-0.1,0.3c0,0.1,0,0.2,0,0.3
					c0,0.1,0.1,0.2,0.2,0.2c0.1,0,0.1,0.1,0.2,0.1c0.1,0,0.1,0,0.2-0.1l0,0.1c-0.1,0.1-0.2,0.1-0.3,0.1
					C31.9,17.2,31.8,17.2,31.7,17.1z M32.2,17.5l-0.2-0.4l0.2-0.3l-0.1-0.2l0,0l0.5,0.4l0,0l-0.2,0L32.2,17.5L32.2,17.5z"/>
				<path class="st4" d="M34.3,17.5l0-0.2l0,0l0.4,0.4l0,0l-0.2,0L34,18.2c-0.1,0.1-0.2,0.1-0.3,0.2c-0.1,0-0.2,0-0.3,0
					c-0.1,0-0.2-0.1-0.3-0.2c-0.2-0.1-0.3-0.3-0.3-0.4c0-0.2,0-0.3,0.2-0.4l0.5-0.6l0-0.2l0,0l0.5,0.5l0,0l-0.2,0l-0.5,0.5
					c-0.1,0.1-0.1,0.2-0.2,0.3c0,0.1,0,0.2,0.1,0.3c0.1,0.1,0.2,0.1,0.3,0.1c0.1,0,0.2-0.1,0.3-0.2L34.3,17.5z"/>
				<path class="st4" d="M33.8,18.8L33.8,18.8l0.3,0L33.8,18.8l1.6-0.5l0.2,0.2L34.9,20l0.1-0.2l0,0.2l0,0l-0.5-0.5l0,0l0.3,0
					l-0.1,0.1l0.6-1.3l0.1,0.1L34.1,19l0.1-0.1l0,0.3l0,0L33.8,18.8z M34.4,18.8L34.4,18.8l0.7,0.5l-0.1,0.1L34.4,18.8z M35.2,18.4
					l0-0.3l0,0l0.2,0.2L35.2,18.4z"/>
				<path class="st4" d="M35.1,20.2L35.1,20.2l0.2,0l0.9-0.6l0.1-0.3l0,0l0.1,0.2l-1,0.9l0,0.2l0,0L35.1,20.2z M35.8,21.2l0.4-1.5
					l0.2-0.2l0.1,0.2l-0.4,1.4l-0.1,0l0.8-0.7l0-0.2l0,0l0.3,0.4l0,0l-0.2,0l-1.1,0.8L35.8,21.2z"/>
				<path class="st4" d="M36.1,21.6L36.1,21.6l0.3,0L36.1,21.6l1.6-0.1l0.1,0.2L36.9,23l0.1-0.2L36.9,23l0,0l-0.3-0.6l0,0l0.3,0.1
					l-0.2,0.1l0.8-1.1l0,0.1l-1.3,0.3l0.2-0.1l0,0.3l0,0L36.1,21.6z M36.6,21.7l0.1-0.1l0.4,0.7l-0.1,0.1L36.6,21.7z M37.5,21.5
					l0.1-0.2l0,0l0.1,0.2L37.5,21.5z"/>
				<path class="st4" d="M37.2,23.7c0-0.1,0-0.1-0.1-0.2c0-0.1,0-0.1,0-0.2c0-0.1,0-0.1,0.1-0.2l0.3,0l0,0l-0.3,0.4l-0.1-0.2
					l0.3-0.1c-0.1,0.1-0.1,0.1-0.2,0.2c0,0.1,0,0.1,0,0.2c0,0.1,0.1,0.1,0.1,0.1c0.1,0,0.1,0,0.2,0l0.8-0.4l0.1-0.2l0,0l0.3,0.6l0,0
					l-0.2-0.1L37.9,24c-0.2,0.1-0.3,0.1-0.4,0C37.4,24,37.3,23.9,37.2,23.7z"/>
				<path class="st4" d="M39.2,25.4l0.1-0.2l0,0l0.2,0.5l0,0l-0.2-0.1l-0.7,0.2c-0.1,0-0.2,0-0.3,0c-0.1,0-0.2-0.1-0.3-0.1
					c-0.1-0.1-0.1-0.2-0.2-0.3c-0.1-0.2-0.1-0.4,0-0.5c0.1-0.1,0.2-0.2,0.4-0.3l0.7-0.2l0.1-0.2l0,0l0.2,0.7l0,0L39,24.7L38.4,25
					c-0.1,0-0.2,0.1-0.3,0.2c-0.1,0.1-0.1,0.2,0,0.3c0,0.1,0.1,0.2,0.2,0.2c0.1,0,0.2,0,0.3,0L39.2,25.4z"/>
				<path class="st4" d="M38.1,26.2L38.1,26.2l0.3,0.1L38.1,26.2l1.6,0.4l0.1,0.2l-1.3,0.9l0.2-0.2l-0.1,0.2l0,0l-0.1-0.7l0,0
					l0.2,0.2l-0.2,0.1l1.1-0.8l0,0.1l-1.3-0.1l0.2,0l-0.1,0.2l0,0L38.1,26.2z M38.6,26.5l0.1,0l0.2,0.8l-0.1,0L38.6,26.5z
					 M39.5,26.6l0.1-0.2l0,0l0.1,0.3L39.5,26.6z"/>
				<path class="st4" d="M38.5,28.3L38.5,28.3l0.2,0.1l1.2-0.1l0,0.2l-0.1-0.6l0.2,0l0.2,1.3l-0.2,0l0-0.6l0.1,0.2l-1.2,0.1L38.7,29
					l0,0L38.5,28.3z M39.6,27.8l0.4,0l0,0l0,0.3l-0.1,0L39.6,27.8L39.6,27.8z M39.7,29.2l0.3-0.4l0.1,0l0.1,0.3l0,0L39.7,29.2
					L39.7,29.2z"/>
				<path class="st4" d="M38.7,30.4c0-0.2,0-0.3,0.1-0.4c0.1-0.1,0.2-0.2,0.3-0.3c0.1-0.1,0.3-0.1,0.4-0.1c0.2,0,0.3,0,0.4,0.1
					c0.1,0.1,0.2,0.2,0.3,0.3c0.1,0.1,0.1,0.3,0.1,0.4c0,0.2,0,0.3-0.1,0.4c-0.1,0.1-0.2,0.2-0.3,0.3c-0.1,0.1-0.3,0.1-0.4,0.1
					c-0.2,0-0.3,0-0.4-0.1c-0.1-0.1-0.2-0.2-0.3-0.3C38.7,30.7,38.7,30.6,38.7,30.4z M38.8,30.4c0,0.1,0,0.1,0.1,0.2
					c0,0.1,0.1,0.1,0.2,0.1c0.1,0,0.2,0,0.3,0c0.1,0,0.3,0,0.4-0.1c0.1,0,0.2-0.1,0.2-0.1c0.1-0.1,0.1-0.1,0.1-0.2
					c0-0.1,0-0.2-0.1-0.2c0-0.1-0.1-0.1-0.2-0.1c-0.1,0-0.2,0-0.3,0c-0.1,0-0.3,0-0.4,0.1c-0.1,0-0.2,0.1-0.2,0.1
					C38.8,30.3,38.8,30.4,38.8,30.4z"/>
			</g>
			<g>
				<path class="st4" d="M8.9,42.3L8.9,42.3l0.4-0.1c0.2,0,0.3,0,0.4,0c0.1,0,0.2,0,0.3,0c0.1,0,0.1,0,0.2-0.1
					c0.1-0.1,0.1-0.1,0.1-0.2c0-0.1,0-0.1-0.1-0.2c0,0-0.1-0.1-0.1-0.1c-0.1,0-0.1,0-0.2,0l0.2-0.1l0.2,0.2l-0.4,0.1l0,0l0.1-0.3
					c0.1,0,0.1,0,0.2,0.1c0.1,0,0.1,0.1,0.2,0.1c0,0,0.1,0.1,0.1,0.1c0.1,0.1,0.2,0.3,0.2,0.4c0,0.1,0,0.2-0.1,0.3
					c0,0-0.1,0.1-0.1,0.1c-0.1,0-0.1,0-0.2,0c-0.1,0-0.2,0-0.3,0c-0.1,0-0.3-0.1-0.4-0.1l-0.1,0l0.1,0l0.4,0.5l0.3,0l0,0l-0.4,0.3
					L8.9,42.3z"/>
				<path class="st4" d="M10.8,44.3c-0.1-0.1-0.2-0.2-0.2-0.3c0-0.1,0-0.2,0-0.3c0-0.1,0.1-0.2,0.2-0.3c0.1-0.1,0.2-0.2,0.3-0.3
					c0.1-0.1,0.2-0.1,0.4,0c0.1,0,0.2,0.1,0.3,0.2c0.1,0.1,0.2,0.2,0.2,0.3c0,0.1,0,0.2,0,0.3c0,0.1-0.1,0.2-0.2,0.3
					c-0.1,0.1-0.2,0.2-0.3,0.3c-0.1,0.1-0.2,0.1-0.4,0C11.1,44.4,11,44.4,10.8,44.3z M10.9,44.2c0,0,0.1,0.1,0.2,0.1
					c0.1,0,0.1,0,0.2-0.1c0.1-0.1,0.2-0.1,0.2-0.2c0.1-0.2,0.2-0.3,0.3-0.4c0-0.1,0-0.2-0.1-0.3c0,0-0.1-0.1-0.2-0.1
					c-0.1,0-0.1,0-0.2,0.1c-0.1,0.1-0.2,0.1-0.2,0.2c-0.1,0.2-0.2,0.3-0.3,0.4C10.8,44,10.9,44.1,10.9,44.2z"/>
				<path class="st4" d="M12.1,45.3L12.1,45.3l0.3-0.1c0.2,0,0.3-0.1,0.4-0.1c0.1,0,0.2-0.1,0.3-0.1c0.1,0,0.1-0.1,0.1-0.1
					c0.1-0.1,0.1-0.1,0.1-0.2c0-0.1,0-0.1-0.1-0.2c0,0-0.1,0-0.1-0.1c-0.1,0-0.1,0-0.2,0l0.1-0.2l0.2,0.1l-0.4,0.2l0,0l0-0.3
					c0.1,0,0.1,0,0.2,0c0.1,0,0.1,0,0.2,0.1c0.1,0,0.1,0.1,0.2,0.1c0.2,0.1,0.3,0.2,0.3,0.3c0.1,0.1,0,0.2,0,0.3
					c0,0-0.1,0.1-0.1,0.1c-0.1,0-0.1,0.1-0.2,0.1c-0.1,0-0.2,0-0.3,0c-0.1,0-0.3,0-0.4,0l-0.1,0l0.1,0l0.5,0.4l0.3-0.1l0,0L13,45.9
					L12.1,45.3z"/>
				<path class="st4" d="M14,46.1L14,46.1l1-0.7l0.4,0.2l0,0L14,46.1L14,46.1L14,46.1z M14,46.1l0.1-0.1l1.1,0.6l-0.1,0.1L14,46.1z
					 M14.3,46.6L14.3,46.6l0.3-0.1l0.3-0.5l0.1,0l0.3,0.1l-0.3,0.6l0.1,0.2l0,0L14.3,46.6z"/>
			</g>
			<g>
				<path class="st4" d="M30.1,46.7L30.1,46.7l0-0.4c0.1-0.2,0.1-0.3,0.1-0.4c0-0.1,0-0.2,0-0.3c0-0.1,0-0.1,0-0.2
					c0-0.1-0.1-0.1-0.2-0.2c-0.1,0-0.1,0-0.2,0c0,0-0.1,0.1-0.1,0.1c0,0,0,0.1,0,0.1l-0.1-0.2l0.2-0.1l-0.1,0.4l0,0l-0.3-0.2
					c0-0.1,0.1-0.1,0.1-0.1c0,0,0.1-0.1,0.1-0.1c0,0,0.1-0.1,0.2-0.1c0.2-0.1,0.3-0.1,0.4-0.1c0.1,0,0.2,0.1,0.3,0.2
					c0,0,0,0.1,0,0.2c0,0.1,0,0.1,0,0.2c0,0.1-0.1,0.2-0.1,0.3c0,0.1-0.1,0.3-0.2,0.4l-0.1,0.1l0-0.1l0.6-0.3l0.1-0.3l0,0l0.2,0.4
					L30.1,46.7z"/>
				<path class="st4" d="M32.6,45.3c-0.1,0.1-0.2,0.1-0.3,0.1c-0.1,0-0.2,0-0.3-0.1c-0.1-0.1-0.2-0.1-0.3-0.3
					c-0.1-0.1-0.1-0.3-0.2-0.4c0-0.1,0-0.2,0-0.4c0-0.1,0.1-0.2,0.2-0.3c0.1-0.1,0.2-0.1,0.3-0.1c0.1,0,0.2,0,0.3,0.1
					c0.1,0.1,0.2,0.1,0.3,0.3c0.1,0.1,0.1,0.3,0.2,0.4c0,0.1,0,0.2,0,0.4C32.8,45.1,32.7,45.2,32.6,45.3z M32.5,45.2
					c0.1,0,0.1-0.1,0.1-0.1c0-0.1,0-0.1,0-0.2c0-0.1-0.1-0.2-0.2-0.3c-0.1-0.2-0.2-0.3-0.3-0.4c-0.1-0.1-0.2-0.1-0.3,0
					c-0.1,0-0.1,0.1-0.1,0.1c0,0.1,0,0.1,0,0.2c0,0.1,0.1,0.2,0.2,0.3c0.1,0.2,0.2,0.3,0.3,0.4C32.3,45.2,32.4,45.2,32.5,45.2z"/>
				<path class="st4" d="M33.6,43.4L33.6,43.4c0-0.1,0-0.1,0.1-0.2c0,0,0-0.1,0-0.1c0,0,0-0.1-0.1-0.1c0,0-0.1-0.1-0.2-0.1
					c-0.1,0-0.1,0-0.2,0.1c0,0-0.1,0.1-0.1,0.1c0,0,0,0.1,0,0.2L33,43.1l0.2-0.2l0.1,0.5l0,0l-0.3-0.1c0-0.1,0.1-0.2,0.1-0.3
					c0.1-0.1,0.1-0.2,0.2-0.2c0.1-0.1,0.2-0.1,0.3-0.2c0.1,0,0.2-0.1,0.2,0c0.1,0,0.1,0,0.2,0.1c0.1,0.1,0.1,0.2,0,0.3
					C33.9,43.1,33.8,43.3,33.6,43.4z M34.2,44c-0.1,0.1-0.2,0.1-0.3,0.2c-0.1,0-0.2,0.1-0.3,0.1l-0.1-0.3l0,0l0.5,0.1l-0.2,0.2
					L33.8,44c0.1,0,0.1,0,0.2,0c0.1,0,0.1,0,0.2-0.1c0,0,0.1-0.1,0.1-0.1c0,0,0-0.1,0-0.1c0-0.1,0-0.1-0.1-0.1c0,0-0.1-0.1-0.1-0.1
					c-0.1,0-0.1,0-0.2,0s-0.1,0-0.2,0.1l-0.1-0.1c0.2-0.2,0.3-0.3,0.5-0.3c0.1,0,0.2,0,0.3,0.1c0.1,0.1,0.1,0.1,0.1,0.2
					c0,0.1,0,0.2-0.1,0.3C34.4,43.8,34.3,43.9,34.2,44z M33.8,43.3L33.8,43.3l0-0.1L33.8,43.3L33.8,43.3z"/>
				<path class="st4" d="M35.9,42.3c-0.1,0.1-0.2,0.2-0.3,0.2c-0.1,0-0.2,0-0.3,0c-0.1,0-0.2-0.1-0.3-0.2c-0.1-0.1-0.2-0.2-0.3-0.3
					c-0.1-0.1-0.1-0.2,0-0.4c0-0.1,0.1-0.2,0.2-0.3c0.1-0.1,0.2-0.2,0.3-0.2c0.1,0,0.2,0,0.3,0c0.1,0,0.2,0.1,0.3,0.2
					c0.1,0.1,0.2,0.2,0.3,0.3c0.1,0.1,0.1,0.2,0,0.4C36,42.1,36,42.2,35.9,42.3z M35.8,42.2c0,0,0.1-0.1,0.1-0.2
					c0-0.1,0-0.1-0.1-0.2c-0.1-0.1-0.1-0.2-0.2-0.2c-0.2-0.1-0.3-0.2-0.4-0.3c-0.1,0-0.2,0-0.3,0.1c0,0-0.1,0.1-0.1,0.2
					c0,0.1,0,0.1,0.1,0.2c0.1,0.1,0.1,0.2,0.2,0.2c0.2,0.1,0.3,0.2,0.4,0.3C35.6,42.3,35.7,42.3,35.8,42.2z"/>
			</g>
			<g>
				<path class="st0" d="M23,40.8c0,0-1.5,4.3,1,9.2l0.9-0.1c0,0-1.2-1.5-1.8-4.4C23.2,45.4,22.6,42.4,23,40.8z"/>
				<path class="st0" d="M25.5,31.8c-1.7-0.7-2.6-1.2-2.6-1.2c0.1,0.2,1,0.8,1.9,1.1c0.8,0.4,1.6,1,1.6,1c1.3,1.1,1,2.2,1,2.2
					C27.9,33.7,27.2,32.5,25.5,31.8z"/>
				<path class="st0" d="M35.8,23.1c-0.1-0.3-0.3-0.2-0.3-0.2L35.2,23l-1.4,0.4l0.4-1.8c0,0,0.1-0.3,0.1-0.5c0-0.2-0.2-0.5-0.7-0.9
					c-0.4-0.4-0.6-0.5-0.6-0.5L32.9,20l-0.9,3.9l-3.6,1.2c0,0-0.6,0.2-1,0.7c-0.3,0.5-0.4,0.7-0.3,0.8c0,0,0,0.1,0.5-0.1
					c0.4-0.1,4.2-1.1,4.2-1.1l-2,9.1c-0.1-0.2-0.2-0.4-0.2-0.6c-0.2-0.6-0.7-2.5-1.8-3.7c-0.6-0.6-1-0.9-1.3-1.1
					c-0.2-0.4-0.5-0.8-0.7-1.1c-0.4-0.5-0.5-0.8-0.6-1.5c-0.1-0.7,0-1.3-0.2-2.3c-0.1-0.3-0.2-0.6-0.3-0.8c-0.2-0.4-0.3-0.6-0.3-0.6
					c-0.6-0.8-1.6-1-1.6-1c1,0,1.6,0.8,1.6,0.8s0,0,0,0c0-0.1-0.2-0.5-0.7-0.8c-0.6-0.4-1.3-0.4-1.3-0.4c-2,0.1-2.3,1.9-2.4,2.6
					s-0.4,1.7-0.4,2.5c0,0.8-0.4,1.3-0.4,1.3c-0.6,0.7-0.8,1.7-0.8,1.7s-0.3,0.3-1,1c-0.6,0.7-1.9,2.5-2.1,2.8
					c0-0.1-0.1-0.6-0.4-1.1c0,0-0.4-0.9-0.8-1.5c-0.3-0.6-1-2.1-1.1-2.3c-0.1-0.2-0.3-0.7-0.2-1.1c0,0,0.1-0.3,0.1-0.4
					c0-0.1,0-0.2,0-0.2s0.1-0.2,0-0.3c0,0,0.1-0.2,0-0.5c0,0,0.1,0,0.1-0.2c0-0.2-0.2-0.3-0.2-0.3s-0.2-0.1-0.3-0.2
					c0,0,0.7-0.4,0.9-1.1c0.2-0.6,0.2-0.8,0.2-0.8s0.1,0,0.1,0c0,0,0.1-0.2,0-0.2c-0.1-0.1-0.4-0.2-0.7-0.2c0.7-0.3,1.1-1,1.1-1.8
					c0-0.3-0.1-0.7-0.2-0.9c-0.1-0.1-0.1-0.2-0.2-0.3c-0.4-0.4-0.9-0.7-1.5-0.7c0,0,0,0,0,0c0,0-0.1,0-0.1,0c0,0,0,0,0,0
					c-1.9,0.2-1.9,1.9-1.9,1.9s0,0.2,0.1,0.4c0.1,0.6,0.4,1,0.9,1.3c-0.2,0-0.6,0.1-0.7,0.2c0,0,0,0.2,0,0.2c0.1,0,0.1,0,0.1,0
					s0,0.7,0.2,1.2c0.3,0.6,0.7,0.8,0.7,0.8s-0.2,0-0.4,0.1c-0.1,0.1-0.1,0.2-0.1,0.3s0,0.1,0,0.1c0,0-0.1,0.2,0,0.4
					c0,0,0,0.1,0,0.1c0,0.1,0,0.2,0,0.3c0,0.1,0.1,0.2,0,0.3c0,0,0,0.3,0.1,0.5c0.1,0.2,0.4,0.4,0.6,1.4c0.2,1,0.6,2.7,0.6,2.7
					s0.2,1.4,0.3,1.7c0,0.2,0.4,1.4,0.5,1.9c0,0,0,0,0,0.1c0.2,0.5,0.6,1.7,1.9,1.1c1.3-0.6,3-2.1,3-2.1c-0.2-0.5,0-1.9,0-1.9
					s0,0.8,0.3,1.8c0.2,1,1.2,2.1,1.5,3.3c0.3,1.2-0.4,1.2-1.2,3.8c-0.8,2.6-1.1,4.6-1.1,4.6c-0.1,1.3,0,3.4,0,3.4l0,0.5
					c0,0,1.7,0.6,5,0.5c0,0,0-0.1-0.1-0.2c-0.2-0.6-0.6-2.4-0.7-3.7c-0.1-1.4-0.2-2.8,0.1-4.4c0.3-1.7,1.3-3,1.7-3.4
					c0.4-0.4,1-1,0.8-2c-0.2-1-1-1.4-2.3-2.1c-1.3-0.7-1.8-1.2-1.8-1.2c-1.3-1.1-1-2.7-1-2.7c-0.1,1.6,2.2,3,3.6,3.5
					c1.4,0.5,2,1.2,2,1.2c1.4,1.3,0.9,2.5,0.7,2.8c0,0,0,0,0,0c0.9-0.8,1.4-2.1,1-3.2c-0.4-1.1-1.1-1.5-2.8-2.5
					c-1.8-1-2.5-2.3-2.5-2.3c-0.4-0.6-0.4-0.9-0.4-1.3c0-0.3,0-0.8,0.5-1.1c0.5-0.3,0.7-0.3,0.9-0.4c0.3-0.1,1.1-0.6,1.1-0.6
					s-0.2,0-0.4,0c-0.2,0-0.3-0.2-0.7-0.3c-0.4-0.1-1,0.2-1.2,0.3c-0.2,0.1-0.3-0.2-0.3-0.4c0-0.1-0.3-0.6-0.4-0.9
					c-0.1-0.3-0.1-0.4,0-0.6c0.1-0.2,0.5-0.5,0.8-0.6c0.3-0.1,0.4,0,0.4,0.1c0,0.2,0,0.4,0,0.5c0,0.1,0,0.1,0.1,0.1
					c0.1,0,0.2-0.2,0.2-0.3c0-0.1,0-0.8,0-0.8c-0.7,0-1.1,0.3-1.3,0.4c-0.2,0.1-0.5,0.3-0.4,0.1c0.1-0.2,0.5-0.5,0.5-0.5
					c-0.4,0.2-0.6,0.5-0.7,0.5c-0.1,0-0.1,0,0.1-0.3c0.2-0.2,0.6-0.4,0.6-0.4s-0.1,0-0.3,0.2c-0.2,0.2-0.5,0.3-0.5,0.3
					c0-0.1,0.1-0.2,0.1-0.2c0.3-0.5,1.1-1.1,2.2-1c1.1,0.1,1.8,1,1.8,1.2c0,0.1-0.1,0.1-0.2-0.1c-0.2-0.1-0.5-0.3-0.5-0.3
					c0.3,0.2,0.8,0.7,0.8,0.7c0,0.1,0,0.2-0.1,0c-0.1-0.2-0.4-0.3-0.4-0.3c0.2,0.2,0.4,0.5,0.4,0.6c0,0.1-0.1,0-0.2,0
					c-0.1-0.1-0.3-0.3-0.3-0.3c-0.7-0.5-1.5-0.5-1.5-0.5s0,0.2,0.1,0.4c0.2,0.3,0.5,0.2,0.5,0.1s0.1-0.2,0.4,0
					c0.3,0.2,0.6,0.6,0.6,0.6s0,0.4,0,0.7c0,0.3-0.1,1.4-0.8,1.7c-0.7,0.3-0.6,0.5-0.6,0.5c0.4,0,1-0.2,1-0.2s-0.1,0.5,0.3,1.2
					c0.4,0.7,0.9,0.9,0.9,0.9c0.6,0.1,1.1,0.3,1.5,0.4c0.1,0,0.1,0.1,0.2,0.1c0.3,0.2,0.8,0.6,1.2,1.3c-0.2-0.2-0.4-0.4-0.6-0.5
					c-1.1-0.8-2.6-1-4.1-1.2c-1.5-0.2-1.7-0.9-1.7-1c0.2,0.8,0.7,1.1,1.1,1.3c0.4,0.2,1.1,0.4,3,1.1c1.9,0.7,2.4,1.8,2.4,1.8
					c0.4,0.9,0.3,1.7,0.1,2.2c-0.3,0.7-0.7,1.2-0.7,1.2c0.4-0.4,0.7-0.8,0.8-1c0.5,0.9,1,1.6,1.3,1.8l-0.8,3.5c0,0-0.9-1.7-2.6-2.9
					c0,0,0,0,0,0c0.2,0.1,0.5,0.4,1,1c0.5,0.7,1.1,1.9,1.3,2.5c0.1,0.2,0.2,0.5,0.2,0.7c0.2,0.7,0.2,1.9,0.4,3.4
					c0.1,0.6,0.1,0.9,0.1,1.3l1.2-4.4l2-10.4c0.2-0.2,0.5-0.7,0.6-1c0.2-0.4,0-0.4,0-0.7s0.1-0.3-0.1-0.4c-0.1,0-0.1-0.1-0.1-0.1
					l0.9-4.9l2.3-0.7l0.2,0c0,0,0.2-0.1,0.2-0.2C36.2,23.7,35.9,23.3,35.8,23.1z M12.6,22.4c-0.1,0-0.2,0-0.3,0
					c0.7-0.1,1.3-0.6,1.3-1.3c0-0.6-0.5-1.2-1.1-1.3c0,0,0.1,0,0.1,0c0.8,0,1.4,0.6,1.4,1.3S13.3,22.4,12.6,22.4z"/>
			</g>
		</g>
	</g>
</g>
</svg>
